<mxfile host="app.diagrams.net" agent="Mozilla/5.0 (Windows NT 10.0; Win64; x64) AppleWebKit/537.36 (KHTML, like Gecko) Chrome/132.0.0.0 Safari/537.36" version="26.0.10">
  <diagram id="C5RBs43oDa-KdzZeNtuy" name="Page-1">
    <mxGraphModel dx="1785" dy="3447" grid="1" gridSize="10" guides="1" tooltips="1" connect="1" arrows="1" fold="1" page="1" pageScale="1" pageWidth="827" pageHeight="1169" math="0" shadow="0">
      <root>
        <mxCell id="WIyWlLk6GJQsqaUBKTNV-0" />
        <mxCell id="WIyWlLk6GJQsqaUBKTNV-1" parent="WIyWlLk6GJQsqaUBKTNV-0" />
        <mxCell id="MfQ9DTAlPBdOTaMPNGzB-5" value="" style="shape=image;verticalLabelPosition=bottom;labelBackgroundColor=default;verticalAlign=top;aspect=fixed;imageAspect=0;image=https://miro.medium.com/v2/resize:fit:875/1*BoMvt8plq6rLQoGh-wl2gA.png;movable=0;resizable=0;rotatable=0;deletable=0;editable=0;locked=1;connectable=0;opacity=30;" parent="WIyWlLk6GJQsqaUBKTNV-1" vertex="1">
          <mxGeometry x="790" y="-80" width="875" height="656" as="geometry" />
        </mxCell>
        <mxCell id="WIyWlLk6GJQsqaUBKTNV-2" value="" style="rounded=0;html=1;jettySize=auto;orthogonalLoop=1;fontSize=11;endArrow=block;endFill=0;endSize=8;strokeWidth=1;shadow=0;labelBackgroundColor=none;edgeStyle=orthogonalEdgeStyle;" parent="WIyWlLk6GJQsqaUBKTNV-1" source="WIyWlLk6GJQsqaUBKTNV-3" target="WIyWlLk6GJQsqaUBKTNV-6" edge="1">
          <mxGeometry relative="1" as="geometry" />
        </mxCell>
        <mxCell id="WIyWlLk6GJQsqaUBKTNV-3" value="Lamp doesn&#39;t work" style="rounded=1;whiteSpace=wrap;html=1;fontSize=12;glass=0;strokeWidth=1;shadow=0;" parent="WIyWlLk6GJQsqaUBKTNV-1" vertex="1">
          <mxGeometry x="160" y="80" width="120" height="40" as="geometry" />
        </mxCell>
        <mxCell id="WIyWlLk6GJQsqaUBKTNV-4" value="Yes" style="rounded=0;html=1;jettySize=auto;orthogonalLoop=1;fontSize=11;endArrow=block;endFill=0;endSize=8;strokeWidth=1;shadow=0;labelBackgroundColor=none;edgeStyle=orthogonalEdgeStyle;" parent="WIyWlLk6GJQsqaUBKTNV-1" source="WIyWlLk6GJQsqaUBKTNV-6" target="WIyWlLk6GJQsqaUBKTNV-10" edge="1">
          <mxGeometry y="20" relative="1" as="geometry">
            <mxPoint as="offset" />
          </mxGeometry>
        </mxCell>
        <mxCell id="WIyWlLk6GJQsqaUBKTNV-5" value="No" style="edgeStyle=orthogonalEdgeStyle;rounded=0;html=1;jettySize=auto;orthogonalLoop=1;fontSize=11;endArrow=block;endFill=0;endSize=8;strokeWidth=1;shadow=0;labelBackgroundColor=none;" parent="WIyWlLk6GJQsqaUBKTNV-1" source="WIyWlLk6GJQsqaUBKTNV-6" target="WIyWlLk6GJQsqaUBKTNV-7" edge="1">
          <mxGeometry y="10" relative="1" as="geometry">
            <mxPoint as="offset" />
          </mxGeometry>
        </mxCell>
        <mxCell id="WIyWlLk6GJQsqaUBKTNV-6" value="Lamp&lt;br&gt;plugged in?" style="rhombus;whiteSpace=wrap;html=1;shadow=0;fontFamily=Helvetica;fontSize=12;align=center;strokeWidth=1;spacing=6;spacingTop=-4;" parent="WIyWlLk6GJQsqaUBKTNV-1" vertex="1">
          <mxGeometry x="170" y="170" width="100" height="80" as="geometry" />
        </mxCell>
        <mxCell id="WIyWlLk6GJQsqaUBKTNV-7" value="Plug in lamp" style="rounded=1;whiteSpace=wrap;html=1;fontSize=12;glass=0;strokeWidth=1;shadow=0;" parent="WIyWlLk6GJQsqaUBKTNV-1" vertex="1">
          <mxGeometry x="320" y="190" width="120" height="40" as="geometry" />
        </mxCell>
        <mxCell id="WIyWlLk6GJQsqaUBKTNV-8" value="No" style="rounded=0;html=1;jettySize=auto;orthogonalLoop=1;fontSize=11;endArrow=block;endFill=0;endSize=8;strokeWidth=1;shadow=0;labelBackgroundColor=none;edgeStyle=orthogonalEdgeStyle;" parent="WIyWlLk6GJQsqaUBKTNV-1" source="WIyWlLk6GJQsqaUBKTNV-10" target="WIyWlLk6GJQsqaUBKTNV-11" edge="1">
          <mxGeometry x="0.3333" y="20" relative="1" as="geometry">
            <mxPoint as="offset" />
          </mxGeometry>
        </mxCell>
        <mxCell id="WIyWlLk6GJQsqaUBKTNV-9" value="Yes" style="edgeStyle=orthogonalEdgeStyle;rounded=0;html=1;jettySize=auto;orthogonalLoop=1;fontSize=11;endArrow=block;endFill=0;endSize=8;strokeWidth=1;shadow=0;labelBackgroundColor=none;" parent="WIyWlLk6GJQsqaUBKTNV-1" source="WIyWlLk6GJQsqaUBKTNV-10" target="WIyWlLk6GJQsqaUBKTNV-12" edge="1">
          <mxGeometry y="10" relative="1" as="geometry">
            <mxPoint as="offset" />
          </mxGeometry>
        </mxCell>
        <mxCell id="WIyWlLk6GJQsqaUBKTNV-10" value="Bulb&lt;br&gt;burned out?" style="rhombus;whiteSpace=wrap;html=1;shadow=0;fontFamily=Helvetica;fontSize=12;align=center;strokeWidth=1;spacing=6;spacingTop=-4;" parent="WIyWlLk6GJQsqaUBKTNV-1" vertex="1">
          <mxGeometry x="170" y="290" width="100" height="80" as="geometry" />
        </mxCell>
        <mxCell id="WIyWlLk6GJQsqaUBKTNV-11" value="Repair Lamp" style="rounded=1;whiteSpace=wrap;html=1;fontSize=12;glass=0;strokeWidth=1;shadow=0;" parent="WIyWlLk6GJQsqaUBKTNV-1" vertex="1">
          <mxGeometry x="160" y="430" width="120" height="40" as="geometry" />
        </mxCell>
        <mxCell id="WIyWlLk6GJQsqaUBKTNV-12" value="Replace Bulb" style="rounded=1;whiteSpace=wrap;html=1;fontSize=12;glass=0;strokeWidth=1;shadow=0;" parent="WIyWlLk6GJQsqaUBKTNV-1" vertex="1">
          <mxGeometry x="320" y="310" width="120" height="40" as="geometry" />
        </mxCell>
        <mxCell id="MfQ9DTAlPBdOTaMPNGzB-0" value="" style="rhombus;whiteSpace=wrap;html=1;" parent="WIyWlLk6GJQsqaUBKTNV-1" vertex="1">
          <mxGeometry x="920" y="130" width="300" height="300" as="geometry" />
        </mxCell>
        <mxCell id="MfQ9DTAlPBdOTaMPNGzB-1" value="" style="rhombus;whiteSpace=wrap;html=1;" parent="WIyWlLk6GJQsqaUBKTNV-1" vertex="1">
          <mxGeometry x="1220" y="130" width="300" height="300" as="geometry" />
        </mxCell>
        <mxCell id="MfQ9DTAlPBdOTaMPNGzB-2" value="Detailed Brief" style="rounded=1;whiteSpace=wrap;html=1;fontSize=12;glass=0;strokeWidth=1;shadow=0;" parent="WIyWlLk6GJQsqaUBKTNV-1" vertex="1">
          <mxGeometry x="1161" y="260" width="120" height="40" as="geometry" />
        </mxCell>
        <mxCell id="MfQ9DTAlPBdOTaMPNGzB-3" value="Design Problem" style="rounded=1;whiteSpace=wrap;html=1;fontSize=12;glass=0;strokeWidth=1;shadow=0;" parent="WIyWlLk6GJQsqaUBKTNV-1" vertex="1">
          <mxGeometry x="860" y="260" width="120" height="40" as="geometry" />
        </mxCell>
        <mxCell id="MfQ9DTAlPBdOTaMPNGzB-4" value="Design Solution" style="rounded=1;whiteSpace=wrap;html=1;fontSize=12;glass=0;strokeWidth=1;shadow=0;" parent="WIyWlLk6GJQsqaUBKTNV-1" vertex="1">
          <mxGeometry x="1450" y="260" width="120" height="40" as="geometry" />
        </mxCell>
        <mxCell id="MfQ9DTAlPBdOTaMPNGzB-6" value="Agents acting as experts while defining Detailed Brief" style="shape=hexagon;perimeter=hexagonPerimeter2;whiteSpace=wrap;html=1;fixedSize=1;" parent="WIyWlLk6GJQsqaUBKTNV-1" vertex="1">
          <mxGeometry x="1090" y="480" width="120" height="80" as="geometry" />
        </mxCell>
        <mxCell id="MfQ9DTAlPBdOTaMPNGzB-7" value="" style="endArrow=classic;html=1;rounded=0;" parent="WIyWlLk6GJQsqaUBKTNV-1" edge="1">
          <mxGeometry width="50" height="50" relative="1" as="geometry">
            <mxPoint x="1000" y="240" as="sourcePoint" />
            <mxPoint x="1050" y="190" as="targetPoint" />
          </mxGeometry>
        </mxCell>
        <mxCell id="MfQ9DTAlPBdOTaMPNGzB-8" value="Flare" style="edgeLabel;html=1;align=center;verticalAlign=middle;resizable=0;points=[];" parent="MfQ9DTAlPBdOTaMPNGzB-7" vertex="1" connectable="0">
          <mxGeometry x="-0.3312" y="2" relative="1" as="geometry">
            <mxPoint x="5" y="-2" as="offset" />
          </mxGeometry>
        </mxCell>
        <mxCell id="MfQ9DTAlPBdOTaMPNGzB-9" value="" style="endArrow=classic;html=1;rounded=0;entryX=0.567;entryY=0.667;entryDx=0;entryDy=0;entryPerimeter=0;" parent="WIyWlLk6GJQsqaUBKTNV-1" edge="1">
          <mxGeometry width="50" height="50" relative="1" as="geometry">
            <mxPoint x="1090" y="200" as="sourcePoint" />
            <mxPoint x="1135.1" y="240.0999999999999" as="targetPoint" />
          </mxGeometry>
        </mxCell>
        <mxCell id="MfQ9DTAlPBdOTaMPNGzB-10" value="Focus" style="edgeLabel;html=1;align=center;verticalAlign=middle;resizable=0;points=[];" parent="MfQ9DTAlPBdOTaMPNGzB-9" vertex="1" connectable="0">
          <mxGeometry x="-0.3312" y="2" relative="1" as="geometry">
            <mxPoint x="3" y="8" as="offset" />
          </mxGeometry>
        </mxCell>
        <mxCell id="MfQ9DTAlPBdOTaMPNGzB-11" value="" style="endArrow=classic;html=1;rounded=0;" parent="WIyWlLk6GJQsqaUBKTNV-1" edge="1">
          <mxGeometry width="50" height="50" relative="1" as="geometry">
            <mxPoint x="1300" y="240" as="sourcePoint" />
            <mxPoint x="1350" y="190" as="targetPoint" />
          </mxGeometry>
        </mxCell>
        <mxCell id="MfQ9DTAlPBdOTaMPNGzB-12" value="Flare" style="edgeLabel;html=1;align=center;verticalAlign=middle;resizable=0;points=[];" parent="MfQ9DTAlPBdOTaMPNGzB-11" vertex="1" connectable="0">
          <mxGeometry x="-0.3312" y="2" relative="1" as="geometry">
            <mxPoint x="5" y="-2" as="offset" />
          </mxGeometry>
        </mxCell>
        <mxCell id="MfQ9DTAlPBdOTaMPNGzB-13" value="" style="endArrow=classic;html=1;rounded=0;entryX=0.567;entryY=0.667;entryDx=0;entryDy=0;entryPerimeter=0;" parent="WIyWlLk6GJQsqaUBKTNV-1" edge="1">
          <mxGeometry width="50" height="50" relative="1" as="geometry">
            <mxPoint x="1390" y="200" as="sourcePoint" />
            <mxPoint x="1435.1" y="240.0999999999999" as="targetPoint" />
          </mxGeometry>
        </mxCell>
        <mxCell id="MfQ9DTAlPBdOTaMPNGzB-14" value="Focus" style="edgeLabel;html=1;align=center;verticalAlign=middle;resizable=0;points=[];" parent="MfQ9DTAlPBdOTaMPNGzB-13" vertex="1" connectable="0">
          <mxGeometry x="-0.3312" y="2" relative="1" as="geometry">
            <mxPoint x="3" y="8" as="offset" />
          </mxGeometry>
        </mxCell>
        <mxCell id="MfQ9DTAlPBdOTaMPNGzB-15" value="Agents acting as experts providing&amp;nbsp; guidance" style="shape=hexagon;perimeter=hexagonPerimeter2;whiteSpace=wrap;html=1;fixedSize=1;" parent="WIyWlLk6GJQsqaUBKTNV-1" vertex="1">
          <mxGeometry x="1240" y="480" width="120" height="80" as="geometry" />
        </mxCell>
        <mxCell id="MfQ9DTAlPBdOTaMPNGzB-16" value="Agents acting as experts providing&amp;nbsp; assessments (field knowledge)" style="shape=hexagon;perimeter=hexagonPerimeter2;whiteSpace=wrap;html=1;fixedSize=1;" parent="WIyWlLk6GJQsqaUBKTNV-1" vertex="1">
          <mxGeometry x="1390" y="480" width="120" height="80" as="geometry" />
        </mxCell>
        <mxCell id="MfQ9DTAlPBdOTaMPNGzB-17" value="Agents acting as experts while understanding the problem (field knowledge)" style="shape=hexagon;perimeter=hexagonPerimeter2;whiteSpace=wrap;html=1;fixedSize=1;" parent="WIyWlLk6GJQsqaUBKTNV-1" vertex="1">
          <mxGeometry x="940" y="480" width="120" height="80" as="geometry" />
        </mxCell>
        <mxCell id="kV7S6TC3auCnjzCI8arg-1" value="Design Problem&lt;br&gt;description" style="ellipse;whiteSpace=wrap;html=1;" vertex="1" parent="WIyWlLk6GJQsqaUBKTNV-1">
          <mxGeometry x="800" y="720" width="180" height="120" as="geometry" />
        </mxCell>
        <mxCell id="kV7S6TC3auCnjzCI8arg-2" value="Design Brief" style="ellipse;whiteSpace=wrap;html=1;" vertex="1" parent="WIyWlLk6GJQsqaUBKTNV-1">
          <mxGeometry x="1130" y="720" width="180" height="120" as="geometry" />
        </mxCell>
        <mxCell id="kV7S6TC3auCnjzCI8arg-3" value="Design Solution" style="ellipse;whiteSpace=wrap;html=1;" vertex="1" parent="WIyWlLk6GJQsqaUBKTNV-1">
          <mxGeometry x="1470" y="720" width="180" height="120" as="geometry" />
        </mxCell>
        <mxCell id="kV7S6TC3auCnjzCI8arg-4" value="" style="endArrow=classic;html=1;rounded=0;" edge="1" parent="WIyWlLk6GJQsqaUBKTNV-1">
          <mxGeometry width="50" height="50" relative="1" as="geometry">
            <mxPoint x="930" y="10" as="sourcePoint" />
            <mxPoint x="1530" y="10" as="targetPoint" />
          </mxGeometry>
        </mxCell>
        <mxCell id="kV7S6TC3auCnjzCI8arg-5" value="Design process (removing design uncertainty)" style="edgeLabel;html=1;align=center;verticalAlign=middle;resizable=0;points=[];" vertex="1" connectable="0" parent="kV7S6TC3auCnjzCI8arg-4">
          <mxGeometry x="0.1635" y="-3" relative="1" as="geometry">
            <mxPoint x="-52" y="-13" as="offset" />
          </mxGeometry>
        </mxCell>
        <mxCell id="kV7S6TC3auCnjzCI8arg-6" value="" style="endArrow=classic;html=1;rounded=0;" edge="1" parent="WIyWlLk6GJQsqaUBKTNV-1">
          <mxGeometry width="50" height="50" relative="1" as="geometry">
            <mxPoint x="840" y="280" as="sourcePoint" />
            <mxPoint x="840" y="140" as="targetPoint" />
          </mxGeometry>
        </mxCell>
        <mxCell id="kV7S6TC3auCnjzCI8arg-7" value="scope" style="edgeLabel;html=1;align=center;verticalAlign=middle;resizable=0;points=[];" vertex="1" connectable="0" parent="kV7S6TC3auCnjzCI8arg-6">
          <mxGeometry x="0.1635" y="-3" relative="1" as="geometry">
            <mxPoint x="-3" y="21" as="offset" />
          </mxGeometry>
        </mxCell>
        <mxCell id="kV7S6TC3auCnjzCI8arg-8" value="" style="endArrow=classic;html=1;rounded=0;" edge="1" parent="WIyWlLk6GJQsqaUBKTNV-1">
          <mxGeometry width="50" height="50" relative="1" as="geometry">
            <mxPoint x="840" y="290" as="sourcePoint" />
            <mxPoint x="840" y="420" as="targetPoint" />
          </mxGeometry>
        </mxCell>
        <mxCell id="kV7S6TC3auCnjzCI8arg-9" value="scope" style="edgeLabel;html=1;align=center;verticalAlign=middle;resizable=0;points=[];" vertex="1" connectable="0" parent="kV7S6TC3auCnjzCI8arg-8">
          <mxGeometry x="0.1635" y="-3" relative="1" as="geometry">
            <mxPoint x="3" y="-16" as="offset" />
          </mxGeometry>
        </mxCell>
        <mxCell id="kV7S6TC3auCnjzCI8arg-10" value="Structure Agent" style="rounded=1;whiteSpace=wrap;html=1;fontSize=12;glass=0;strokeWidth=1;shadow=0;" vertex="1" parent="WIyWlLk6GJQsqaUBKTNV-1">
          <mxGeometry x="1860" y="300" width="120" height="40" as="geometry" />
        </mxCell>
        <mxCell id="kV7S6TC3auCnjzCI8arg-11" value="Cost Estimation Agent" style="rounded=1;whiteSpace=wrap;html=1;fontSize=12;glass=0;strokeWidth=1;shadow=0;" vertex="1" parent="WIyWlLk6GJQsqaUBKTNV-1">
          <mxGeometry x="1980" y="180" width="120" height="40" as="geometry" />
        </mxCell>
        <mxCell id="kV7S6TC3auCnjzCI8arg-12" value="Architect Agent" style="rounded=1;whiteSpace=wrap;html=1;fontSize=12;glass=0;strokeWidth=1;shadow=0;" vertex="1" parent="WIyWlLk6GJQsqaUBKTNV-1">
          <mxGeometry x="1730" y="180" width="120" height="40" as="geometry" />
        </mxCell>
        <mxCell id="kV7S6TC3auCnjzCI8arg-13" value="IFC representation" style="rounded=1;whiteSpace=wrap;html=1;fontSize=12;glass=0;strokeWidth=1;shadow=0;" vertex="1" parent="WIyWlLk6GJQsqaUBKTNV-1">
          <mxGeometry x="1730" y="240" width="670" height="40" as="geometry" />
        </mxCell>
        <mxCell id="kV7S6TC3auCnjzCI8arg-14" value="" style="endArrow=none;html=1;rounded=0;exitX=0.714;exitY=0.065;exitDx=0;exitDy=0;exitPerimeter=0;" edge="1" parent="WIyWlLk6GJQsqaUBKTNV-1" source="kV7S6TC3auCnjzCI8arg-10" target="kV7S6TC3auCnjzCI8arg-13">
          <mxGeometry width="50" height="50" relative="1" as="geometry">
            <mxPoint x="1900" y="300" as="sourcePoint" />
            <mxPoint x="1950" y="250" as="targetPoint" />
          </mxGeometry>
        </mxCell>
        <mxCell id="kV7S6TC3auCnjzCI8arg-15" value="" style="endArrow=none;html=1;rounded=0;exitX=0.75;exitY=1;exitDx=0;exitDy=0;entryX=0.2;entryY=0.162;entryDx=0;entryDy=0;entryPerimeter=0;" edge="1" parent="WIyWlLk6GJQsqaUBKTNV-1" source="kV7S6TC3auCnjzCI8arg-12" target="kV7S6TC3auCnjzCI8arg-13">
          <mxGeometry width="50" height="50" relative="1" as="geometry">
            <mxPoint x="1900" y="300" as="sourcePoint" />
            <mxPoint x="1950" y="250" as="targetPoint" />
          </mxGeometry>
        </mxCell>
        <mxCell id="kV7S6TC3auCnjzCI8arg-16" value="Building Code Specialist" style="rounded=1;whiteSpace=wrap;html=1;fontSize=12;glass=0;strokeWidth=1;shadow=0;" vertex="1" parent="WIyWlLk6GJQsqaUBKTNV-1">
          <mxGeometry x="1730" y="480" width="120" height="40" as="geometry" />
        </mxCell>
        <mxCell id="kV7S6TC3auCnjzCI8arg-17" value="Community Engagement Specialist" style="rounded=1;whiteSpace=wrap;html=1;fontSize=12;glass=0;strokeWidth=1;shadow=0;" vertex="1" parent="WIyWlLk6GJQsqaUBKTNV-1">
          <mxGeometry x="1890" y="480" width="120" height="40" as="geometry" />
        </mxCell>
        <mxCell id="kV7S6TC3auCnjzCI8arg-18" value="Environmental Specialist" style="rounded=1;whiteSpace=wrap;html=1;fontSize=12;glass=0;strokeWidth=1;shadow=0;" vertex="1" parent="WIyWlLk6GJQsqaUBKTNV-1">
          <mxGeometry x="2050" y="480" width="120" height="40" as="geometry" />
        </mxCell>
        <mxCell id="kV7S6TC3auCnjzCI8arg-19" value="Design Constraints" style="rounded=1;whiteSpace=wrap;html=1;fontSize=12;glass=0;strokeWidth=1;shadow=0;" vertex="1" parent="WIyWlLk6GJQsqaUBKTNV-1">
          <mxGeometry x="1665" y="10" width="120" height="40" as="geometry" />
        </mxCell>
        <mxCell id="kV7S6TC3auCnjzCI8arg-20" value="Limits from Human agent" style="rounded=1;whiteSpace=wrap;html=1;fontSize=12;glass=0;strokeWidth=1;shadow=0;" vertex="1" parent="WIyWlLk6GJQsqaUBKTNV-1">
          <mxGeometry x="1795" y="10" width="120" height="40" as="geometry" />
        </mxCell>
        <mxCell id="kV7S6TC3auCnjzCI8arg-21" value="Feasibility" style="rounded=1;whiteSpace=wrap;html=1;fontSize=12;glass=0;strokeWidth=1;shadow=0;" vertex="1" parent="WIyWlLk6GJQsqaUBKTNV-1">
          <mxGeometry x="2150" y="10" width="120" height="40" as="geometry" />
        </mxCell>
        <mxCell id="kV7S6TC3auCnjzCI8arg-22" value="Decisions &amp;amp; Governance" style="rounded=1;whiteSpace=wrap;html=1;fontSize=12;glass=0;strokeWidth=1;shadow=0;" vertex="1" parent="WIyWlLk6GJQsqaUBKTNV-1">
          <mxGeometry x="2290" y="10" width="120" height="40" as="geometry" />
        </mxCell>
        <mxCell id="kV7S6TC3auCnjzCI8arg-23" value="Each agent has own goals" style="rounded=1;whiteSpace=wrap;html=1;fontSize=12;glass=0;strokeWidth=1;shadow=0;" vertex="1" parent="WIyWlLk6GJQsqaUBKTNV-1">
          <mxGeometry x="2260" y="360" width="120" height="40" as="geometry" />
        </mxCell>
        <mxCell id="kV7S6TC3auCnjzCI8arg-24" value="Feasibility" style="rounded=1;whiteSpace=wrap;html=1;fontSize=12;glass=0;strokeWidth=1;shadow=0;" vertex="1" parent="WIyWlLk6GJQsqaUBKTNV-1">
          <mxGeometry x="1665" y="-510" width="120" height="40" as="geometry" />
        </mxCell>
        <mxCell id="kV7S6TC3auCnjzCI8arg-25" value="Level 1" style="rounded=1;whiteSpace=wrap;html=1;fontSize=12;glass=0;strokeWidth=1;shadow=0;" vertex="1" parent="WIyWlLk6GJQsqaUBKTNV-1">
          <mxGeometry x="1700" y="-450" width="120" height="40" as="geometry" />
        </mxCell>
        <mxCell id="kV7S6TC3auCnjzCI8arg-26" value="Getting feedback on a given design" style="rounded=1;whiteSpace=wrap;html=1;fontSize=12;glass=0;strokeWidth=1;shadow=0;" vertex="1" parent="WIyWlLk6GJQsqaUBKTNV-1">
          <mxGeometry x="1850" y="-450" width="120" height="40" as="geometry" />
        </mxCell>
        <mxCell id="kV7S6TC3auCnjzCI8arg-27" value="Getting the experts to propose changes" style="rounded=1;whiteSpace=wrap;html=1;fontSize=12;glass=0;strokeWidth=1;shadow=0;" vertex="1" parent="WIyWlLk6GJQsqaUBKTNV-1">
          <mxGeometry x="1850" y="-410" width="120" height="40" as="geometry" />
        </mxCell>
        <mxCell id="kV7S6TC3auCnjzCI8arg-28" value="Level 2" style="rounded=1;whiteSpace=wrap;html=1;fontSize=12;glass=0;strokeWidth=1;shadow=0;" vertex="1" parent="WIyWlLk6GJQsqaUBKTNV-1">
          <mxGeometry x="1700" y="-360" width="120" height="40" as="geometry" />
        </mxCell>
        <mxCell id="kV7S6TC3auCnjzCI8arg-29" value="Constraints" style="rounded=1;whiteSpace=wrap;html=1;fontSize=12;glass=0;strokeWidth=1;shadow=0;" vertex="1" parent="WIyWlLk6GJQsqaUBKTNV-1">
          <mxGeometry x="1850" y="-360" width="120" height="40" as="geometry" />
        </mxCell>
        <mxCell id="kV7S6TC3auCnjzCI8arg-30" value="Own goals" style="rounded=1;whiteSpace=wrap;html=1;fontSize=12;glass=0;strokeWidth=1;shadow=0;" vertex="1" parent="WIyWlLk6GJQsqaUBKTNV-1">
          <mxGeometry x="1850" y="-320" width="120" height="40" as="geometry" />
        </mxCell>
        <mxCell id="kV7S6TC3auCnjzCI8arg-31" value="Agent" style="rounded=1;whiteSpace=wrap;html=1;fontSize=12;glass=0;strokeWidth=1;shadow=0;" vertex="1" parent="WIyWlLk6GJQsqaUBKTNV-1">
          <mxGeometry x="2775" y="-890" width="120" height="40" as="geometry" />
        </mxCell>
        <mxCell id="kV7S6TC3auCnjzCI8arg-32" value="Domain knowledge" style="rounded=1;whiteSpace=wrap;html=1;fontSize=12;glass=0;strokeWidth=1;shadow=0;" vertex="1" parent="WIyWlLk6GJQsqaUBKTNV-1">
          <mxGeometry x="3030" y="-800" width="120" height="40" as="geometry" />
        </mxCell>
        <mxCell id="kV7S6TC3auCnjzCI8arg-33" value="Ability to create IFC file" style="rounded=1;whiteSpace=wrap;html=1;fontSize=12;glass=0;strokeWidth=1;shadow=0;" vertex="1" parent="WIyWlLk6GJQsqaUBKTNV-1">
          <mxGeometry x="2510" y="-740" width="120" height="40" as="geometry" />
        </mxCell>
        <mxCell id="kV7S6TC3auCnjzCI8arg-34" value="Understanding DESIGN from IFC" style="rounded=1;whiteSpace=wrap;html=1;fontSize=12;glass=0;strokeWidth=1;shadow=0;" vertex="1" parent="WIyWlLk6GJQsqaUBKTNV-1">
          <mxGeometry x="2510" y="-700" width="120" height="40" as="geometry" />
        </mxCell>
        <mxCell id="kV7S6TC3auCnjzCI8arg-35" value="Create code to build the design -&amp;gt;&amp;nbsp;" style="rounded=1;whiteSpace=wrap;html=1;fontSize=12;glass=0;strokeWidth=1;shadow=0;" vertex="1" parent="WIyWlLk6GJQsqaUBKTNV-1">
          <mxGeometry x="2510" y="-660" width="120" height="40" as="geometry" />
        </mxCell>
        <mxCell id="kV7S6TC3auCnjzCI8arg-36" value="Might miss the &quot;features&quot;" style="rounded=1;whiteSpace=wrap;html=1;fontSize=12;glass=0;strokeWidth=1;shadow=0;" vertex="1" parent="WIyWlLk6GJQsqaUBKTNV-1">
          <mxGeometry x="2370" y="-670" width="120" height="40" as="geometry" />
        </mxCell>
        <mxCell id="kV7S6TC3auCnjzCI8arg-37" value="Use human readable code or ask LLMs to create scripts" style="rounded=1;whiteSpace=wrap;html=1;fontSize=12;glass=0;strokeWidth=1;shadow=0;" vertex="1" parent="WIyWlLk6GJQsqaUBKTNV-1">
          <mxGeometry x="2005" y="-240" width="120" height="40" as="geometry" />
        </mxCell>
        <mxCell id="kV7S6TC3auCnjzCI8arg-38" value="Common desing knowledge" style="rounded=1;whiteSpace=wrap;html=1;fontSize=12;glass=0;strokeWidth=1;shadow=0;" vertex="1" parent="WIyWlLk6GJQsqaUBKTNV-1">
          <mxGeometry x="3050" y="-760" width="120" height="40" as="geometry" />
        </mxCell>
        <mxCell id="kV7S6TC3auCnjzCI8arg-39" value="Agent Manager -&amp;gt; decision maker?" style="rounded=1;whiteSpace=wrap;html=1;fontSize=12;glass=0;strokeWidth=1;shadow=0;" vertex="1" parent="WIyWlLk6GJQsqaUBKTNV-1">
          <mxGeometry x="2005" y="-160" width="120" height="40" as="geometry" />
        </mxCell>
        <mxCell id="kV7S6TC3auCnjzCI8arg-40" value="Design inflection point" style="rounded=1;whiteSpace=wrap;html=1;fontSize=12;glass=0;strokeWidth=1;shadow=0;" vertex="1" parent="WIyWlLk6GJQsqaUBKTNV-1">
          <mxGeometry x="1210" y="-510" width="120" height="40" as="geometry" />
        </mxCell>
        <mxCell id="kV7S6TC3auCnjzCI8arg-42" value="Is this possible just with agents?" style="rounded=1;whiteSpace=wrap;html=1;fontSize=12;glass=0;strokeWidth=1;shadow=0;" vertex="1" parent="WIyWlLk6GJQsqaUBKTNV-1">
          <mxGeometry x="1240" y="-450" width="120" height="40" as="geometry" />
        </mxCell>
        <mxCell id="kV7S6TC3auCnjzCI8arg-43" value="Can we recognize this happening?" style="rounded=1;whiteSpace=wrap;html=1;fontSize=12;glass=0;strokeWidth=1;shadow=0;" vertex="1" parent="WIyWlLk6GJQsqaUBKTNV-1">
          <mxGeometry x="1240" y="-410" width="120" height="40" as="geometry" />
        </mxCell>
        <mxCell id="kV7S6TC3auCnjzCI8arg-44" value="Will the agents understand this as a design method?" style="rounded=1;whiteSpace=wrap;html=1;fontSize=12;glass=0;strokeWidth=1;shadow=0;" vertex="1" parent="WIyWlLk6GJQsqaUBKTNV-1">
          <mxGeometry x="1240" y="-370" width="120" height="40" as="geometry" />
        </mxCell>
        <mxCell id="kV7S6TC3auCnjzCI8arg-45" value="" style="shape=image;verticalLabelPosition=bottom;labelBackgroundColor=default;verticalAlign=top;aspect=fixed;imageAspect=0;image=data:image/png,iVBORw0KGgoAAAANSUhEUgAAA70AAAIlCAYAAAAZn582AAAAAXNSR0IArs4c6QAAAARnQU1BAACxjwv8YQUAAAAJcEhZcwAADsMAAA7DAcdvqGQAAP+lSURBVHhe7P0HcCRJet6NP+274T0wBuPtznp/e3veGx49RXd3DJEyVEgRkkL6QhF/behEhkIfPxmKTqRIkTwej8cz5Nnl7d16v7M7Ozt2x3sPb9u7//tkdaILjW6gATRmAMz7w+RUdVZWVmZW1lv5VGZleVKpVB6KoiiKoiiKoiiKsgrxFpaKoiiKoiiKoiiKsupQ0asoiqIoiqIoiqKsWlT0KoqiKIqiKIqiKKsWFb2KoiiKoiiKoijKqkVFr6IoiqIoiqIoirJqUdGrKIqiKIqiKIqirFpU9CqKoiiKoiiKoiirFhW9iqIoiqIoiqIoyqpFRa+iKIqiKIqiKIqyalHRqyiKoiiKoiiKoqxaVPQqiqIoiqIoiqIoqxYVvYqiKIqiKIqiKMqqRUWvoiiKoiiKoiiKsmpR0asoiqIoiqIoiqKsWlT0KoqiKIqiKIqiKKsWFb2KoiiKoiiKoijKqkVFr6IoiqIoiqIoirJqUdGrKIqiKIqiKIqirFpU9CqKoiiKoiiKoiirFk8qlcoX1hVFUZQFks+rKVWUlYrH4ymsKYqiKKsRFb2Koig1YDbRm8lkkEwmkUgkzFJRlOWF1+uFz+dDKBRCXV0dAoFAYYuiKIqyGlDRqyiKUgPKid50Oo14PG6Ebi6XM41q+imKsrywopcPqHgtU/hGIhEjfrlNURRFWdmo6FUURakBbtFLgcvG8+TkpOndzWazpvHMhrSiKMsPO7w5Go2aazYYDJprtrGx0fT+qvBVFEVZ2ajoVRRFqQFW9HLJ3tyxsTHEYjHU19ebBrSiKMuX0nd6+aCqr68Pra2taGpqQjgc1vd+FUVRVjD66FJRFKWG2B5eOvYSqeBdTvCWR6fiRZkdDnXu6enBxMQEhoaGkEqlClsURVGUlYiKXkVRlBrCd3jp2DvEhrOiKCsTDmluaWkx1zEfYimKoigrFxW9iqIoNYLDmvk+IN/p5fuAOhzy5pOXIi/ruM3txE9R5oIjNXg9U/TqJHSKoigrFxW9iqIoNYI9vFbwKjcf563qCpQRuSp8lWpgjy8fYPEdfV7fiqIoyspDRa+iKEqNoOglOkvzraFSx7rTu+vaqGJXmQecjI6OMzur6FUURVmZ6OzNiqIoi4QzNtNdvnzZ9ArxfV7lZuI8v3XfzGbtxZWAU5s9BREj589TiKHsrnl9RryametVBH5re3x8HBs2bYTf7y/4KoqiKCsFvYsriqLUACt8leWHfa9XURaLXuOKoigrExW9iqIoyqrCLXDLrhdEsAphRVEURbk9UNGrKIqilCXj+uawdfa95ZVAZVHrDGX2TA1pnvbGr7PN+CuKoiiKshrQd3oVRVEWCYc8coIbvtPLb3qu9Hd6KXb56aWBgQFcuHCh4OvQ0NCA3t5eM7FPJBJZJu83Tn+n192La/wK6x75QefNZ8XljLeRtwzvBDFi1zs1hLUgf01AfUa8mqn2nd7ejRt0dnZFUZQViIpeRVGURbLaRO+NGzfw2muv4cknn8SLL75Y8HVobm7GPffcg09+8pP40Ic+hJ6ensKWW0l1opfC1SeC15/NwJ/LGK+cxyvOg5zXY4Kx99dbmKE3T3/ZzqWK3tWNil5FUZTVjYpeRVGURWJF75UrV5bt7M2zTcBjG/xyP8CJEyfwF3/xF9i3b5/pyX3kkUfQ3t5u8sVPtrD39/r160YYv//978dHP/pR7Ny50+xPWltbEQqFCr+cuJd+8p/KoteNyFkRu2kkhgcwcu0yxkdHsGHrdjS0tsEbDJle3Vwmg5HrlxGS3+HGZvjqGkQQS/wqelc1KnoVRVFWNyp6FUVRFslKF72EgvbUqVP4y7/8S9Nj3dnZiQcffBDvfe97zVBmigI2/MfGxnDx4kV84xvfwMjICLq6urBmzZpCLMDatWuxfft2bNu2DevWrTNlwd5vsnTit7LoZc8tcX5T9KYwfuksrhw/guG+G9h93wPo6t2EQEMj0rk8oqOjOPn2G+ju6kbnxs0ItXcj4/VLBEXRW05QG+RQs0unhcGh5hkR4xxKHg6HC77LE14Ho1KGHAYfDAYLvssfFb2KoiirG98TTzzxpcK6oiiKskAo6NgoZuPZ3dO5Eshms7h06RK+//3v44UXXjBi92d+5mfwkY98BBs3bjS9ty0tLUbAUgBTfB08eBDHjh3D1atXjchh3tkDzN8UxXRDQ0Nmn7q6upvw7q8jWqZktfw07/Ca1bwRv1z6c1nkxkcQ7b+KkRvXEBAt29TUgFA4glw2h4nhAZw7tB9tjXVoaW9HMNKArMQzPjyMeCwqseURCFL0lBFJPGZh1cJ6QcHEBwS2fPr7+6ccy4097AzHhwNWfHHCMIbnA4i33noLg4ODpuwbGxvN9uUE08r0sQ6dPnMaJ0+eRFtbmxG+K4W5RC+vEZ7H5pbmqYc4iqIoyspBRa+iKEoNoGiZmJgwPb216uGaqyG+WBi/FesUVn/913+Nu+66Cz/5kz+J++67z4hdSywWM5Navf322+Y9Xzo2/imQP/OZz+ATn/iEede3u7vbCLuXXnoJb7zxhhE+9HP3+NYCpruIU07TfApl50xelYc3mwEySQRE9IbFM59MYODaFYwODKC5oRENTc3w+ANITE7ixvnT6F23Fm0dnYDXj7ic1zPvHsJw33U5twE0NTcj7yk/3Nl9xiiUWLYnTp4wQpAPCg4dOoSzZ8+a38ePH8e5c+fMUHHOjM3y4ZByLjmMfO/evXjmmWfw53/xFyaeO+64w5TlcoMPN5i3p556Ct//3vdx+vRpU4/cIwCWO9WI3oTUmeaWFhW9iqIoKxAVvYqiKDXAil42nlfSsE4Oa6b4eu655/DOO+/g13/91/Hoo4+a93gJ88UhqxRgf/zHf2wcBRuF8T//5/8cv/zLv4zHHnvMDGfetWsX7r//fjz++OPYvXu36f379re/jY6ODqxfv94I38UwXei6ob/dVhAvVvSKy6dTSI6NIDZwA2HRqqFwGJ5AUPIFpMZHEQ74UNfUgmBjMxKpFK5fvoietWvQ2NKK6MQYzrzzFq6dOAxvOoY2KZem9i7nPd+p47ocj8uDihuQ/D/77DP49//P/4Ox0VGsXb8Od919F+697z6sW7vWlMfrr79uhpSz/Cl0t27dasqLw5nZO/zjH//Y9KBu37EDDz/8sBlOvtxIp9NGyDMvb+/fjzvvvBPvec97zBD5+VL5HN9aeD6cnl4VvYqiKCsRFb2Koig1YCWJXjbgKUg5O/Of/Mmf4O/+7u/M+7zsmfvc5z5nBCqHaHPYMnt2v/rVr+Jb3/qW6Y38wAc+gC9+8Yv41Kc+ZYQuhz0zvxQCdBzGzN5K+lM4nz9/HsPDw0YA7RDhtrQU1KZZ9UwNb05EJ3Hl3BmcPLAP8ZFhcKB1XaQOkYAfE/3XkU7EEayrhy8UwYikdXxwAGs29MIjYq7v3Gn0XboghZbCdhH13Rs2m8mtst5Kwsc5Pod+s8y+JWX76U9/2gwX56RgmzZtMmXR2dFp3n/mJGD0Y9myt/Tee+/Fhg0bTBlyWDgF74WLF43fQw8+uCxFL99x5QgH1inWF+aJAn0hovdWUU1Pr4peRVGUlUv58VmKoijKvLENZwrgcm62beXcUsBeOQpRCrKvfe1rZmgthSrfF6XopRDjZEkcssqeuz/90z81w5Q5rPazn/2s6dnlp4o2bxbxJ41/irIjR46YJYUBYXwUPA888AB+4id+woheDp/mcWvJ7OXFc+E4r88vArIBDeJG+vtx4cRxDF6+gPpIEGvXiIjMZzEpYjg5MghfMoaWuhA8sUmMSpihS5JmEbxrt2xD+8YtCDW1FD5jJLuVOnNcmPdwn332WfPZJ5YTy43DxTmxFx8GUMzy3Vw+FNizZ495d/p973ufEb7seWc5UkiyJ5jhl/vESTzfzA8/Z6UoiqIoyxEVvYqiKDeJ+QrZ+YafCyt4Kci++93vGj8KLn52iL2NVrxQzLLXjmKW76ByNuaf/dmfNUOa+d4u39Pl0Ns333zTxEPxzN5iimNOYMX3f63w/djHPmYmNeK7q++++645Zi0oWzZuP7MqSlRcMBRGV88a7BSB2dbRgXh0AtcunMXA1UtoqOckWz7Ex4Yx0XcF3tgYIrk0otevYPTqRWRiE2htbUHvzt2ItItADoRMtN58ThacHKuISG8jXPmwgMOV+R4uBS97Pil0y0FBy4cNHCLO96NbmlsKW6qHZUGxzGPTcWIp+wDCwjCZwhBdpovhWB/c2O2cLZph+LsS3MaZvPlAwwr1auCkXTad1tFPURRFUZYSHd6sKIpSAygqbsXw5rmGZbqhSPnRj36Ev//7vzdC5d/+239rJqGiQKUoZe8uhy1zaO21a9fMhEQURv/6X/9r864uBTEFEd89peDl8Gj2Zh49etQMzWUcFLzsKaYwpqBjbybfGe7r6zN+HOK7dEhZ2N72wpJDnH2yGg760dLSjCZJg0cE6+jwEPqvXkZYBG9aRGJycgKpyXF40gnERoZEBI8iGY+hTkTx+q3b0Lphs5noKpfNIJdOIivl4uUxPF45Kv8oBLO4dPESvvKVr5jy4MOCz3/+86a3lsN/3Tipc2B94YMBDl3euGmj6eFl2VEM8j3ro+++a3qJS4c3WwHLBxSc6Znnj0v+thOq8QEG38nm+eY5ZS/0mTNnzHli7z7PNeFvniN+dou9/3RMh91uYTgOe+dx+ICDk5YxDXwIwnjN8OYdO/DQQw9NDW+2gptinGnghGj2WKxL5ObM8F2ZaoY3J6S8eS51eLOiKMrKQ0WvoihKDahW9DJcKfMRrqXMZ1+K2H/4h38wwuOf/bN/ZmZc5pBUipcTJ06YXrdPfvKTRuhQjFCcME8/93M/ZwQQxc6BAwfMLM9/9Ed/ZIbu/sqv/Ap+4Rd+wYgximDO6kwxQ9FGIUdhRVFMsUXRzHeClw4Rn7Y8RO1SZnqRgy9f6IXkuYnUo7G1XVyrEYY3Ll1EenIM3lQc+XgU6fExUZMJEbYpeHx+NHZ0Yo2IV4jYjYsYnui7ipFrlzB4/ZrEVYdAMCThfHJkr4jUjOnN/uEPf2iEEXvQP/7xj5cVSaVnjYKP71KzzFh2zMdcopfvDX/zm9/E//2//9cIXj50+M53vmM+PUWRaT8bRLHJ4eW///u/j98Tx8nFKNg54ZSdoZu901//+tfxf/7P/8Fff/WrZuItzhZd+g4xw335y182w+MpeDmsnb3a7OVnHaLgLhW9FN0Uyfv27TMjA3h8fhrrLyWet8WPD1L4cIRD6MtdH8sB2wve0qqiV1EUZSWioldRFKUG1KKndyHidz77cAZmCqWenh784i/+opklmA14ilsKFqafope9bhS9HArNJSdX4r5/9Vd/hb/5m78x4vm9730vfumXfslMWMT3gLds2WKGPnOdopdDqF999VUjeimUKag5MzFnhl46imXBvleKXn5uaGx4yExmNclhuCLAqKs4pLlRxH1jUARrKmE+YeTNpuHLZQtDlyUOEaLpvAfDIyO4zN7JK5cxMTKMbErCidhtaO+AX4Sv1xvgiRBRlDLikr3ghJ/t4SzG5Sh31ijCeT7tOZ1N9O7fvx/f+MY3cFzO28///M8bcc3eeA6VZlnzk1E8t/zOMs8zzwMfcHDCMg5J5pBrClMreim0GZ4PNk6cPGnSzu3cl7CHl4KaDzz4ySa+282h63xvm+KZE5/xvPOBilv0cqQABS/348MV+44zJ/d69JFHjOBl/bgs+94n9YwPXBZyHSyWuY7Jnl4VvYqiKCsXfadXURRlmUDhbF0tYXwULRSr7HXj54QoTss13hmWYew+HJrMHkL20PE3P0tEYcUePg5n5TBVwvjYi8te35/6qZ/C3XffbYa9cqgvewEpftibVwmb79nc3DCMO1weSUnzsKTxhqSX7ooI+csivq5dvYYhEbM5BveK8PVSJrN32HEOFKBe+L1+NDc1mfeCezZuQs+WrejZsAmRugYRqsUyZBopKG/GO6oUpyPiAiLM+TCB72RT4PIBBYdVU4BSgPf39xtBRwHKbQxb7v1ibqcQ5sMLhqcItkOy+TCE73Z/81vfkjzX4T2PPmpELWfvZniea/7mZ5VK4b7s6WdvMHudKZL57jIfkHBCNAp1jxyHw8E5VJ7CUlEURVFqjYpeRVGUVQ7FGMWEfX+SAofv3Zbr3bKCl7AXjuKJ32ClUPrgBz+IX/u1XzOf3+HQWb6/yaGq/JYswxEKLvbkMRzFL3vIeFy+U1r6XuvS4uQtEPCjLhJGJBRCfSiIgCTBy+HO+Rwkp8jIMithc0bqFqemMlrYH0AwEkGkvgGRhmZEmlsRaGiCJ1wPTzDMAAxlwoosN2XHMqt2UqfFwN769z3+uBlCzd5YW7bs0eV7pxyOy4ccLHueew6fpuhkzy4FbSkcncCeYA5jlwpQ8HWgkOewZvbI3rnnzqn3uy3s5eXQZD74sPvaOsR3fdkrnZPfHC5NYc4HIHxnmCMMmO4tmzdjk/iz7Kp7uKEoiqIo80NFr6IoyjKEjX+3Wyzs1bXCqFx89KMIts7+prjld3l/8zd/0wxJ5XBdDm39D//hPxiRxCGv/+N//A/zHimH4lJkURAx3G/8xm/gX/2rf2V69yh02DvMybQoDheCLYty6Z8J8wA0iQDcvG0bdu/Zgzv23CHCazd279yObds2Yd36tabn0h8SAesPIisilp8jMgJYlgERc6G6eqQlroGxSVy81ocTp87i2NF3cebsWYxNRpERgWvSU0gSxSPLmb297Blnvu22BTMVf/EhBT919Ku/+qv4whe+gDVr1sqx4kacUmTyuLlcXs7FoPweNWlhmafTmam02iQVy7TgIbhWzX5DQ8OmJ5Z5aWtrnSZ4LabeyNLsK+uE8TI9fM/5rjvvMoKbcXEo/YEDB/H008+Yoc/8nBPzwYcqFNCKoiiKUmtU9CqKoqwAiuJk/o6ChELFzsRrhJgL9gqyd5KCg47hKNzYG8yh0PycDoe+Mg6Goz+FCmd6pviimP3v//2/40tf+hJ+8IMfmAmObHz8/uy/+Tf/xgy/5czR3M6Jlcqlcy7nZvo2ClzHuYUhhWtGfqbEJb0eJKUcsp48ohOjuH7mBI7vex1nT59GIBxBY1sHPKE6pD0+5CTvnP05K3FzsqpNu+7AznsewLptu1DX3IZEOovxsQnJI/uKeTy5lcqx2Zu6YcNG8JvAly5exjtvH8D1qzeQzeTgyXunOef2Ox9n8zbdP5FI4fLlK3jmmWfxla98FV//+jfxzjsHpezDxkUk/X4R9D5fQM5bpFhGU+XlxMPi5bMI+jlvQzsuKmL6xo0+OcZV5LJ5iaNOhH14ajv3ofNIufn9AbOvz+s3v7mdk3sNDAyZNH7zm3+HL3/5r/DKK6+Z433qU5/GP/kn/wyf//wX8f73fwA9PWtNvZt+bpeRm/Y4QFEURVlJ8K6lKIqi1ICyDeUq3M2AwpcTDrHX75VXXpkSpoQ9thSyhw8fNrMBcxgr38e12N5L6xgXl+w95tBaTqL0u7/7u2YSLArb3/md3zHvALPnkWE5rPXxxx83PX2cPZrvAlP4LgUsT76nSzmaF4Gbk+PnRPBS7KbSSVw8fw6HDh7A6bNnEaqrw4677gIfAWR9frStXYeGrjWo61yDfKheBLMPk9EYLpy/AJZUR1cXdu+5Cw8/+l7c+8DDaGlpNWLSEaPODMz24QCH83JCKc5aXc1wZ4Zhrydnv2ZP6FxwaDB72fm+NT9BxfPHhxPsjef7teXguZg3Upbuujp7HOW3sc7x3XAOfec735xEjSMB+D4wy8p5f9hn4rZOURRFUWqJil5FUZRbzM0Svpx4iO9sUnRycik7aRB7Ydlry3dwOWPzX/zFX5hP0nC2Xb4HSjHHYa50TCsFml2nYOHMwh/5yEfMN385qRFn8KWwpthhGMZB4UuRw9mDObnRbEKQ+8zlpsPfjnO2FH6bHyJ6RQUnYjGcOXYUl86dMUOSO9dtQPfGrYinMvD4g2js7EZDzzp4GlvQsW03PE2tyIUi8IngTyfiuHrxnJkBOhypQ1NHFxrbOuELhCX6Qs+k/Pl9Pmzo3WDeee3t7cXI6Ih575nvr7IsZoPbGZbnhuVTCZY7h4j/3d//nZm9meeIQpvlyyXfmbUzMldDaXk6OSn+LoWfJHI/EJkNxstRA/wUEx9ycIQB3zdm2XBSM26zk6nZz2HZOqMoiqIotURFr6IoyjLgZjT0KT74KRpOdvTUU0/h5MmTZoIpTmzFnli+u0vRygmFKL743Ve+k8lJqvieKGEPL4UXxQ97Jilm2BNMx5md+Qkjihk7sZWFQozH4fFmy+vCyoH7lEg1xmOcrOeATCqN2PgYwsEA1oroWrtpC3IiWq/2DSLU0IzGjm54Ig1IByNo3LAFke51ZntW9m9sqEcyOo6BG9dFyI4hKXo94wkg7/FJ9IVeSQnHgcH8nA+HdD/80EPm8C+9/JKZyInCt9LMxCxvDhHnOaGgZVm6ceeM5cMe5Ddef8O8Z0vRyNmQN2zYYHrsuT0Wd85VOXj+SCqdMsd1w3PD47vhQw3Ga2f75kzMrBuleWE9oBhmWilc3aMIWOc4oRi/02sfAth6wP34+8iRI3jppRcrltGtgmlcWJ1UFEVRlhMqehVFUZYJS93A5qRU/L4uhe0LL7xgZl6m2KCAJfyG6q/8yq+Yyaf4DVbO2MyeRIoxDk9lbxzFLz+Dw+/A8hMznLiKIs32/tnhz/OlFnl3H3VaCiQ9AUnjpm3bsefue7Fx02Y5Vs5MRpXIedDQ2Q1/uE7Eoog1XwDehha0b9wGT7gBY+OTCAVD6Fm7DhOxOAaGR5BIZUTwekXe8RbKI9mjOUt+joezKvN7tWdOn8EPf/hDU1YckkzBSlFIx7JkmXJ2bM6AzXNCsciecT5YYBiKQ/plshnzO5PJmGOYXlK/z8QxNDRkxCqXfBAxMjxshjvzPPB47DmmmORvDif2iwAd6B8w4pXnno7nlMKbw95tbzIfePDYfFjCesPeWQp4ppP1geeejp+tYj2xQ+b7B/pNfKwTfMBCUc7Jtl5++WV8/etfxzPPPGPi4UMVfgrp+eefN8O6+e6wFctLja1vts65f7v93DhTdSmKoigrEd8TTzzxpcK6oiiKskDYQLbCr9wnYebDfERjtWFtOIogig2KVr7DS9HBdFMQ87MzTDvf0+X7l5ykisNRv/zlL5uwFEIUOZyp+fd+7/fMvuz92yHijkN6KZI5PJrDVCmc+H4p/SiEKaCOHTtmeic/97nPmU/uuHs0SwXG/CiKT+d//mfLRfz4/rE/iLqGJgRCYcQnxnH1/Bmcl3K4973vR1vPesQnoxgZENGVy6Njw1Y0tXfCk8tifHjAzDjcvWkHWnp6EW5qM8OhAyKEzZGcg005rxy3LlKHrq4uU54Uqk8/8zTefOtNDA0OmTxzuDjLnOeBw8w5VPkrX/mKEZWc6ZplT1FLUfq1r30NFy9dNOdn/br15nywbCkq+b7whYsXjHBmfG+++abxS6XSRuRSBNueeYpgnlf27r5z4B3se3sfjh87bvajAH355VdEvDo9sIcOHsKZs2ckL14jwJkXfpuZ559pevXVV7F3717zm8dkXaI/6wZHD7CXn/GwznFf5ofxML88/xTNTz75pBG6zB/LgOH+xb/4F6YMfL7i8/jF1Yvp2GugXJxzXUcU4zyXLa0tU0OyFUVRlJWDil5FUZQaYEUvG8+lw1MXwlyNcMt8w7E3jiKH4oSTChEKWn5uiIKYIpWzLnNJocX3L/nOLsNQ6FC4svH/0z/907j33nuNSKZ79NFHp0QvhU2p6GUv4ltvvWXe6aXopSC0n6dZvLApUwbTykXW5TeHI7OndKDvOibHx7Bu4yZ09W4xnywaHRoUgTuESEMjmtZuhKhjBCluRAQPjk6gfeMWhPmd3rp6+Cl4JU+c4bkcLGvmjUKOk4dRyPJ9apYTBSHLmg8M2EPK91wZ7v3vf7/5vjGHmbM3lgKRgpLDwjlsnGFY7hwOzN8sP/qxJzWZcHpxeZ748IHDibmd9bCxsUkEa49515fnk8K3taUVa3rWmPe77Xu2fCebDzkojnl8TkrGhxmMh8PSuR+HOHM0AOsE96UQZBq4H2f55jrP93sfe6/p3WU6OOyacbK3mGXBcFxnnHzw8cgjj5h6wp5ximO/35nQaimYLd5K21g3uU1Fr6IoysrGI0a8do9RFUVRbkPYMKbIo6BhA5lC5GZQrThgOBuWvbB/+7d/i+9973v4r//1vxpBwu+oUohxmOvWrVvNUFZ+koi9bhwuy+G57M2jkKOo4nu7nDiJQ1zZW0cx9+/+3b8zouq5557Dn//5nxsx9Yd/+IdGLHF4LXv2OHMzBcNv/dZvGeHD/SyLE75l3tSpVDaZFCaHB5CKToiAaUWoqQ3ZdApXThzF0OUL6Ozuwfq7H4A3GIZHwsZGhtDfdwPdInoDdQ3weP1G7Drv8s48hi1nu2S94MMEzmTNHlmWhX2XlgKRPbp07Am1jgKLvbScEIzClXFl0hnR3zlTtyigKd55viic+bCFcVFIUnjyPLFn3c4cbXvxKWYJ36Flryz343migOV5Zw+0HerMfXiueDxuZ5wU3IyXzu5LUc6w3M58sr7YfLD+2GMyDxyKPTwybHq82RNMuD8dj8E85HIc3lysC4t/IFLEnpNycdptbmw4bqPg5bnbuHnTtHqrKIqirAxU9CqKoiySWyV6SbnGejkYjo4Cl+9V8jM3f/qnf2p6aymwONsyxa0VPBRWFKxWfLE3kO+qskeXswRTTHGYKt9FpTD79//+35v9nn32WTP7M0XCH/zBHxhRzfeGOdMwey9/6Zd+CT/7sz9rhJ6bmyV6PXKcfDZNNWpEXt7nRzYRw+Clc5gY6EOrCLWOzTuQp+iVP4ZNJ5MISD5gvj1LwWtiMv+X4j4f1Z6bm4W7jCuV93zSX2183MZlpfimx5Od+l0pzoVij18uXptOu07c4SjwKeo3bNqooldRFGUFUqaloCiKoqxG2IinIGfPGtfZc8ceQw59/Zmf+Rk88cQT+MIXvmD82Cv7la98xbxvyV7fX/3VXzVDmil4KWhtLyPjoHjkEGa3SGAc7NnksGiK6dOnT5vhtxzGS5HMsDa8e7+Fwf2nOxv/DCdb4Q/AEwwh6/UhJ+I1EAqhu3cDNu++E6096/jBXdObm/V4kfOH4KtrRG6qh7dwhGlxuo9rvhAs6yVhlpmrRLmw1bhK2G2l4d1u+nbzc2pZO2YX8A4MMz2cTR+pJNoVRVGU5Y/29CqKoiwSNoyr7el1N6LdLHWDmqKUcJjtD37wA/z2b/+2mTiIva5875JY4cF3cvnuLYe3UvByux1myyGqfG+XQvY73/mOEbwUzP/yX/5LEweHO//lX/6l6R3+xV/8RTz99NOmd/mDH/wgfv3Xf930LDMeOpsmWyb0q1Q+86V8eVphbp0DpaxXxKpHzqHsiLyPnyMqfH9X/B3sM2Jn3/LxO9h81CovtcKkOXfzhdt8zut8ws4Xe87c58b6lUJ/XtMMx3U+xInGonIt9JrZrxVFUZSVhU5kpSiKUgPYOK7VRFaVGuKLhfFyaCYb8xzGzE/IcAgz3/fkO5jcTqHLb6uy95fvefI9UfuOKMUr3wX+3d/9XfPNVU7Q9JnPfMYMeWYchJNk8VusFM2c0Zdl8YlPfAI/8RM/YSYysmVTLo+1zHf5uCrFL/4SPm8mpyq4qbCOOLK/rW8t03qzMGnO3/x0L5eyqpQO628FLuHSLYx5zXCIM68Nr2t2aUVRFGVloKJXURSlBtRS9BLb+J4L2zAvhzsOu87eVfbOUtxyBmHOqsxtnEmXkw7Z9HNSITrC78uyx5ZDnrkPBTJnGf7Upz5lhC9n9bV55jdYOYESP3HDmXkZhmH5jjD3s9j0cDlbHpaGcsdjegqOaTPJK4azW8vvO51bk6dq4FvKTi6UIrYuWvjbfQ65TtGbUdGrKIqyYtHhzYqiKIuEjePFDm8upbQhXom54rPxuOPjO7kcfszJrDgRFd/x5fBjDmXmZFRMPyeq4sQ97BHmp4o4UzN/c9blD3/4w7j77rtN7y57gQmHf/JzSL/zO79jhkAzPordTZs2GZFdjtI8VpvnJYfpYFJYtqvsDunJq2Aj7uvG1ju3yCX2uuaDomzWGd7MzzXp8GZFUZSVh4peRVGURWIbx7UUvbXCLSTd6xS1FLRf/epXzSzMExOT2LlzhzTqN6Cnp1uEcVrycxknT57CsWPvmiHM/JbrY489hh07dhqRK7kxcXHYJz+B893vftd8moifNfq1X/s107s7O+xRK6wK7vTdSuwIYM8qvDuq6HWoRvTymqafil5FUZSVj4peRVGURbISRS9hWtjje+TIUezd+6bp0T1x4kRB0DrbOQx669Yt+Jf/8l+Z3lu+A0wymTRDmHX28FLs8hNF/Ibv5z//eRN2+vG4Pv343N8dpDR91VNOyNkJqFY21Qrval/VVdHr4L4Obb2zfva3Fb38zXUjejesrzhyQVEURVm+qOhVFEVZJGwYr0TRS9hLG4vFTU8vJ6viO75W9I6NjZlv7D711FPYtWuX6eW96667jPBtbm40w5057Pm1117DO++8Yz5nxO/w8j3fpqYmE0cRHrv0+Cp650JF79JQ7jq0ApdwqaJXURRl9aCiV1EUZZEsZ9HrppyodPw4zNjrNOyjUbOkP7/By0mp2IvLzxRNTEyYoZ7MXzgcNO8GMwzzxImwOEMzP0nU0tLiRD4N5zjTWU6iN+8IRzk95VOx0LQtEtaXuaoMk1Zl2anoZZGW/2SR24+O1wEd67y5NlT0KoqirFhU9CqKoiwSNpbZKF7potfiDsde33PnzuHo0aNm5mauJxIJ2ZIzk1hR7O7YscNMbMVe4MozVzvHKcVT0pVZLo1zUxo345xfOYsMkijEFXYrk9KCu4mYbFSZD5ZbFclT0csinf4NZVvn3KKX8Jqmn3mnN5c1E7Sp6FUURVmZqOhVFEVZJGwYlxO97ob1UjHXMUpFZDlR6Qhe6z99cik3Y2Pj6O/vw9DQkPzKo7mpCV1dnWgu27NbCiMtjZjHYvoXW06L7+nNu9JRfkhxufQvPZ4q61C+0kkrwSNlJaVe+HV7wmvGfd1Mid6c+Mlqqejlb67H4ip6FUVRVioqehVFURYJG8ZW9JLZenoZrpaUE7GVmBnWO1MAwFdYKwf7Q530O8KwIBLM0nUrMeOEnWPlXT3IU0z1Nrr3c4ZUGz/jyMx9a9FTOdWry3XPws9HeXFcLeXyVlhxkUe2sFbEhjOLwim1583tV5bcbBtXM9Mf5th6zzpH574OrJ+KXkVRlNXD4lsPiqIoyorANuxL3XywgsBx2muorBSK9by03le6BhZyfSiKoijLExW9iqIoS4RtNLtdrSl3jEpu/lDQWrf0TE9vubzNL7+VnMTi+l2I0/zlHJcv52z4Wrj55KNy2GI+imGKfuUcS1mpBpaXGym9wpqiKIqyElHRqyiKcptQ2pBnU346bnFbKnRrJYCr3b+cyKiN8JheDM4PIwoLf45fqasl84lvlrBTm4phZhe28znu7cHMa2ImJowWnaIoyopGRa+iKMpthBF3U67gaRAxOvWx11mE6aIa/+5jKAuh9L3fxb1XfPtRjchVFEVRVh8qehVFUW53KETLCl6uW2eR9YVMJlXxGLWA6Sl1SwXTXu5483XVQVHrdm4/+wDC+lfGFfg2ZjbBO5cYdkYAKIqiKCsVnb1ZURRlkbDBXG725nIN6eXV0+QWX44oNZNTSRq9kkxvPicuCz/TLEvO0szU57xeZPjtUglrPvVTqrqMuHWELWdvtpu5ZJw+iYtLHsfD2aB5aNmek7BZjwdZiZuf4KGfsw+dpEl8vFmmjfuZrSYc05H1+Mz+Zj9xnA26EsyFx+PkzSfnzaTFhJc4TVpsnMX4eHSHYt5Ks70Q5B6MVDIBnzeLhjovvJIuHo1pACRPuaCkjLMFO8dk/eFxOZGYObzjLUsfYrFx+H0ZRCIs84zxznv8yOUDxuUlHjkCAxfc7Yv7OjRlWfKbuGdv5nd6+X1qnb1ZURRlZaKiV1EUZZGwYbxyRK89fqnwkfW8iCURer5cHoFsGv5sCt5MCvnJUeQTMSCbFR0mDf66OqQaW5AJhZH3UUS588R4inE7otcRqhSYjNeXSSA3MSaKLy4BKHopLH3wNjYjF65DJhBE2uszYtMrafGL4PDLsb3pNPJjo0A6Y+I04lYEiLe5BTl/CBlfAGlJH0X5bKKXiKRFIJOEPzoOJKJAJi2+kg/Z1xOKABGmI2Tiy0hamMbSvNWCixcv4tixQxgZOI9PfvgutLcEEJAipkDNoR7ewDoR8w1Sb/xOKZt8O5LYpEPSlclkceXqVbz99stob87i3j1r0NEaNiGykLwEOuHxd8l6neSbnzZaaPprl+9byVzXoBXB1qnoVRRFWfmo6FUURVkkbBivLNFLVyJgRMx5RfT6xN+fyQATI0gP9SExMoDU4HXkYzF4RHjmpcGfq29Ebs16hLp6EG5uRiAsAkuEYY5iQUSuM/yZ8TvH8bN3NytxShyZ4T4kh/uR7L+GXHxSghTS4g/C196N0NpeBLvWwFNXb/b2y36eWBTZ0WEkBgeRuHZNRK8IVO7H4/kDEr4bde1d8Ld1IC/COUvhK1EyPRYJOSW+uczFY0hIGjI3Lpq486mkk1rJh7+pCaH2TgTbOo2gRl2DEb459pKy99fkrTYcPHQIP/yH7+Ho/hfxX/5/P4etG+rg92aRyYmYD3bDV78HGU+7ZDdo0mfqD0WvSQL/85je4gMHD+Ovv/wn2LIui1/43N3Y3NvMAEijEZ7IVnjCW2W92YjehX9miud15TPXNVhJ9CaTSazvXaeiV1EUZQWioldRFGWRsGG8fEWvPZ4VOvw9Mw0Ug4GsuFQaubERTF48i+HTxzBy5QLiI0MieEV8yn4c8psKiEAV0du+eSs6N21Ga89aEYotpmc042WPpCOOnOHROQTSKWB8DPFrlzB06hhGL51HVIRvNpVwBKjE6ZU48y0d6Lj7Qay572HUi4j15VPwTI4idvUSRs+exsjFi5joG4Qnw6HWTl9u3udDuLEJ7Rs3o23bTtT1boRX0pIOhZGWbTmvk2+nlzkDrwiX/OQ4Jq9dwdXjRzB5+RzSY6PIUUgzVq8XoYZ6NHb2oLl3A1o2bEaDxJmpa0ZKBDZ7kZk/0+FbAw4eOohvfeMbeO4fvoNv/NmvY8fGEJCNI50PINy8BbnwXUh5uiSvITmunDfWHx5bhJhJgiSEovfI4aP4//7Lf8Edm7L4F198CJs3NHGr7NuEfGQHcpGdst4Gr0dEL3v0zVZLtZkpF27ufa1wJFZQmqzIn/Un9tpw+y0Fc12DU2kU7DKbFdGbUtGrKIqyUvE98cQTXyqsK4qiKAuEjePx8XGzHgwGzbIUd2N7roZ3beAxCs50vsqSesLlPMYvD5+EiWSS8A734dqrz+L63pcQO3sSvokxeHJZ2SrhJM18DzaQScE7NoDopbNID/YjkMujqblZMh5G1st3R0WQSVi+uxvIpeGfGMbg/r24/PyPED1xBPkxEdEUwhKGqeMQZ48cOy3CtEHEdOuGLVKGAQSTUQwdfhtX33gOI0f3ITw5InowgXwmgxx7jrNpEelJBMaHjTCeuHIR2eg4mlpb4KmXtPj5Xi6zxyHSGclfHLnrl3DjjRdx+cUfI3P+FPyJuIjhHHwivH0idtifGoxLuOEBjF8Uwd/Xh6ZwHSItbciJ2OE7x0yzSfd8cYra2VkcF9evX8fRI0dx8cxJ/MrnHkRTIAOP5CsYrEeouQepXBNSIngzIm5NaUl+uMxJmbH3MSdlnMukMTE6ijdefhntdSk8sKsL7fUhKaMcMlm/pLsN+UAnpARE9PLEO3EU/4p5ss75r5TSUHROfJVgPbd13ev1GkdRybRbP/7mQyMKy1qyGPHMNNv9uW7KW9LX1Nxk0qwoiqKsLLSnV1EUZZGYRnEVPb3u36XblgYeo3CcQo/ndArv2kqD3i/i0Tcogve1lzB+8l2kRoYQ8PnQ1NGJhrXr4WtqBPwiaEVgZSbG0X/hLKJj42bSqbrutei56z50Pfg+pBqaTW8vZVQgmzKC99K+1zF65IAIzitmmHOgrQ1Na9Yh3N4Bb6ROyiKLieFB5MINaNlxN1q27hLhlxLBuxfX33kLyf6rJi5fIIzW9dtkvx54wxGTluz4GMYunEdsdESEoRyztR1NO3dh7fs/hGx7J9KBkJFlwaSI5WsXceWtN5A4fxaesWGkEilEutagpXcDQrKfGaIdiyI5OIDha5eRiU6aHmhvxxp0P/4hNGzfBbAXWcoly/d854ucCvdZYG/xgYMH8K2vfwMv/fA7+Mr/+CXs3BBG2J9DzhdENtQJf8tuOZ4IbgRkZy9yHhHAniCuXbuG+OQYmuoC6GlvwflTZ/DK0z9AW2gc77lvLTZtEqEr8bOnN9e0C/nG3Uh6W+Fjuk03tQdxEfcU3VevXscdd9yBiYkJ9Pf3Y03PGjRIHT506BAGBgZMWtm7uX79euzcuROxWAxnzpyRfW+YePbs2YNwOGz2vXz5sglPeB10dXWhu7sbx48fN/uFQiF0dnZi3bp16OnpMcLyxIkTZr81a9aY+PnQ6MKFC+bYDMf9fVLm86Wc6K32umM47s8lHQVvKp3Snl5FUZQVivb0Koqi1AA2jOfq6b2lTAkAd6OfojeHIIf9jo9i8uwpDLzzJjIiQIONTWjetgud9z2Ixh27EOrdjNBaEard61AnQjHc1omk7JeajCIj4islAqqxqxv+SD08Igp8Uh6BRBQTxw9i4PA7iN+4Kpo5gOaNm9F5/8No2n0X6jaLgF3Xi2DPeoTFNazbjLrObtMpHb12AVf3Po9U/zURuwFE1m1C9z0PoWX3fYhs2m72C4vYjsgxgy2t8IiYyoqwTY2NIp2II9zahpDkwS+ile8ie0Qcjx7ej+i500iKQPaGIujYsRtt9z8i+bsD4d5NCFGId/dIWtaKGK9HJplCQs5pJpWQvObR2Nll4uSQaor9eeNozaITbty4gWNH38WFk8fx8cc2ojmYgxwQKTl2MhZHKjaJ5Hif5OsqPKkRNNSxtzmIb37jW9j74o+QH7uIjS1Z+CavoyuSxrr2IJoLszenE0nEknKWQ+3w1vfIfuzplXSzLsi/6OQkTp48hW9+8xvo6GjH0aNH8frrr6OjswPNTU0YHh7GvrffkjAnsH3HdvSI+IxEInjllVfw6quvord3vdT1EFpaWowQTKfTGB0dxfPPP2+uAQre1tZWM/z6y1/+shGvFMcU2n19fdi6dSui0SheeuklvPzyy0ZY7t692+xLkUzX2NhoRHKtRO98cO9vhG9Oe3oVRVFWKmq5FUVRbgek0V6E685vil5fKilCdwADp44jzR7egB9NGzah5d4HEL7zXuRFZGbWbkC6ez2yssTG7Wi6+0F03P0Qmteth0/EQOzGNfSfOYnM+IiZfMqXTYuqmsDg0YPI3rhiPrpDMdl2r4joux+Ab/tuZERopkTsZtb0wrv5DgR6t8LX0CxCehwDp08gKULZl0mivqsHrXseQMv9j8O//Q7k1m9CmvtJWvKbtqHungfRKnE29W40aWce+kWoZQYHEBTB6hcxnB4ZxOipE8gOD8Evoios+Wt/6FE03HUfsHk70pKGjAj6rMTtFTHcIulspTAXEc7h1OOXLyB5/SogafPmZp8Zer440iovIjWFdFyEe0zSG40hGx1FavAc0gPHkRl4Fxg9g0BmEP5cDBfPHMPpQ29i8Mx+5AdFHKavYXMrsK5Z8ubJIT0pgjkaR0LiSYvo5BDyvLjiuaeIy2BicgLnzp3DsWPHcPbsGRHh1zE+PoZA0I/NWzaJyA0jIeW3ZctmrF27zghB9jJz1mnb+9vW1mbEbW9vL7Zt24aRkRE0iWjetGmT6c3NSPmxZ5iClwLZ9hRTDHN0BHuYKSophidFiFP8cjk4OGjCchRFLeAxFsPiJLSiKIpyK1HRqyiKchtgZI40+ksde2Q9iRjifdcxcO4sciJQGjq70L5tOxq3bDOfJoqFIogFQogFQ4hyKb8zja3o3HUnurftQn1Ts+mdvH7mFJIiOPlJIg97R0dHMH7xPLsUUd/cjOatEueuO5BpbUM8XC/xhR0XkPj9dUh6g0bgJESgDpw7ad7D5czQrb2b0b7rbmRauhCT/UwarOMnjto6EN64BS2bt6Gho8vkYeDcGcQHbsATmzQu1i+Cqu+aCMEJ1Hd0ovPOexDcsgPp+gbETRqYt2AhnxH4RaB37LkLHbt2Iyf+zEPy6kUjmjkkvGYUoqKgcr5HDMm3ODlGQPIfyiUQycZQl40iKE6UMHy5FDqaw1jbVoe2sAfhXBQREcKhXBzBfEr2z5k4fHQSnyfHc+18c5Z/bgJ+nwjVrWZosgTA5s2bjbBtaGjAhg0bROxuMWKW4pVClsOTN27caMTt0NCwEbgUqRzKzJ5cCl0K4LVr15p92FNLuN/Y2JgRshS79Gd6zp49a/a9//77zblnzzc/DVQL3PWcbj6UD6+yV1EUZaWioldRFOU2wINcwXHaoiI+jyij6Bgyg33IRMeRlI31m7agrneT+VQPv1NrJm+yO8ky6/Ugxfd2ZXvjmnVoWrsBKYlmjKJydABefvc2HkNUBA57fDmRVGP3GrTzndiWNqT9QRNHqazgR4EQG0d6SITPcD+iybTE34tGEb2e5jYkZT8zO3Rh2CnTxGHGKa8PXhHe9Rs3m7Qn5NaWmZyQPPUjOzGK1OQYRq9eg0fEcCAcQeOGTWjctgMpEe/mu75TJcJ88r1ZyZ8vgHxXD4Jbd5hPIgUkvcmhIWTGx42QdG6f83Nm1mfr7CEFrpqv50q83qw4ilVZ+l2Ovz1ZEW/c5nJG3Mp+do6yKdHM/Qph6Gcm0CpgwhZcwB/AnXvuRCqZNGK3u6trqjTKQTH80Y9+FF/4whfQ3t6O//k//ye++c1v4vz584UQM6GApOB96qmn8L//9//G3r17TRzs+eW7u+xp5vu7FLwc0sye35tBtWK42nCKoijK8oV3YkVRFOU2Y0rmSVs+l0ghG4uJeMohI6LP09yKfEMj0iImjTh1qSA2/SnacrItJwLUJ8LX39hoZklmDyM/d5SLimjJZ0VEZU2cPEiG4lQEVlLEJPebLr0dnLTEzTvCWRFhovEQFJHsb+TkWAHjeOwiFM5eSaPPiGHwfeL6RiOK+W3g/MQYcrFJ805ubHxU0pQTHd+AUF09spKOpBH00wUo88dPKFFM52W7T0RyUI7PWY8z0Sgykj5RQE7gWsH4xKXiCcQnJhEbnTAuOjKO4euDGLo2YNzI5esYO3kSN04cxL2bu/GRR+7Cpp42DEqYcQk7IW6yxE2MjCGdSJjSNs6V9Ewmg1gsaoYnf/jDH8ZDDz2EZs7CXYC9sEeOHMGpU6dEnF7E0PCQ6dnlMGQK0x07tuNDH/qQeQeXw5Bng4L6Yx/7GD796U9j29Zt5h1dO/EVe3b5/i97lE+fPj31bjz9OfyZjoKY7/8qiqIoykJQ0asoilJjbM9QqVso5eKybjEYrUe9JWI1n82aH6YXVcQeZzKmMJ15BEchcht7RBnWw1md5Tf7MEVJTcXl7F1wEpRiMsfbjolC/qPaNIrTeDjYtHAp3h4OLWavq4ndhnOFF5wjiZM023SbY5vPGmVN/rKSLob0itjycFIkI3YlFPNQBqZalJoE80r+ZB/68dNNEldha02gCDVCVM5lYjImojcmyziS4tITCeTjKVF/aeMyIoQnLp7H5OkDWIMxbG72ozUkwj2RQiIWRzyWQCIqbtJZJsVlk2kpT0mzOYY55BSckMm+Z7t9+3YzbJmil+/xUsTyPV8OReaw5oMHD+CiCF/7ri237d+/H3V1dWYIdEdHh4mT7/lyiLSdwZwEAgHcc889uOuuu/D444/jjj13GCF96dIls+973vMePPzww0Z0s05T9HLCLKaLYThp1r59+4zwXSzVXDeLva4URVGU5YeKXkVRlBrhnu21VtSsAe7uziyBItAjwsSIRfaQpuJAOmXeXXV6BrmvdQ5OdI7YtNvM/0zvjCSLh2ycKp+p7YV9p44h/4to8gZDkiZZ0i+TNsOSOeEWnRN4urNDtxkW6aSRx2bIcjBsRDPj4rvBPAYndcqmJU4Rr07+zMErw+SJc1Jnj1kriulnWjIiUHNJEdYpcbLMpeRcZOTIWTk/Ob/455AZG4Nv9Bqak6NoyqfBUsrmfIinPaKLPUhJEeRSIuw43jwp8WY98OZYkk4O3FCw8h1cOs6QzHdwud7bu8H0xPLd3EcffdT00HZ395jwFKP0bxeRy6HO/MQQP1nEnlrCXt/3ve99pteW7/EyHg6D/smf/EkjrHft2oX77rvP7EtHEfzII48Y8ct4KHwZPyfIeuCBB8w+FL8U0RTPS4EVwu5rza5PLWt63hVFUZSbjYpeRVGUm0Rpw7oSNlw1YauHomem8MmLouPne/z1jSIOAwiKys0O9yM3PiJiKWveL/XkZD8qv7zcMowz/aiO8HVHaZJrtnDFwenGLAST/bivO4gsKci4naE84ToEmloRlPQEvF6k+f3dyXH4chlxkh4jfE2izJIinen05dLIc1j02IgZ2swh1N6GZngiDfCH6lDf0gaPN2B6RJPj48jHYwhmnPgc4VvqHIq/nDy4sztfZu7LmDPiL+mQ//k+ry/rNY5CFXkReYEmpL0NSOTrRMOGkM34UC9h60yepSy9dciFOjDhacZ4vgHxbAS5TBCBdBDepJRByifxiuN5m8LJEYXkjh07zDBlrlOc8jc/JcQeXwrSn/qpnzLus5/9DO64Y7fp0aXQ/bgI4c997nP4yEc+bHp2KYYJhe5jjz025RcUocpPHX384x83k1u1traY4zHMXXfeibvvvhtr1vSYWbcZ9yc+8QlsFQFM8c0eYIplOg6/5sRaS025a876qfBVFEVZuajoVRRFqRG2J9MtWt3ObuMstaXb3G6x2CGzHhGYHhE7xhl//qaz2wvDjSkMWzoQbGxEc8CD6KWziF6/Am86LQJMxJ7RmBKu4PKyn6TUJQJ4DCfembqAO/Ng8k+cySO9JTwKYppZppal9EO4EaG2HjR2iguGMHT+HEauXjI9uIFsWsSbiMS8M/yZgpffo+Vsxp5MEon+a4hfOY+gCGQEg/A0NMEr8QUiTWjqXCviV4RZJifhBpC4cgXhVAI+Eb48uPuP/cTWmcQVMPlbJOY8OKsCI6TolTzIqieVL4hev5S3iFZ/A9buehD55k0YzDbjejyMwXgA+WzAbM+IEPY0bkDHrvdhrH4rrmc7MBitQyIahC9Zh/SoxDwmR4sXRPQ0eGybIS6dhwjWOWVrndQBpk/C2V51Z73Ur4yTHb1yaK8s83Jespk0cvwudMFfMmOGjTMev88Dn/hxn7JxLcBVopbXm6IoirL8Kb0LKoqiKItkJTWmzXu54TqEu9agbeNmJCXZsbFRDJ85gbETh1GfGENjchINqRjq0zHUZeIIZxPmW7zm0z3MpjjzuR0TI6UQ17jkRiJLRyEJso2C14jkolg2oTmBlI9itQWNazcg5w+ZmEbOnsL1/XsRToyjMT4p6YlKehzXnJB0xaOS1qPoO34EYwMDZqj2mu27ULemF/mGZuTYe9zaBm9LG/KBIIauXcP1QweQvnAWdVGJMxVHk4jqhnQK9SLKwpK3APNX4/d3yyKiksJPSkHEuw+JsTT6r45ibDiBtp6NCK3fhWR9N14+ch3fevogBkcSiE6m0H9jBPE4EGlZh4Z1uxHp3o4nXzmBH714CH3XR5GK8oGFX1xA8uFzylsOx7Kezsz8MSTrbzqdNu/0plJJcQmzLH4zl/vN/vBmObpKlNs2za/yroqiKMoKQEWvoijKEuFubFu3nKAAYk9vJhiCv70D7Tt3I9jVg7zPh/j1Sxh551WMvPYMcuePwtt/Af6hqwgMXUNgtB/5yVF4pt77LfT6GQFLQetoBCe3zhq1NcWU+bO9z4XwZh+BE12lfSLSmtvRsX0P/F1rkQ+GkRoaQOzd/Rjf+zyyp47AI2nzDVyH98YVZM+fxMTelzHy5muYvHSBMkzy0m7y4uvoQioURjYcQUjWO++4C2hpR1bEW/LSedx49QWMv/26xPkuvFcvwj94XfLXB9/wIAIipjmkWk6aSdtMsbgwbLmYfBsfl18ugFzah3QCIjh98AWb4K1rQzLUiIF4Fn0jUaSznJQrh3QqA85P5fUH4QvVSdgIhsfiGBmdRCqZQY499FNlWzhWmTxQxPJzQc8884z5lNDo6KjEmzWzNL/00sv49re/bdwPfvADM7PyzFmaZ9bx5eAqUW67/V26dCN7FdYURVGUlYiKXkVRlCWgXMOZVPK/VbCn13z7tqEJjRu3omPPPQh1rkE6mcDkhTMYOvgGbux7Fdf3vYLrb72Mq7J+5cBbiA/2IZ8SdcaeylJBYBSWx4nbOOfbt+6Zkh0Z5nYSi0mLD7lIAyLrNqLtrvsR7Fkvmz1I9l3F8ME3cUNE6vW3XscNcVzSDex7AxPnzyAraQ51dqFdxG3Dxs3INTQi6fcjEwia7/i27tqDxs3bEGxqQTY2idGzpzB44G30v70XfRLHjX17ceXtN3HxnX1I9N+AJ5nkCTNpqwXTY3LyTT/jT3Ga57DmAAI+vgtbjyzCgKynfGEkPX6kJHzK48NYOgeR5OZbyfxcE4fVm5moGc8sOKU8nUwmYz4bxJmYOUMyv5lLKHzZs8tZlulPEZzL8eFFMRYWzTKrzlPwOnOSVkxgNdeeDVO6JNXsryiKoixPVPQqiqLUmLkax9zudrcGK148yIqQyVIYtnai856H0bTjLgQ61xoBOiFi58LhAzj9+ss49crzOP7y8zj6xquIDg8jx9mSmf4yWbACNuELIOENiFgLiPB1PidUXn450bC3N+MToRpuRMe9j6J1930Ir92IXCCMkaERXDz2Ls7tfR1nXnkZ515/FRcPHxT/QdkeRLB7LZp33YmeBx+Fr70LmWDYpIEuFQjBJ9s77rwHTdt2wNPabvYZHujDlePv4vy+NyWPr+C4uMMS78i1K8iJ6DP5qxHlcm20LpfismbmZX5jOCjCt06Ep1/KIyC6txFta9ehZ8sW+DrWYqK+E8n29ci09kg5NSHHT0ZJ2VpYpyhm6bL8ZJP8tj3VpWnIZrLme7z81NDY2BjOnDljvknc3NRsZlLu7u424R588EEzw7KdsMphughedki+TfU0y4Wfx1t3jSqKoii1QkWvoijKbQVFCk2/I1Yc0UXhKwJVhGW2bR06HngcPe/5CMLb78ZYoN4MOWbPLGWVDznjnL3LCR4n/rzXi5SI10l/BBOBCOL+kIhPv2zm9nL7FeGQ65QviFSoGV0PvR/r3/9JRHbei9FgA5KSFsbBiZC4zIjgy3X0oO6Oe9H9/o+g8z3vR14EezIYQlbSwLwxjxmfD7FgBBERvD2PfVDCfRCZ3i2YDEn+2NPNOCVKvwgcSnOfLIuzOtcOd+6nBK8sOcx4YjSKiZFJjI9EMTkeRyaZkw1e9KzrxT/64q/i33zpCdz96Z/Hts/+MrZ95pfR9chH4Vu7BQlfBBmP5KFwS0+l0xgZGTVuYnICKX7HyHW7t8Oe6dKy7dCBg7hrz53Y2LsBo8Mjkj6P+fSQ883eiFlva2tHOBwy3/Z1i0j3crm52ag2nKIoirI68D3xxBNfKqwriqIoC4SN54mJCbNkr9l8WExvWbl9y8ZW5qXUqXCyYobHivA1w2VFMIabmtHSvQbd6zeK60XP5q3o3rpN3A5xOxFZtwF1dQ3wxKOI3biKocsXTS9tx8bNqF+7HmhoQt7vQ3dXJ9Zu32ne0Q11rUc2EJLjOGJ0ekpd6yYtHvPZIaYnEKmXtPSgZ8cOdHWtQZeIwK7ejejavA09O+9Az5670LFb4l+7AdnGFiSCIt7ZqyzHceIVJ/FlzTBrL7wi3urb2tC5YQO6N0hc69ejY916tIvo69i4Ca0bt6BT8htuaEQqHsPolcvIDfQjEAqjfsNmBKVMUv6gSeqi8ORw/foVHD96FFdOnMV7N65Hs+Q3GY0hKyK9S8o6IsfzNbci0tyCelnWNbch3NqBUGsnwi2ybGg2+errH8Cbr7wK79gQNjWE0BoOIBZLwFvfiOZN21C/fpNJs1fid8oEiMfjZvjyn/7ZnxvRfezYMVy5cg0PPHC/+YQR6/JRSdvg4KDp9W1qajKidzruc7i8cK6NudNX7hpi3q0/1+lYRs3N5cpAURRFWe6o5VYURblNMb2gLmc+8iICijMo5+qb4etej8i2PWjc8xAa73pY3CNovvNhtOy6B6G2bng4rDaZAGJR0zNK8eURgZoPRZAT4Rxo70bDzrvRuPteBNb0il+4guCdiRG94tg7nAnXAxJXuHerpOU+NN37MJrufwRN90m67rwPIRHh6FqLXEMLMiKqOVw756VwFqFfcFx3hlw7E3flRER6u9chsnUX6vfcg8Z7HkTzvQ+hVZbdd0t62zslvSJsJb1TSB6d2Zad95j5GKHUzfSZwxlhJekVQTU5Polsmp/w4bBjbnfefOZDlGBIylNEtz8cgS9cZxzXvZJG88BCQnIPxsNZl+PxJLLZjBFrJhLjimXO3uVoLIbrN25gz547sGPnDuyWZXtnO97e/zZuiP/Jkydx8tRpXLx0GRcvXkC/CGvO5kwxWBSUlXtLrVistH2pmddhqwl7a7KhKIqi1AAVvYqiKDWgXG/R8scKF+uII+YoYLN+EYfsSWzrQbZjvTgRrh3r4GntQkAElyeTRmJ4EPHBAfhFVIaamuFvbUM+Uif7ihira0KmpQtpvnsaaTYC1g6MnkmJopCf9GH4tM+PpKQlKeI33dGD9JoNSK/diHRPL9KdPUg1tSIR5IRPfpNuE9OU4uGSkTlLxsd3fDlMOi4iMtnUglRHNzI965BZsx45WXq71iBb14Ds1HBswYhmfqLHil5H+E6HZVc4XjVO/vn9ATOMeN36HvgbmxBsaUNEBH6opd18sokPIZyHBJVhbAzS3t6K1q5OBETQ8xvFAYmDPb15ORe5Qu+kPTpJpVNIppL40Ic/iIcfeRjve9/juPfeezA6NmZGLVy7dg0BEdydHR0YGBjE+MS4eU+YwprvCudyWVnmzG+3wC0ndEt/3xyqP6Zz3iqTz92K9CuKoii1Qoc3K4qi1AA26ikUKABu9fBmMsOXPZ4zKA2VN58g8vG7sekkPMm47CbiRgRi1kvnTETlFb9AIopM32WMnTyKsQtnTL6bt+9C26474WvrFAEaEHEp+4BCVMSu7OsI3kp5nelvk2x6MdlDa5zPmejKOE5SJeJcHEWd0+Pp7MT1GbB7k4tCfKZX2ysi2MTjQ5pxi2N8jMYvQic7MYbRyxeR6b9helvrezciuK4XqWCokGTXcZjg+Yg7EdHxRBz5TArdLU3Ys2MX1vRuQn3PGkTWrEWdHMvf1WMmGWPPdVnkcCz7Sal7nmwKvT2d2LhxEzp7N6BOBHygZ73EsxlBEdI8Hx7mrUAymTSfINqxYyd6e3vR0tKKhoYGhMNhdIjQTacz6O7pNr3ADfX16OzsMu/3TkxMYnBgwEx8xXX2LLMeuuv9rX4IVDy+LCukpRjCWeM+dj9ez+51K+yb5Tzp8GZFUZSVhyeVSs3jDq0oiqKUwsYw3dWrV00PGEXDSqAoKtngl0a+5IGyNpRJi6C9gsxwH+rq6xDoXo9MsF5Eq9cRvKko0tcvYeDQW0iI4E2NDmPCE8SmT/8CGnbeg3xzG9IiJPleLb8lW9CaBiMs3B5VwLI1PauSRva2OhT8zHI6PIbzPm8J+fJixYobN4FsBhER/qmrF3Hh1ZcQO/IOGpub0f3YB9DwyOOYrG8u5Iv/zZ4fW84zoUTPyvaMHE/qTTYPvxnWLL5GjDszWaeNQHf2KMUenWXkE2EWyGUQzKZFsDvlxIcC/LSR83kjOX8i6t04ZVssF3dZlCuXixcv4q233sLx48fluB74JN6tW7fi3nvvNbM7233K7XuzMWmocM5L4bl0p5ki107axXVe15lMBr0b18/7oZaiKIpy61HRqyiKskjYMKZbFaI3n8PQuVPoO/gmkpdOo7WxAZ3bdyPS1gVfMIhcKoXkUD9GTr2L/NgQ0hPjgC+Apm27sfZDP4FM+zpkOAu0CAhHqDnDjW0PrBxIjjM/QeQIs1sreqMF0dslorfxkfciyom6yrwhlC/kzR3nXKKX+fBIuYskldXifiYqvpts/ipjjlUQuTwWd5s6t/KDq7lCDIsVvdFo1Hyzd3Jy0vym6A2HwmaSK05+VYlycd0MnDnH54bl5E6jil5FUZTVhYpeRVGURWIbxnwHciWJXjcUvBza7BfxdfHgW7ix7xVkL55Eiy+PhuYWBPkOrwgmvseZScSRGB1BRsL7GlvRvHkH1tz3KALrtyMZct6F5SRUjlRzhATLyNxs+LMgDKuHe4qrUvTyIDOHN8vvwnFLBVg5QVYqeiePvoP6Jvb0vh9ND78XscZmOXKZY9jkuTeVS6LF5KeQv6k0unY26nW2CEoo3d/A/QuiuCSvJubCwwCzpbDdxFKmXFi/6VjfeU49FMwSCQXibMN+y8V1M6iV6M0UvnmsoldRFGVlUvkOpSiKolQFG8vWrXSYgxYRuet6e9Gzdh2CPi/iN65i/NxJjJ05hsmLZ5AeGUAwGEBjzzq033Ev2u55BMENO5AJ1pl3dx3BaV0Jjsqap5sv5fYp+lHIzI0jnPkec1pEjqexCelQCCm+B1wIwQcAIokkvsJkTkYIOk7+K7qpfJRxXBgqldlUgMXBcyLOdeQZMRu/gsizopZLK3Tp6EfRx3d7A4GAWfcH/PD5qhOXiqIoinIr0J5eRVGUGkBxwJ5e9gitxJ5eYnt6w5kkPEPXEbt0BsNnT2BCRK8nk6IMhNcfRKi+EZGWdjRt3GY+I4T2NUj6OaSZPbw+08tL7eYWl1xf3M1G9q66p1d85xje7H5AUe5hhV8EbTCbQWKwH1eOHIRvuB9ZyUPz9p1o2X0n0pEGEYEZeAtij4KXsGfRRCf/8W9unHxxT9PdWEqtenpNPOWYflwrdGXFCFkret3Qn72gxj9X3QOfW/VASHt6FUVRFKKiV1EUpQasTNHriEB7E2CTnxNZeUXw+TkhUi4NfzqJyaEB5EXgOSEllM+PhtYOUYZBZHwBpL1BZ9IqCk0RDmbYr/xbqaKXv8xwbykHr5SDL5uCN51yxA8nlgpIfgvvxpbGUzbeKidTupXMOFeSV7vuXlps3rwuUenOeymzbVtKVPQqiqIoREWvoihKDVgNopd4RCw6nYKUrnzPNwvwkzRmyK4JwUDw+kVMyJLTL0koEQ0UDI6zwWYIqcL6/JE9Cz2VN0v0GkyemUMi5SCHyslv9vja93nd/bkmHtenhabiVdE767alREWvoiiKQlT0Koqi1AAretkwDoVCBd/lTnnRS4yfCE2vrLDXc8boWKsPRC04Yaf+KyDCybUPZaLz2x2mWkwinLWbNLzZQNFr4hdn1mVREEEWnwgj7m9CFTLM344UduJ1l8Nyxi1sS0VvJayoNDmtVI5CxTJeYsxEW9VQSJ9Np4peRVGU1UWVdwNFURRlNthYtu86rmyMfCs45/+cCMic5ItLiknjRE4YR40wpWem7zv9tzgjXOkWS63icSgn7OhnffkZorwI5lzOI07Orycgd8+IlEkT0p4mJPOOS6MRWTSIFK8TF5T9KQhvjdibL9ME7xxCtxxz7VEszZsLj1qVK+TZnPcy+ed17fNpk0lRFGWloj29iqIoNWJgYADpdHoFCd+iYrU3AtvTZX5ztbBifGXd2SrYrl+3nwuz1S2kzF+BeQ/35UG4t8QxJZwr9/KS+fT0Vkbi5z8qe9nXEb9Mg08Ebx1GE3WYiAPJVBb5XB7hIFAf8qAxkkXIlxTJm4AXyUJcyxvnVFHwOUunaAvnrPhfgWLZuXtSb1Vv7mzYkQuz48qPrf9SEFy3Iph/Ab8f7Z3tOlO1oijKCkRFr6IoSo2YmJhAPB43wyCXowCoBr6fWwo1n9W4bkpz6NLBUxvL9ZotTPQ6Itf0LJsjLE70uql0rpy0U/j4kM/6ZUnnQUbk7HgqgjeO5XDuWgYjownkskk0N/iwtbcJd2/3o7sljbBnEn7E4HW957tcKT1Ps/12l1e5elGO5Xw9OGkr1g3+dueX6xS6kfoIGhsblnVeFEVRlPKo6FUURakR7OUdGRlBLBZbsZ8tKid6Z8Pd/F8S0WsiLQrc6e/0lom7wGJFbzHdFEB+EbUhZPNhRJM+nLsygVf2X8HpK2HEkk3I5AKyg0hhTwJ+zzh2b6vHg3e24I7NIbTUJcQ/JaVqZ79eGZQ9b2VYDaKXeDzle29ZDryu+S3injXdZhSHil5FUZSVx/xaN4qiKEpFOMFNJBIxy2g0WrVwWFZQxZRzIthE/s1wjpBzHIcem+HHhfDlnWDDVOPsPksIz1OpK0KB40Eu70EaPpzvT2Pvu3EcPZvH0Kic57gHySSHOPsQSwQxFo3g2Ok43jw0gmPnE0ihAVmEJRfLf0hs+fzPDnveq3LL8s+VvjJ5ph9HbjBkpC6igldRFGUFo6JXURSlRrBBzB7e+vp6s54UNcShzisLIwVmuFKBe/Pcrcfk3uNFPAOcv5rAsXNJjMdakRNBCwTE8VYqzhOEx9cs20I4dT6GY2fGMJEMIJsPmTiWM/MRuguh9KwuD8f/i7jLgOuJRMKs80FWg1zTJcEVRVGUFYSKXkVRlBoSCATQ0NCAxsZGI3jpllpQLDWmw7Vm3IyyqLHA9FDyezE2kcX1/jgGh7Ny92wW/5A4nzgKXi79xs/jq8fYeBaXr45jaDSLTNY1CdYydbcrpXnnb/uJIrqGhno0NTWZ61pRFEVZueg7vYqiKEsAG86c2Irv+LLX1/3t3ttJZJTP63yftzIOJ57iO72zwyGrM5j3BFo8qhc5hES41uPAqSiee3McR04z/q5CiFIkfbkY8uk+bOjK4rMf24b7dwZQHxiVmFbGTM63G7w+zSzUUsW4nslmkEqn0N7ejsaGhmmzNXtWwKRkiqIoykxU9CqKoiwBtseIk+BwYiu+G8h1uttJ9JZn6UVv2c7eBYpeDk/OoAHHLwIvvT2JwyJ6UVb0FtKZp+gdwoY1HhG9m7FjbRT1vmH4VPQuW7wen1QZ5/WEhsYG1DfUiZ932nu8ZqmaV1EUZUWioldRFGUJocDlMEmKXQ51VtG7UNUgZXZLBAd7ekUQeYN491wUT74cxeuHfeJdEL1T59KmT5b5FJCNYfsG4Is/3YHt67II+xKymTM4K8sNilm/z28eWfi8PoRCQTNbs/FwoaJXURRl5aKiV1EU5SZhe3+1p3cl4UzhxQcWfUMJ/N2z43jyVSCV6zTbjOP5tILXLNIIBVJ4YLcH/+IXGrC2ww+/l9v0vC9XKHZnuy5tb6+KXkVRlJWJil5FURRFmQWKoXgiYYbAPr13HN98NoYLfc2yJSjOvu+ZN8KIEjmfT2BDdwofftCLX/5UC8JBn2wrBFOWFVbo8sxVhZ5HRVGUFcn8X3BSFEVRlNsIitm6SAThcBAP3lGPT7wngkgohmAwjUAgB7+f32imy0m4HJoaEnj0TuCTjzGcCt7ljHlQwRPEc1TG5V1/xk9RFEVZkWhPr6IoiqJUSTqTw8BIBodOxfDiO0kcv+DHeIyfs/Eh4E9h54YUHr/bj4f21GFDT0j89NnySsY95HlqiLOiKIqy4lDRqyiKoijzgMJ3fDKDqwNZXBvMIxqnsPXC78thbWcO67t8aG30IxwqfupGURRFUZRbh4peRVEURVkgY5NpTMQ40ZUHDXUQseuDV7/lqiiKoijLCh13pSiKoigLZDKWxdkrHOacwkQ0i5w+RlYURVGUZYeKXkVRFEVZICfOj+O7L4zgW8+O491zMaQzqnoVRVEUZbmholdRFEVRFkhPewC7N/uwc0MenS383mthg6IoiqIoywZ9p1dRFEVRFsj4ZApDY1kk03l0tfrR2hTUTxQpiqIoyjJDn0kriqIoygLxePIIBXKoC+Xg9ebER58jK4qiKMpyQ0WvoiiKoiyQvsEo9h4exEv7B3H5RhSZDIWvoiiKoijLCRW9iqIoirJALt2I45WDUTy/P4kr/Wmo5lUURVGU5YeKXkVRFEVZID0dETxyZzM+8lALdm1qRMCvt1VFURRFWW7oRFaKoiiKskA4kdVkPI983oO2Jh/CIZ9OZKUoiqIoywx9JK0oiqIoCySXy2J8Iorh0QlMxpIifvU5sqIoiqIsN1T0KoqiKMoCuXx9HC/v78OPXu/DuSvjyGT1pV5FURRFWW6o6FUURVGUBTIwmsbJS8CJSz6MTAKqeRVFURRl+aHv9CqKoijKArnaH8XF60mkMz5sXBPA+u4I/D59qVdRFEVRlhMqehVFURRlgSRTWSRSOTORVSjg0YmsFEVRFGUZosObFUVRFGWBDI3GceLcMI6fG8KETmSlKIqiKMsS7elVVhTZbA7xZFZcHqGgF5GQT3zzGJ9MIpPzoD7iRyToQzqTxdhkSmq4D011fgnrMz0y49EM/L4cmhpCJj7GFY1nJR7uG0A2lze/05k8GiNe02uTzkD8cshk8xKGx/QiIZcN/dil09Hsg9cLafBmEUvkEPQDzQ1+M6GNiSsLhCWtDZKOVCpj/LJ5OV5Y4gr7EI2lJR05icOLloYAfD4PRicykKAmrtYm+U8YGU+ZOJ24grI9hwnJD/NfJ3GFQ37EJO5YIit5BBrrJS6vR8ohbeJiWTVEWF7SUB/PSFk6+aEf80s/7tcgfkG/BwkpmzHJUyjAMH6Tx1g8LXmXuCTd7rJPZ71olPyxbFIS1+iEZFpoafQhKPszrvFoGgFfvlD2nsJ5zCIcAOqk7HNSnJNxyXdKzk+98+mXVDovfk7Zd7U6ZTMRYxnmzHp7U8Bsi3I/Oa5T9vSTspFw2azHpKm+zidpyJjzwx65BvkdljoRjafMuWTZ85yxvEakHGzZtzTyPEoepZyzWUlrUPatD0pcOUlXFj6PlKHkOxjwYVKOR39ThhK/3+eVcnDKvl7Kq1HyxDwOjqWNMGLZ14WlTqRzJn4JjjpJa0DKK56QPCbyCMh5qJfzw3RFpexZ700dl3CMY0LqTjrjcZV9ztSdoD8vaQiYNLCMWTcD4tcofh6P19QRU/ZBSZur3jOvLVIOTAPDxOJ5Ce+R8+Gky/FjXc2jTco+J/uZc5aGSSvLMCUVnuXMd1uZpjpJP/PD3lCed6aV37KdiCaRlPPLsm9tDMjSg+GxlOyXMz2mjfUhU0dZf3OSV+calbKX65hpZRrqpFyDAb/ElZbrW6492Y/XmVfSPDyelrg8pkxZhszj2GRW0pyTNLHsWb+k7MXPJ+eM56hY9kyDk3ZPoZxTUs6Mp07qZUbqAo+Zhw+HTw3htYMj5rNFH32kHXdvb0Zbc1DOmZSXlDHTGgrwfATlnIktkTJMir+xJeb85+WYeafspb4FJA+8jrmfFJfYl0K9lzpCOxGU66WpIYis2DjGxf2Zb/qlxFhxv5yxhbyGvMa+sF6ynJvq/fBL2bMcklLvpegkrY59GRb7Qvs6ZV+kbHgN8Rpn2UfkQo1KPWK9MfZFytknK/xkU1LOf0iujUapm+zlHpZ6L0Vk8shyzsi1OSzXFesIbRXLNi7X40QsV/CT60Xq/6SklXHxN22MqePRlNgXW8flnElcvEYJbWOpfWmU65N5jbOuso4b++I3ZeLUVV4Hzr2DcdG+MK2dLZIfKWeWH+sv89Em8bNesuxZJ/wSf1tTcMq+yClw6pekjfaF+0qNlvhL7ItE1tLIdNGOF20Vzzevk7FJx77wemHZs45PSll7xL4w/rDUE1v2rKssC17b3I/XEM8ZbSYrDO047Uxd2KkDjn2R60Xyw/PB8mYdZ75ZdtPtC8PQthfsi5RphmUv9cbYY0nXqBzTk8+iWfITkkwY+yLl49xXpY5LGlh/eT1O1XFZj0kdZP1iOrlfrHCdse+lVe4TTAPPD20cbSHL3rn3ZuX8s7zyxranxcbR3ufMPdS5T8QSvC9JXMa2O3XC2hefFBhtGs/jiNiEpERK+9LSGDLnj/WGNoF5tvaFZe+lbZeyCEpaJ8QGMS6eM95LeG2Pih9tr7MfbbtTx205059tDl5rvOYc2+6UPfPNc0b77+E91NRxnnspe6k3tIEse947WsQ2huT+khS7yvsJ0+Dc26WOF9IaDjKtLHveo52yZx1nm4D5YX1m+lgv2RayfrRHtNl+qROso4qy2vE98cQTXyqsK8qyhzfKs5fH8frhCXMjpBiLyZ167+HrOHQmJjcav7lBs/fl6Tcu4fSVtDSMQqYBdW0giefe6sfQ8CjaW8JyY/HixPkJvHpgGOlU3IQbnczhwIkxHDg+JnHJjUNuLtcHM9j37iTePZs0DQnemM5dTeOVg1Gcv5bCtt6g3DSAI3J8pouNtHVdYSMGD5+awKHTk6bR190WxI3BKPZL3CfOM61ys5cG1LEzg3jzyAiuDmSxpiNsGqqvH45i37GY3Bzz2LouJDd44LVDIxJ2SBoOaXR31KNvMIlXDw3j8o0JSLbl5hXGMcnP3qMj5ibaLI2LgLRq9x4ewaFTcXODb28RQShpeep1ietc3NyEO0RMDo1n8YOXR6WMYkYEs5F7/uo4nn5LGvNyU2VDAtLQOXpmGG9KWRjhKOFi0qjbe0jK/nTCnIsmaZQMjGTwD6+N4uTFOHragxKXDxevJ/D82wMYGhlDe3NYzh2kDCbxxpFhZNJJaZQEMSKNg3ekbN56dwxNdbxBB3GlP4k3Do/h8JkEdm6MmMbM0XNRKfsxXO5PYNv6OrPfobNRyeOYyff67joRT3GJyyl7NkI6W0O4IPl56+gozl5Jmhs9BcCxs0MSbhQDozkp+4g0mlnOMew/ETcNk81rpU6IgH9F6sjxc8NSBlL27Y1y3mOSrhH0DcelMSONHFGPh05J/JJ2CqTmBmnEiyB4/eCoxJUwD0fWdgakQZeTshnCqUsx0/holUZv33Aaz+4bxvUhxiWNLCnqkxdGJI+jkp+MaVDlc1mpS4NSXhOmMc46zgb1q+9ckzzGTT1tEtc3lMKP3+hD38CInNeINPi8ch7jeOHtQQxKve8UPzakjp2PGqGWzcRNY3x4PId3Tozj4MlxyV9Q0uGXNETxqpTzpb4suqTuUvCfuJCQ/cZxtT+GLVL2FCmHTk9InR6X9ORMvb/aP2GuoVOX4qYxRQF4/sqoObeX+1JGLFPUHD7Zh7ffHZVj59HbI2mVhi7zfEREZDbLa6jBNLBZ789cGpWyz0ie6qUuxfGm1PGBkbiUO4cT+7H/2Jikf0waexkjJNiQfmbvEI6fT0pjV8pZGtBs5D371oTkQa4XqfdMR99gHM+8OSDlxmtbrhfZ9dTFUTnmuGnksk4nRdHvO3pD8hiX+uczgmNMru0X3rqCM1cyksYQLg004Nz1gNQVEYCJcXS1R0waTst5fnn/MBKJmLEvvJ6PSHntOzYqcpn1JCj2JS3X/6RcW0n0dASMXTh5UfY7MCp2Ji72pU7S5cXh01GxC2PGBq7tDJtG/YETo+LGTb1a0xky9oX1mfuHaF/k3L57ZkDs14ixY91tERP/m4cTUldjpny3bwgb+/LSOwNi44bkMk+jp7MBN6RMXjkwJNfNmNTJHFqaIpLGMewVW0Wh29LEOu6XeEbx1rFxI1A6W0WMS2Q/erPf1DFer50tIQyNpaXey/XCOm4e0Hlx8doEnts3JOcxKXWcjf+c1Acp5xNRI5xY9vFECm8cuIaDp2JSx4NOHZfr5Yevj0r9Shj7wmvmktSJZ8W2Dw6NSh2pMyL25MVJvH5oSOwdr3fa9oypg28eHRb7wgdTQamPCQkzhqNi2619OXExIXmclOsxg01rQkYIHzol14KEGx5PYGOP2JfxON6WOsfrxSsVt8vYF9quEZy+7FxTtC/HpTwP0L6M8dpw3vV+5eCE7DshAi+LLesimJDli1JHaF/yYl96OhrkGhLbfmAEV2jbRdDQtr97dtzYy9Fx5sex7bRB+45Fpcw95hrlw8un3hjFu2Lb+eCyvdmPfrHHz789IfeJmCl3Xscnz4/g5XdoL/nwxe/Yl5ODUhaSHzEwtC98wPn6gavGvvABGv36h1P40av9OH1hQOxlvbn2LtC+7BvEyNg42loiRjgfl3P/lpSz35uR60XuoUNp+c17zoTYA+eBKe3Sa4doj9PY0BMydu2opJv3PtrjTWuCUm9yUsZxHDo5KdcObUJE7FgUB6TcaV9op5rElp+5NCzX/6ixLxSJvEcfOiH2Ra4z2pf1sp+xL2LH9787IHmLY/O6ZvPQ4HVJw2mxL3mxL51iXy5ci8v5l3M2HHPZl3Fxo5I3aU+IfaFNYVxMG++FHXJf5X3yKanjF68793aK+xuDMbEvQ3LtJREROy5RyX1vxNgXinTnQbiUzeE+sS9ROZZPzm1Arq8EXtkvZX8qgdbmkLFNvBc+83of+odG0CnXsUfScOZyFC/tH5I4JFzBvrx7blLqodTxeo95GHO5Lyn2ZdjYvWb6RQLGhjKPpy5NiN2QNofci/jQQVFWO2IGFGXlMB7LGHH71BteMexeaQDl5caYxPP7+vCDV2Ji2FPS+M7LzSaOH7x0Dd97aQIXb/DpMczyey9P4oev3pD9EuKXN43WH77GxpHctKUxMTyWlQZWSkRhTASR3GilQXLxek4aZ1k88xakIexcMsfO5fDt5yE3NGkUp9mrlMfbJ4AfvJrFs2/Hxc/pmX1bxNPTbyZw+Cyf5Oal8T8pjRk2XtOSbn7jM28aks9JY3zvkYzEI37SAH39iAffeckjjZy8eWrfP5yThksMT74yLDd8ESvSqLvYl5aGcULchNz8JkTUSn6uZvDSgaSUTdQ0MPnE97XDst/rKew/mTONiJEJEV6vZ/Cdl6Whc4ZP6XPSIJKG0f68iK8UzoqgT6RzIuwSku+kNELT0nCScHEpexF2T0o5Hz2blgZTHoPSYH127wC+/1JU9ssiIWV6fSiP774MfO8ViGDik/S8NATTpuwpvobGUsbv6Lm0xBUXMTcuDYaM5DErN/6MlEVSGkRJ0yg4f01+70vjubeBC9f57mQeJy9l8d1XU3hmH3sP2TyWhuqFnOQxKeUWM3kekMbZ28fi0pBnfpwezFMXxqWBMCkNjjSuD7DXIS+N4BE8+eqoNESTkib2wuWlvPJSNnm8cTRnzsXIhAjhI5KGfRPSmJs0fjwfr8k5fPXgpGnk8NyyTFheB0Tk8ok8e9JeeCchDXTWKfak5U29ePbtFL7zSgrHL2aNULg2mMfTkpfn98fknKakXmalvCbxo72TUtdTsl9OGmfSAD08KPV+0uSH9blvSOJ+9Rq+L+XaJ+lhb+uFG1l858UJ/M0PL8o5jcp+eWm0JiWPTiOd8dCPaX3qjbiUW8xcBxfk/D/3dgI/Er/j58aMmD15KY3vvyoNrX15KWf2wuSlvuTx/dcy+PGbcXOueX0cPJWUuBJ4+7jUcWl0Xx2QxqzUuefeTkqDNiPCGiK8pI6/KWLycFLEVNaU4cv7B/CdFyjkEyZNw1Iv3ziSxHdfHMYr7wyaHrBrA8x32py3UyJiMpkcjl2QNL2VEL8JaaBGkRZx+s7JJH68VwT5IRErcnz2bP54r9iAVzJSzzg6hL2Deblec+KXFEFEm5DBObkef7RXBObBOK4MZEzvyqHTo3jytQm8+W5czrOIWjmXrx8elvoVl7ik7sZy0vBM4MmX+/D1p6Nobgzh1z/Xgp/9cAsOnvbiW89cw7X+uNQnSet5PoSI4o1DIlYkHtbxt49J+qX8Tl2KGiF+Uer1C29nRKRLw/ZG3pzHY+fTch4TUi9SUp68NkSwnaT94jkaM/mjYH/z6KSci0nzUIh16aKUB0UV6/PgKG0Hz/UYnt47KqItZWaXZtm/egD47gseud68xr4MyPXNh3hPvTYg4mHYlP3AaFbyzWuIosCxL7weX3onhr1HJySPMdNr+srBBJ7am8WB01mMiYiiAGdZfeuFGA6ILR2dzOJyP+1nDt+X6/3kRfbKiV29kTDnaN9x2hen5/Tw6Qk5P1EckXo/Nin2ajQlZTMkdtyp97zeb4h9+c6LrOdZsS/shc8Zm/W9l8Yln/2SF15/Ipak3v/glQmJkw9kMuIvolps2bNiX85eiZk0XLieMb+flbSdL9iXI2ez+NrTGfz98ynEpN7QZr59QoT8G1mxq0nTS8vzv/+E1Bsp01NynfCB4qW+mNiMmNTxlAgU9nTnpXxHJF3DkocEBsfkehH78qrYn2+/mJFlxsQ/HvWI7We6Jowo5H5X+zNSriL4j8ZlPWHK/qzY9pfFtr99PCb1IWHsy3Nvy/3sDamzZ3JSzlLHxT0p96BvS9kcv5B37IvYuidflfol18yF686IiGsDKbkvxc35GZb8jUnd3Ht4SK7jmHlQTPvSPxyXunsD35WyP32ZPZZiJ6SMvvNCFN97oV+EXELqr2Pbvys26CWx7cOjSdlP4pJy+MGrUVP2tO03BkVcyrX/pPidvhg154Pn7MdvJvH0W1kMiY2bpGA7n5M6npH7idSjFO+0fAjhFRsq5+B40lzrF2/IsQ6Mmfwck/s9e35PXZzAi/vHpewTYgs50kHsyzv9ktYBOa7UB5YN7cvRlHn4su+Y3EN5Xx3heUjgBbElJ0UU8oHwu+cTEjcfOol9uR415/aA2DjavDeORCXfcVPHvyt29ge041LOPK+8T7z4DqTexKX+JiWM1C8R0GxL8Bq5NsARNxnZJvfQVylMWVa0Lyk5/8NSv6Lmume9v3Ijhq8/dVnSGhXR6rRfuOTvr//oktnOBxa0L7wnvLS/37SD+vhwQezWj9+M4q0jg3JeU1L2WTkfUs5iJ64NSL1J876fw98+k5ayh9R506RRlNsC7elVVhS8+bNRGAmGsW29HxvWBNBY5zHDztqbg7hjS53pUfV5RWCkkti4th737mgyQ/g4hAn5JHb0BnDH1jYzxCotrYL6cBb37KjH5nVN4PBGnyeLloY8dm0Ko6eTvSycoCaDnrYcHr6zHhymmhD1Eg6ksGODB3dvCyIc8khcaUlXGjvWe7F7cz1yokwz0uLvavXhzq11WN8VRiKRhF/Stq5T0iBpbW0KmP34ZLq3J4jtGyLg8GI+Ze9syeGOTT7s2BiS/AGxWEL8gO29EWxc1yL5y4jgS2OzlMGuTQ3oND0cWYT8GWzs8WPTmgg4lDiXy6K1EZLWADaucXrsJmNxrO/MS9pD6O0OAp686RHZvBbYJcdra2IeU+BQyl2bw9iyNizp4pNgZ1ju9t4Q1nYFzfaUlHN3exh3batHV3vADAvzIIWdvR4p+5DkkcMbOXw3jW1rfVI2rabHLJNJy7nL404ph/U9dQhKJr1S9q2NeezcGJC4wsjnc7JfBht6fHhwd52UE4fYps352LXRh7u31oPDxjK5DOoCaUmnDzulLDj8lL0XXa1+KZuI6QVjOYQDHvS0+7BlfQgdrSGMT7Jn22t601j2jCsmrYD2xpTE75EyC5tGVTKZQG+Xc17XdTeYdOXzKazt8Er5h9HVJmUvaWBdYlpZ9uwdmYzynHnk/IewZV3QDFeclPO4vtOLPVKuazucYeo8j9vWSdo3sE6w1wtmuOBuSfuWdZJvSSPrNOvJjo1OftgrmZP61SPltGdrg+nFZ288z+Mdm0O4Z1eHSQPrYYBlL/V++8ZmU8czUucaIzkp+7DUyzozUiHgy6KzOY97ttdL2YQlHpZXFlvlOrtvR9icd6eOZ+T8e3HX9gZz/LScx7ZGr5RzSK6hsDRTnWGgPW1+yWOdqRNRabWxB3udpJv1t7kxIGWaAnvct66PYKeUa0TqJetcdyvk+mzA5vVNkgYp+1RC8ugx4dZ1N5rRBeFg1tTxzWsjaG+NmKG+LVJvtst53Szlxd6rRDIpx2N9C2FdF4dPSwNP/DatYZ2Ta7sjZOole5B5nndI2XMYN3t2mddtEhd7oNjDxbrE1xF4HfOc0SbQb5PYjEfubJD0SRgRkxyquGezV+xJq+llyUr5BOV63C1ls7W32Yw48XlzaJB6cv+uJklD2JzrgD8raYWcRz+a5XqhXQpJHmmrHtjVYM4/r+26UFryLXVnq1zQHMwo9bBbyvmeHY1yHYt9kfzx+mN+79hSP2VfmB/mpWhfUrJN7Ncmnrew6c2MJeLoaKadaJB8NZthmMYmrAlJXE3olDpOexYK5LCxm+dNbGFD0Jyjjmav7BfEhu6ApJtDS+Nyvfhwj9iE9V1OLx5HSfR2Qa7tsFwTAXOuOaLkji0RKeuI2AKvSTvTyjq+XvLDOpNKSZ2QOn7nNqlLxrZLXGJfNvbkpQwjxrab8yh+O3p5D2hFKMSyl3yH5VxvjYhtrZcyZvwZx75sCMk5i8g541DajJSdDw/d4dgXvoISCWUknZL+7XWSH76KIbbQL/eODbQn9eZ41r7s3hzBWqnXPD98hYD1fqtcBx0tQUyIfWG+tm+oF7tUJ+efw4iT6GjKyn5Bc31zyG8iGTe2ZNdG2kKp42LjIDZh0xo/tkm9bG+JyH2P9xypE3IOd25qNEO2nXuCx1x7tO0sr0kp+3WdWcl3wNxn+KpPNpuUPPvMuWavJNPu9Yh9ERu0aZ0te45scuwL80P7Qhu9rjMi13q9GQHCMLlcUs6XF/ff0S7hOdQ7I7Yjbcp5x6YW2Y9DfTNyD5HrUcp5XXe92AOv2JisuY73yPnubHPsC23OlnV+3CXXFV+1YLk2RLJiCyF1WuyxlFc2l0ZzfUbqfMCklfXBJ+noYjmvFxsqafXI75CYP54P2hf29salnGlfOCKF54wjDGLxhLQTeG+vl7S1IC3njPWkp433Vbm2uxoQjbFe0r74xL6EjX2hjeM9lKO6tqyTuAr2pafdsXu9Uu9ZLycn43IPor0Pm/Iy9z2x47xf8tpraeCQfbn+pY7zvrRJ7BdftchLOlrE7u+Re+EaY19YxzOmZ/tusbOs46xfeSl72pJ7dnYYG0c/2pc9Uge39jZJGfMhVhot9az39VI20g7hvSon11Cb11x7HS1hsdDOUOqdcq+/Z3vY9EzzNRZFWe3oO73KioLvJ41Gsxgbd949bZbGNsUBhxuyJ6WtOSw3cL4nl8H1/gnkPX65+bARzIZ3Gv1DcdNo62xrkNg8GIumEI1yCHSwcAPPG7/JSblxyE2oqUFuzvSTuPmO2AYR0RyixifaIxO8oXmmPlHCXonh8aS5gawRscyhedxP2oRmuBvjH59gDxDFqhdt0iiqCwckTMHPI34cyiQ3Mw4j49Nw3tgo4sm1/qiJk0NZO9rqzXtGo5Mp8y5ci6Sf79yxp4pPjqf8pCXAHmxnmGwArc0ivCSuS+YJtvOggHlnryqfAtt31jjMisOzRyT9HGbMYcvMo/EbFz8ONRQ/NrwHhqIi3DySn7CIBuedq/7hpElzV1vIDBnkO1+DIxwempeyr5ctjCstAtAZjkZxzvQYPyl/NtYbxY/v6vE9T76/tWGNiDNTzkkp55RpXK8TwcZhWY5f0jRQOSw2FnPyzGHUTBPLP1rGb2B40vRERMIUwWHTMGYPKns6OfSsuyMiDSWmPSFpzpmhZ81N9EubXm7r19QYkfORMmXNIb3MU0RacewNYy8jh/iyEcx3ATnMkHWiTcLwvTi+l8n0c8gt42LZs+HF3hyWM8PYsud7qhwuSD9T9sNRKSNI2qXhKnniO2SsJ2xAspw5xJp1gmVv/fhIgnVk0tR7EVmNTh2nH/NKEc338NgrTD+fzy9lygcvXnMuRsQvIOlZKw2ytHnPjL3TfH/Pj04pQz6MoR97fTnkjuJveDRmzq3X55P6FUKDpNX6BQIBEX/ONcSy5wMlnp9WaejbcmbjjuerpSksx0+atPPa47XOd3+tH9+Ta5H4/XKc64NOTyTfM+T5YL28McjzyHQFzAMBij8Or+UQRsbPNIxOJEw94bU55TeewNAYh1eHzTniO3cDQzHkPGzY5nG5X9I+nJPrKYctIqpZNnznjvnjkFgOdW2VtLNhST+ml+XM9/DYI0Q7kRTbxuHBfM+P8xEMjzGPMILN1Psxufak/H1yjfb2NBhxxnPEcua1zvxY+wKxJe1iS3gep/vx3Pok7UnT68R1NqzJ1f5JJKbsS4OpN8NjCXOuaSMiktYZflKpOHKDQ9spKliubDtf7hP7Ys5/0Jxv5pE2gQ1wDrnmgwQOkXbK2XktgnmkHad9YV74ygNFKes4R0i0S9k3yfXA88jh6LwXrO0Km/0Z18CwY1+62uuNLWU5Mz7aM9YB9tjRbzxa9GO9dd4jhwgQp5w5Qof3EtYvlg3tC9M+JPnmqwbruuqNLWHZM05ei0zrpNvP1DnHvnA0RDgk13/BvtyQexDfu6SdZx1gj/OAXOt8QGL2k3rC64dx8WEnhVtDHV+zoF9K7nusSxR6vF74CkxWwvDhIsveY3r7aWecusphyhn0s44HfeY6MO/Ast7LPaZeznWzONosa9s5ZwH9rH3hQ+b21jrHviQzcp+Imnd613Q1IiT3F77OMzQqtkpEFNPO+sh0ciSF8RP7Yv1on2gH66Qu8VwwT7QJLAfn/NNP8i1lvq6bfl5zX+V7txwuzHyznLmvteP0432R+/EBomkDiD+HQbO+BoNBsS+8d0DKPiHnLuHY9vZGk0ZeV3wwSL9Wse20b7QlnDOA8Tv2xfHj8HD6cR6BG1L2nN+A55/1ydj2vri597Y2O/aFdpzXB19l4bnlPYv1b0zaDrwfMy6OKh4RG8FrgWnntcAHIQMjtO0e8/CXQ/F5r2T7RW5VZhg2X11huYxI+ptETLOci3Y8bcq5sT5s2j28L/G6sX7sVXfmMvCYhzRcKsrtgIpeZUVhRNB4BgOj0tBvkQa0iN6INLYURVFuBXwn8Ed745iMe/ELH43g/p0N5kGPoijKcmRwNGteX+CDgN5uTvylE1kptwd6Z1ZWFGZClFf78Z/+lO95jZrJHRRFUW4VPm8K4UAMkWAMfq8z66+iKMpyhXNf/M+vDeJPvsMJAZ33zxXldkBFr7Ki4Lsu7U18N5BDEvlJomxhi6Ioys3nnp3t+Oc/uwH/5pfX486tjWZIpqIoynIlEuS8AtJ+ysfllwpe5fZBhzcrKwq+/8R3fDibML8By0k5+F6foijKrYDv3o9McII9vg/vBT+hol//UBRlucLPfvEzSoQTo/FdZR3erNwO6CNpZUXB+RYiQTYu82ZmTs6ErCiKcqu4dJ2faxnGs2+N4cL1GDibsaIoynKEs8xHQnkzU3tbY17f51VuK1T0KisKzkR46sIonn9rCEfPjJvZHhVFUW4Vw2P8tvEwDp8aNrNk59iqVBRFWaacvxrHc9KG4jew+fUCzpKuKLcDKnqVFUUskcOJCzF8/5UojpxNYXRSe1UURbl1rGkPYs8WD+7cnEF3q8eMRlEURVmOUOAeOZvEN1+I4ul9cQyOOp8zUpTbAX2nV1lRsKeX3yE8fz2PNR1+bOjh909Dha2Koig3F36rmN/YzeXy5jucwYDPfC9VURRlOXLyYhwnLyUQCgCP3dVgvrHu1YkIlNsAFb3KioJT6yeSGSRSMO+iOI1MHbCgKMqtYWg0gb7hDNIZD7rb/ehqDUkDsrBRURRlmcERc3QeTx7NDT74RPDqgzrldkBvzcqKIpFM4dK1Qbx95DwuXxsyvxVFUW4Vl29M4rWDI3hx/yguXoshk9WhgoqiLE84vLlvcAxHTl4SdxnRWNKMUlGU2wEVvcqyYzImwvZ6DGcuxzA6kYbbHk9GEzh8/DK+8/QxHDpxHWMTicIWh/FoGheuxXH2StxM0KCTyiiKshgoYkcnkjh7OYqhMu+/jU8mcW1gEtcHYognxea4DBbDDo+ljC3ju3OptApiRVGWlqzYoMt9bENFMTCSMiPkLDRPZy4N4amXT+LHr57C8GhMwhftUjqTx6W+FE5cjKFf9tUWlLKaUNGrLDsuXhvHt5+/jv/7nWs4eHICsXhRvHq8HNIcQGN9EKGAb+p7mHx6SWPNGZ3/5kc38Ff/cB3nrk4gI36KoigLZTKaxrtnRvHn371kenTZiHQL23VdYTxyRwjvvduPTWuC8Psdo8Qww+Np7D0yij8TW/amLEcndGSKoihLSzyRxXdfvI4/++4VvPjOCMYmOUNzYaPAeQci4QDCIT98vqIMYBtqaCyLbz43jD/6u2t4/ci49gIrqwrfE0888aXCuqIsCwaGEzh0Jou3judx8mIG3S1ptDU7BjocCmDjuna8575N2LG5Ay3NdWYCBvagvH1sBN96fhL7T6ZRF/bjgV1hdLSExajruyqKoiwMjhg5fi6Klw56cOCU83mP3m4fGuoCZntTfRjr1zRi87omtDaF4Rd7w/fj+oZTeGn/OL7ywxiuDnqxdb0fG9eEJLyzn6IoylKQSOXx8oE4TlwK4dx1ICoieOcG54Ec39/tbm/AA3vW4dF7NqC9tQ4Bv9+I4vPXsvjaj+J49ZBHxC6wZ0tE9gvpd3yVVYOKXmXZEQ75QBM7Hs3izOUsrg5kzeyCrU1+M3nVRAwYHBML7fGLsfYgmcri6NlJfPO5OE5dSmJjjxcffbAO9+5sRiSsM6kqirJw2BNSJ/ZneCyJG8M5XO3PYjJO4RtEJORF/0gapy+ncH0oh3DQhzrxuzGUxLNvRfH0m0mMTebx4C7gA/c3YUN3RGyWDrBSFGXpYEdAU70PoxN5sUV59A3npT2VE/vjk/aVF2PRvNitPBJpP5ob/NJGAt49l8GP9qaw92gKoUAKn3w0gof3hNHWFDDtMUVZDajoVZYdIWk4NtZ5EQnSUGekQZnF+KQzJIcjcc5eSeP5/RlksuxRyePi9QR++OooDpyKY1OPDx9+sAGP3d2EzrawCt7VAEdX6WlUbhHsueVDt+Z6L+KJNK4NZnClL49UxoueDr+I4DT2n8ji1KW8NDQ9CAQ8eHH/GF56Z1KEchr3bPfjM+9txM5NdVO9w4qiKEsFe2bbmp0HcLFEFlf6M7jcl5F7aU5ErA8XrmXx8kFpW13xYPt6n7Spsnhhfwr7jiWkzZTCxx8N4gP314lIDpqeYUVZLajoVZYlbGTSaDdEchgYTuH81Yx5UpkSuz00xqeS0rj0ezAynsHBk3G8dmgUa9tz+LQ0Lh+/twVrO+sKMSkrBQ4bLcXjVrt671VuEXxFYk1HCKFA1nwy7XJfGsfOZ8zDuUTKi75hLybifFjnkQZmCj96fRhDI1Hs2ezBZx5vxgO7W8SmqeBVFGXp4bN+v8+LjhYv6oJANJbF5etpnLmckjZVAAOjXpy8BLPsavXipXcSOHAiBr8I3g/c78dPPN6Ino4gAvpq2LJGO3Xmz23znV42qK1TVg7JVA57D97A916cwJlrYsRbG/HYvc3obgtgWATvoVMpnLo4gdb6MfziR0N4z31r0NaignfZU+EypBF3G/IZRn0V2Xhri9QurSQ8ePfMCH74yiCeeSuFSKQRH32kFbu3cNiyB1f7UnjylTFMTA7h7i0pfOZ9rXjs/o2FfZWVhtsezbBFqxRrj26dTZrtuPYcVApzE8/RXMUzIynuHapM57x2mZ4g5/R5zGzNpy8m8I0fDmPvsTw62yK4Z2cEW9YHkc6wAyGNI6cnEfZN4iMPBfCFn1wr+3E2Z3d8XC+TgOmHdPCU8SwXrmpu4jmdBzfbHLjtkHU+n69wnm9+elYqt4XozWazSCaTiMfjSCQS5vfN5HZr0NYqv3l4xfSGEE0GceQ88Oo7ozh9IY6O9la89/5WHD0Vw9WBGFpbPHjP3WE8sjOL5kgSfm/pZ0Hmn5757jHN3iy3011tepbCaJaNs9h/awy5pC8UCiEUDiEcCSMcDiNfMmOkNfhLksZbRDqVhthfJAp2yX3dOGvVnri5i4Ux5assvHJtlnLkqzwXnmrzUX12K1IxipK0Tgs3y3HNJtnXlIks8wgglgriQh97R6LYf3QMTY1NuP/OFrQ2B/DKW8O4MTCIPdvCeN+9Ydy91Yf60OLuN1UWc83vM3OfNydlxXplwxcKawobbmZ8ZfNWpmKVHsHBsfNzpbLCUQrezjbTiDRrRehHW+S4EAKB26Onnm2lWDQmNilu1iuU3gzKnd9yzG2HJB5ecCY6G6fdx71v6fHc22YeozQ0KZ5119Zph3R+eMoZu7LXWyGca1+L86sQ39Rx58AcV1zBKPN1rikKmyxMjv3JUHnu6wkim69HIh1G36gX33puGJeuTprJqzauaza9wW8dGkF9fQAP7QnjPXf6sbYtBZ8nLnGJIi5cY8TE6axO4Tq8i9JQlcJVS3V736x29lRbpMD0n4vLabV4vV40NjbKeauD3+8v+CrVsKpFbzqdxtjYGEZHR82SYpdutoujdFutLqSluCBv1kU+H2pVfjQsOTHaeTHaeW8DRhONOHXZg3fPJqVRmUZbayvGJxNobkhi1yYP9mz2ob0uKk3ShJgdVyPT3CTmnwYm29mr8H+FKMqZuCm/Kg67UBNpylV2Noco/leeKtJhmDUxxY3u++5slGsnEOcm4TypdBqbXjHcPvh8fhG/QTQ2NaJJXENDAwLBYkPT3GxmTePyh+ctOjmJsdExTIxPGsFLm5TJlAgjKeRqG5HVFAmPy4dIltniXuz5LcURT7NHaq4vd4SVLjgySwLLbamUTvpPP26xVMwhnIpqfFlL2eDMwS/B6zCZrsPVoTocPJ3G5WtJ+AMREUV+uc+MY313DHdvC2LLmjyaw3Ep9aSJZ6FUcz5qZXctNueVKZSZBMnbcnIKs+BsmXJZ2O4pfRgpW8ocwpOfOdGXDWdPlXOsouitXJ+Lx5+BsT9mxdgWZ1WskXmH0dnmF5vk5URmdXVokkZmS0uzsUvGFq0i+ABufHzctJUmJyaM2M3lcsY2VZvTcue3HG47NBPnvJprjudYTvxUtTIpsftOeU7VCbN96sfMVBfDWeQcu659G99UnTSbrN/0nelr0lf4YXeZOggXJZXb1NGCX7k6XpacicjZz+zLsnGV87RkMVwhbfzzsNMgKO2oiCzrkMyFcGkgi3dPj+L6cADpbDO80r5Kp6K4e1cHdm0EOhtGEfGPw8d2lIeil7E554BrxCxt3ksx6XH2sUwlscIus8O9p2KYBSfyYrIWdLAqcdJTtB3mp1BNOmsD7Q8fxDU3N4tNapH2UpNpOylzsypFL2+I0WgUg4ODxogPDw+jr6/PLNnbS2Nejlo3HEgt4iDueCqt32pK07LYtHF3c4P0imHON2Mk0Ywbo3UYGA3AE+xCLhtFa2QA61uG0NEQE0OdlPuC+yYtEZTceObCSbKzj/02MJktL+VMXbWHnWfypmB67P11rnKu9hgzGwXTscdhfNWc29nis41GLn0ezh7pMY3Jrq5OrFmzBh2dHWjvaENbexsidRGJrLDPHGlczrBhyYdvg/2DmBThOzAwgBvXb2BkZKQQoohpIJlMO7/nolIwe564cPewzHb+alVfLB53I60MU2kxEYpEnrVucZu4Cscut6fxKwnP8jX+8p/pEXFWrW+ZMuAWNji94vzIIoJEthXXxpowMBZBPN0kyQ/C7x3B2qZLWNM8ifpgAt58Sg69yJ7eGWmZibvMZi+/6pn1vEmZ2cPkpgpXyijPfehso945p6QWopdRcdXJoxPf1LmswGwiy9ohi/s3e1PYy9va2oq1a9egu6vbPJDr6uowjc1gYHU0MtlWGh4adtpLYouuX78+1VYi00uoMrUSvY6oE2fOsTj+MyeYKXGnRjwLP81mWzlmhBOmhXOgMCzuw/9cFpI/TaVzHngVwxVgggq/Te2z67buct+Syp0vxEeqF71OOFMmUr72+mL9d2KbfgypwOKYDiCTzkgbhvYqYGwT7VZOWklXh7wYjK9BPNcrAYMI5vqxeY0XbfXjEnIQfs+EREGbxWM58dvj2fVZqfI6r57Zy8qmx52uOdO4SErtxs2Gw5rZTtq8eTM6pa3U3Nxi7FJ9ff0tT9tyZ9WJXj6Z5FDBa9eu4cKFC6ZhOTQ0hBs3bhjHxmYmwydYMym9UGpx4dQyTruvO45apLFWlKZvsWlzP5xI50JIoxUZbycggtcb7kQ2PQlP8iKCmYsI5McKIXnBuy/6+aZBjHthl6LoLfqVo5yJqdbIz/dmUCxT+7zXpq1yRNUeo5KIKea9cCwz9Lh43OL26VSKrxSfx2eWFL1r167F1q1bsXHjRmzYuAG9G9cbIRyJiPAlEudKNOoUvKNjo7hy+QquXLoijctR8yDuypUrxlaVo9pG5FylYesMR05YZrs2F1tfSplNPDlVyDlg3vRqOMxqO2Ypl3J7Gb+StEqtnQprjzvlJ//Rx6bBWcr1lpeGoKwyVC7vQybfiCS64K9bD0+wE3mvNC4zQ/BMHhZ71C+Cd3E9vJa5zsf0dDrMWn5VMut5Y/SFCmBFb1HwciP93I7BZ8ZXLm9Or5qzj8WGK543WcrxTD4lKP3K55njDKbHVY5yZUc7wyGEbW1t2LRp01QDc+PGXmzo3WB6WILBlS18OYy5T9pFly5dwtWrV434vXrtqmkrTUxQ/FSJCVg8O5VhQGfsR3kYQ6EeOZXMLO2Dqep7emcKpWK4IkXxWYxvqk6aFetXjG+qrhRewZledwrhuG9J5TZlU/Cbj+hl/G7Ra+v91N/U8Z0MMp/0SyZShXDiYe+Zcty0pwXehp3w129DPutDevIS/NkhkcQjIonH4fVMt1s2ficurvCfPWY5ZJs77/xZWJ0/3LPy3sW8F9fdfktBafxz/V4KOKSZoveuu+7Chg0b0NPTIzZqo3k4Fw5HzGf2lPKsKtHLyhaLxcyTSgre8+fP48iRIzhz5owZ6sz3BudqMLsrbC0qb63iK42nVvHWilqnzx0Hl1lpmPL9XrosAsh6gmJXc/Dn42Koo3KLS5uwM6j25lLAnVa5tUz77V53U3JvM1Rr5MvtOxu1Sl85yjUKSOkx8tli49X8rnDcSvGVkisM7eWoDL7jun79etx///14/PHHsWXLZqxdvxabt26SMuVQIomU/1aQ8OXDm6HBIRG4V3FN3InjJ3Do0KGyPbxuaiF63efGvC7AFkiBSudtsfWllNmauJKIqa1GfLrSVCl9NRG9peUyy3H527hCjy3XnbIUkYuw+IbgC9bD6wtIQ3NcBO+E2KOS1ywWwWznozTdpb8Xw+yil+fKWafodY5F5zTKl6qnl2fB7pLPO68qmd+m6pSJTJitZ7G0vEp/E4pCth127tolNum9uO/+e0X0ivDdsBEd7e2mR3glwg6Cs6fPGLHLh2+0SadOnTJtJTcll05FatHTO/XghCdc7Ob088H/7b784WybskNmxf6YeYypcC5mFb38XfgxFY51xFmj4ShJn6wXwple3WJEBrNnaXxz4LGiV/aj/ZkSvCYd/LNl5J26J/IX16fukR45ll2X43LIc8ZTj5yHI6g88OWSsnfKOI+0ozyeot1y4nawx7W4128VtyJ95Y55M47rhtfuxYsXTefAI488ggcffBDbtm2bEr6RSN3UKVems6o+WcQGM3t2z549a55c7t271xhz3pQ4HGAlNZSVEsSQeJERl4QvH5OGZRR+I3ZpsGe72S78nFdrusododqjLqZGLiZ9ZakyYK3i483BXJOSES6DoaDp0aVBP3jooLluW5pbTG8LBa8/EDDX8VQjs+qE3FrYq3v9+g3Ty3vu/Hns27cPE+MTc98cSxpNlai2GKrp8SJVF2uVAauOr1yrtBxVlss0Zom62nIxFXUK7pUzw5d9iMObG4c3Mwq/2CWvh43H6gRANVRdfjVm1ocVrlRNLz/uQ2f9uCyslzlv7j0tznDS6ZQLN+18lA9QYNaNc0KbxGHOfEh18MBBdHZ2IlJXh1AwaMTw1CiUFUQmk8H1a9dMj+65s+dM5wAFL/1Lqbr0qr4uZ4uxUH8YpKx9LLPvlBdX7I/ZwhWZs64VfpQL565+RaZ2KImowGzxlYGjHpx2q1MmXJ/uRO7K/ZCO7/DSozRMYUcTH9eN3ZJ2E22VH5Nm0iofbZYnI652dmu1Y8WudeX8lsrxvNqhzOzg42ix3t5e5HJ54x+JhE1bSZnJqhK97CliLy+HM7/22mvo7+83Rrx48Tuw0lTCVqjlxGzprTULOdbNKC+bLqch5gyo4/rsDTNSfdpK815tSZQ7QrVHLQ03W/nbchazJ/vNnXNL1SVQIaD7/PK4ksgpP/ey1Ml/M/ymHONxdrULEQvFp9Vc9t3oM3ltb2s3wwibmxvNxFbODb64/3KG9odi9/y58zh58iTeeecdTIyNV5xXYBoqesuzLESvg7VBjsg1fZ7zyHB1uKOrZB/oP5vtWBAmvjJ5LlyjzDXXppef3cf6cVlYX2Gi19ipEpfNZsxDdc45wIdxgUAQrS0txQdxKwA+VOSIuAtik9hgPn78uMkTXwsrR9Wlp6JXmNqhJKICs8VXhmkTbbnKl3XR/ObCVT/lv+L6FI7/1Lr539otx9nM3Ez7stj4bB4Zz/T83jx43NLjc32pnIXrbpvDDj/OF7J9+3Zjk9heovhVZrJyLPUc2JNOocteXvbwcgbC0ptRrS9cC+Mt5xZKpTgWE+dcLDRuu59Nb7nf83Xu/d2U/l4s9hhlj1PbQxnkSFN/chDXL/krSUMpJp3yZ/5xvcTJf2VdubDzddOOX0KpYZ7LOTs5+5Viw3C21HgiPiUW47E4xicmbsknxxYKP7vEd+YmJian7NKALLO5W5d+Kd3CWnlm37owZtYYB6c+FdenQsrC/LZebsf/zDqX5Z2J1+XEs4wfg870r+QYx63CHH0qHTMp9Z8tbDWYfWfZ34nfrBTWpzuH6fvLlorh5+fs8YuOnqV+bif/zfCzzqTNtT4bfI8uFArjRt8N0yt6WdoY4xPjZiKoqh5iLRM4fJkTVTHdtq3E9eWH635h4HrJeZqHwapWk08PJr/Mv0Kdsb6udflRqEPFcEW/ojNbuXSFm8txXhGz7hzGrDuHpL9dFtcLKyZMtTC0jaccpf6zha2Gxe5vccdj191OfGe4cuEW6kjpci7c+y/EubG/2aPLSeeOHj1qHmJxrhC+j5/mR5iVGawa0csnl3ScgZBPLil4bxallXGxVIrP+tfyeIzLuoXi3t8dn9u/HOXCWmcbEfa3XS/C9VJXjsrhpsdXZOp4rrBc5f21nKsWEy+jLDgu3L/nYmr/wrrzu1hmNpoZzh1mEY7Y5WKYKrM5ompsaMTwyDCOnzhuJqAbHRkT0et8SmMlQHHLB3EZaWRyFEp/fx88XsrO6mqNE3Luv+m1cbpzb+f/xK7ZBwxuJ/+ZbTWlpB4Vndnk1IOCM/6FiuGslfwxjNlW2lfhOJtXYuPna4JT61N+hbiMc1bcaePv6Y4xOnG7/4rHq7UTeEzrrF8JTFpxm5SBK50LcXZ/s2Avk+1pokfBmTBOQFmwvFjAzru89C46W57OCTBlXngPcuHO9U6j+1gSrzuN7rRO33+ms9j1Qo6nmLo2BE4Q09TUjIsXLopgvIzoZFSu7bEVJXrZQcDRcLRJFLxc1ganDs3ljPgsFvs0iteUxZY9l/L/lHP8p/2Z3wxZ3hlmHLdMYqbVD3st0NvtTw8TVBaFME4w57KZeWRnow1rd3Bh4nIupaITTyt8GWD68ensjq7fxquw4j5+JabCzqQYj0Pp7/my2P3duOPi+kxH/+muctjZHa9v69x+7jB0szHX9oVg4+SSD64OHDhgHrBHo7Gp2deV6awq0cuTzMYxX/B2v/tnK2S1lc4dvpIrdxGUc7UKN9v+lSgX9ma6xaTBTelvB/qVujKYIUBFJyVZ9hgWt/+0Xfm7wl85GEupK4dtV7qdxaaz1FmYLkY8LZ1l3K2iXFroptJcCDMbfEefvSpsnPHbtvxm5kqZMZXnit++TCadUSgjI6Pw+wPFBttcTsxzNa5sJbLOFcb5c8qdvu5zMs2VS0s5V27fMm5GmlyOf1O/mbZC3O71Uufev5wz78GZiWLkd8E5fkXn3PoK2/i/jdu1PsPZ/QtlapwZkl/iXMdZqDPf5+SSzkmh1KeZzm5z56c2jvEROY6kZdpxTWO8sFkw3ysVVzznzINdp7/jTFgTvuiqhVmlkwJ2PAxyHFvm7nPicvxzQlbnvIVzbZYuP/vb5/WhLlyHq1eu4fzZ8xgcGDK9Km67vJxhOil6KXTPnD1jxC9/14LSOlzJmbAmfBkn/qas5frleXCQ31PrRAK67qjF8+2Ec5zUuRLnhC0cp+CKcZkfJUhoplfcVAhXOiRW+S31i471zNRFVxoK6Soifq4ymIH7mreuANcYo50Aq3iMgr/9K+ziLBjWCVGKbUu4663br3TbUlLuuPNxS4WNv1LbuxR7Tioxdc4W4dy4/e1w5v3795uOv3icI8wmCiEVN+4rckVD0UtDzhPNXt5ylZKUVtxybrlxM9NUWhbVuFLcF6j7wpyPs7jXl5pyebnZzFauFve20nJbjFuu2J6JRDyBRCyBFGcXXb7JNfBGyWGEFLycZ4CT4NBPKTJV5bjkD+vMz/J1tHauzDHmOO5yZi6bsRBulR2azZU7Vjm/hTo3pX7udbYz6BKJ+KztjeUGbRI7B1ZSmpcLU+efy0LdsH52famcHKGM38zjusPVkrlswUKoVZzuONxlsRC3UNz7lsZp3VLD9gXbSXx1YWxsvOI7+rc7q0b0suLzpNunMjcbewGXuoVSizjmy8081nLhVpTzfFju6Vtq2LPCGwYbayyDqaFeyxymmenMZDLG8T3k5ZBuuf0W1m7dzVmZH6w3tu7Y9VK31NzMY60EbFsjm83J9Z01y5VQNu7zKFd7wXf54rZHpXbKOmVx2PrgXi91S025Y87lloaVW59YJo5Noj1aHu2N5ciqEb23Eq1cK5Plft60XjlI08YY85WInkOlVtyyuqR1eFZ4XnI5bWQqNxsKNOsWz62qv3rdKDcTFb2KoiiKoigLQl9bWBrcom42d7tRqQzK+SmK4kZFr6IoinJ7kZdmYcG50eaiMn+0xiwN9mqcy91ulMs3m/IF/5JJsBRFKaKiV1EURVEURVEURVm1qOhVasZt+26G+xsIlZwZAsflbK6aMNbNJ2w1rvr05SU/dMyXXa/aSRzT1mcc1/5evbhze3Mc/8r5LxMndqP0z6kZi3Mm3ho6Rbmd0UmkFsYMe1fGGQodtZWcCct1Lvkf/ayzfrOgtkxRVPQuC0qN0M0wStUaPxuuGlca3uL2c7u5thH3+vKFaZzDmZtVGX+Xc/JarSPl/Isun5emPz+qWcF/upNtpuzLbbOuJB7XeiU3Iw63f2F9uiN2uUphXViAY3mV+5truylNhhEKv8piwpa53uhXzhU2zupsuBLv6c6EcDBxF9ZLmXZcF9a/1M217VZQLi3l3M2gquPSv7Cq3L4slcCdUQddNogLu74ccae1HDY/pRh/l5P/+I9bpvlPc4U/N5WPXMBEzVBOHKUYvzL+tWAq3SWulHJ+M2GY2Z2Nx32sSs4JV97J/2a7xYZXVg+3nehdbk8n3ReV+6JcSsodo1q/2ZhvHHPFP9/jyx6zumJ8BT9TFYrbF+6qQIKV7jXd8X8HrpvfhfQt9K8Y8/Q/61/q2D9Wzr+yI+X8HUdhO9Nf/ned16Kvg5M+Z804e7kur8t2HszM4UKY9Tqim+taMs4J46yXOvmfK1O/Xf4V4DGnh53piJO22VxhrUy9KLriNjezlktVZTI75eKYK95KLHS/pWDOtMh2huCHbZyLzzNVXqXObp/dkXL+1s0f5mHBZVqaifk4FyblJX4rA+d8Tj8HlV3FsKY9NbuzxWadpey5M16y39QmxlEFNvJauDmYSrdZOq7cn9lWksdyeZ6KwRXfTOcw/Ze7nIsU9yqEtDuYZWFr4Vg2zIKvozJUExfDVHtMBpvLOeEKK3PghKvkilQb33JgJaX1VnNbiN7SoTj2dyXHCjSXI/ZbfeW2u50NV865w7j3sX7l3GzbqnHljlEuTne4uVy58PONw+3K7VtK6fZpPYplnDN0lqZNfpt1cR6JdwHOxuHEM52Z6WL4uf6YrsK+rrjdw4Dn7bhvuf2tf4krpGBWN7M8Z/oXt5fbn8vpiK8cn7FxTX7L+lS6THq5xca3EmG63eU1k2l1peDsdTjXdZSTsnZKaBbnDsP1Ga4kbDn/pXQ8VmE9O+341rnCVlsuNnwZN+0Ys8TlppyfpXQf92+3f7XMd79y4dxxlLrKFMKYNbkX8n5oHX+Xc+4wFR2bGraBPtPl5aIvuulpdbv5wn1o2kqdbFiwM3FIFE48zvrKQ1It56T8uXIcvF5pD8l5M+dOwvI8lTjThLRhGF+ZMNPPLd1s51LiLITj0llnsc+sC1Mu5467spP/qnJlj+FyFnuPEush+SzjCtvL7VuOqfDlnPlj8mRp4zIetowcP/Md+6nQRSQK7ixO7kF0kj7ZyzgTl9nsrC/WzcZsYdxxuN3NZLbjure53WzbltrZYyvVQ2umKLcRNPjLlMJ9XlGU5YO7gaEoq4Fqa7O9H5XrHKBTFEVZSajoXQbcqgaV+7jl0mAbe9W4cuEtpf7VOIt7ffnCNFpne/NKXSV/63KSVxuGyNI8nhU/Lme4Sv4Fx/gKrpL/QhzjmPkkWraV8yvZl/9P/+0sp5eDdasX5q5YClU6uQ6m93w6jj2WvEbcvZ+lLsulO4yJq4yrtN36u5yJswpXTbh5p6/KcpkKX8a5bc1crlaUi7uSW3rKH1f+KcpNo3wddCqhe305Mlf67PZCZ6zj6F/mj7Zsrj8Txh1XGccH55ap48/hbNhaURq/2y2c8vHV2imrHxW9tym1vsBvb4PBvFtH3L/n8necU34FJ6LREahcysL6T3OknL/j+FfOv3J8i3Fkpp+TiuJfqY/9XdzH7VYvTp7nCRs1sih1pJy/21lKf7txn4lSrL/bkXL+pY6U83c7S+lvN6ZRUlifxizlolRmNZhrbaSubKq2gyvwNFesmzWw47cjeqkrtUJF7wpFhxatZlarhdc7l7I4tAYpyu0I2zuVnLLaWf7NXa2HKwUVvcuYud6bWWrhuxyE9a3Mv6IoSq1Y6faK6S91irL0SD0rN5bXOmVVMLtN4bbC6i1itvTRW+3hykBF7wpgtoupVheaXrCKoii14Xaxp3rfUBSlllS2KcvjQdtsaVB7uPxR0atMUe6CXe4XsRoZRVGWIyvRniqKotxq1EwqS4WKXmUaKnwVRVFqw0oVvjpJlKIoS8Vyty9q/1YvKnqVqlDhq9QG3kxKXTkqbasUXlFWDmqvFEVRFOXmoqJXqZrZGmrLoRGnDcmVgBWzblcOu81+x5dYP/tbmQ+zXr/LYPbJ5W5fao3aK0WpjF4fiqLUGhW9yrxY7g1TvVGuRlTo1oqVfP2uxmtb7ZWiVEavD0VRaomKXmXVMdeNUm+kKxEVvrVCa//yQu2RolTGuT4qXyN6/aws9H1e5VaioldZleiNUFEqoNfGsuPm2qvZG3Xa6FOWG2qyVgcqeJVbjYpeZd6ooFSUlc1yvoZvV/syV75rVS6zteu00acoiqKsVlT0KgtiJTRMb9fGs6KsdFT4lkdtmnK7onVfUZTFoqJXWdVUulHqDVS53dFrQFGUpYZ2xrrVAEdD6IgIRVmZqOhVakq5G5s2rhVlZbAk16pHGojzdfxUVSW/EhabZu5fS7dY5oqjVse5fWCdcTv7GbS5/Co5ZTmR56UgjstauNmYS+wuJ0G8HO2ETdNcjie0uK4otUNFr7IgKhn2xRh8e8ModYulkuFUg6ooNwNew/Nz/JvhL5fr7XLFLqVtmi3u1WkTS+sSqcavklOWG7U6K6bNUVhWotp2iROXhCuEr3a/W4G2hZTbBRW9K4RKRmmhRnQxRm6uY7oN/HzcraDWxn6h+XCnIy9Ne8ZinImO2+bpTHwznZO68ttuviN2ucpxZ3kBzF6rWGOKh6jkCjXqpjuP+auUpjLMeQ3NPEZ5d/NYikbjUtro2aKe/3FLy30hjjjr1f7ZsMU4is7+Ob9rzfRjLc0xlhPF8uTftHybqlLdb7PvtJEaspHbTZjlg2mPyDInS8flppzdZhzXS5xlal0WRd8CZucybhHYYnQ7y5T9let6yrn+LPZXOUfc67Ph3q/UVYs77LR9pZzsb7dTlGpR0buCsAarnJFdCDa+Uqx/uW3VwrTlcnKjEJfNZqfW3c6dj9nyUhpuoc457szjzJXfcnG5qeQ/X2waGE0+zyVF6sKcubQ9jqvkX+rc4WZzErgq55E4KzknjF2/PWDtcA+fM7+rdAbWDVmUOnNWpDE5p2O4W+JMbSj/JxkodbJLWX/jZLPNed40Qh1XLI2ic1/Xs7lqKbcvncWuu/0Wi/s41lnK+bvtkNsuuZ3D9H2LrrC18LsSjKYY30znPjeVzg9dcXsxjFjqqhz/zLpUjBnOta2UYhkslGL6Hbc6sed3WnmWlvccv3nRutd5AU8NIzZO/hNn/Rbiag1zwT+K3Gwui4y0X6zLsr7a7SXtGbriNVFkKusFJwHKutJw83Ll/grbvFK+XrnP+sTJHddxxs9xxTgqxMM/9zFs+BInBWbcVLgyfzx2uX1nOHc4+2fWXb/df9zGvIhzQilKeW6fFqey5EzdJAtuOZFOpxGLxRCPx5Zd2hSlWmYTIsrCsI2luVwl3NtmC1cr5kqPoijzp9r2y1zblwuldoJpTiQS0gaKI5PJ1NyOUPQz7rnKxh53NucOpyi1REWvUjOskaLRC4VC6OjoQG9vLzZs2DCn6+zsnLqZlLrF0tLSgnXr1mHjxo1Yv349fD5fYYuiKAul+gYJr+FauWJvSlNTk7merQuHw7K9PNzmDst954u1b6XOblOWKVNdRk79mfZ7ylXyL+OUeeG+TpYC09srzt37uxAHr/wnztqX+vp69PT0YM2aNcaxTVPaHunu7sbmzZuNTWE7g/m0+1dytwq2e5gftoUaGxsLvrUhGAya9t6OHTvMMhAIFLYoyvLC98QTT3ypsL6iGR4exsjICPr6+nDu3Dn4/f4lb4jcKgN2Kw1nNfCJ35YtW/D444/jgx/8IO65555Z3fbt242RPHPmTCGG2sBh1f39/bj//vvxoQ99CI888ogx+mfPnjM9v7WjtufjtqtXsxw2mUwiEolg9+7d6F3fi87uLtQ31Jvre7nDOsb6Nzw0hCtXr2BIlkx3rYuZQ4irYSnsYXUN2tnSV27b7Plh+U1OTpo68YlPfAIPPPAA7rrrLtOQ432AZc5GmGkJF2BD79Of/rTYgIdx7733orm5BWNjY7h8+bIJW4uyWer7Ta2ofTrnrn9LUTa0V4x3rrinXR8maKX0zp0PgyikickJ80D3jjvuMA9su0T88B623OsA74nRaBR9/QMYGBjAjRs3TO/cbJRmaT55dIddsrKRaKs8c1XB9guNzN13323sC9sPFLenT582bUye50g4gg9/5MP4wPs/YOwP68D169eNXTL7LyN4zr1er2n7/PzP/zwefvhhdHV1YWJiQtpCZ0XMhxd1blgmfCjwgQ98AB//+MdM24+2dXx83Bz7prFE1Ws5Uu580R5yNON9992HTZs2ob29DW1tbYWtikV7epUlgTcJ3gw+9rGPTblPfepTpuFZ6iiM+YTQwguXBpOOhpnCp9KNhEaVN20a2dHRUTN8x4blkjd2poUC/Cd+4ifw4Q9/GOFwyGwnmUzG3KisY4OAcSiKUj1L1qCtAK9T9ii8//3vn7IjH//4x83N3t3Q4rXMhya7du2SBuzH8ZnPfBqf/exn8Nhj7zF2gTbGPuxJpVImXuvKNdhoa2iT3EKBx6DtcPvxgQf9GD/jrfRAiftYW8fwpeH428ZDO+j2o+2in93XbSMZho754DamQVGU6uHIsI985CNiMz5jHpjTxrGNQdF7/wP346d/6qeN3XnwwQeNLaJd4DXIa5LXHZe8Bu2QYrpK16G9VhlHqX2x2LYK43C3cXgctn+4j9tmcZ1xchvDtLe345Of/CR+8id/0tjNtWvXmgexNi4bj3XpTOWOAdo3lgUd21i0sWzvfepTnzbx0w47Dx6LMC0MzyWPSbtl22ylsKyZX6bDlonaMKUWqOhVlgQaNj5Fvnjx4pSjH407jTGNN5+MXrt2zfTO0wBaaASd92/jZp0GkgawtBFKfzr62xuNNeB2mxsOT+ITTq+3OLyZYXgMGnE6xsMlja5tOCrK7czNFrTzgT0YbFzRcYjh1q1bzTVOeyFNSdNoYi8Mezd6erpnfbUhm3VEJO0JHeN2/It2hw0v2iXGz8Yvj0sb4rYb3Ea7wbC0LfRjGGtLuLS2idsZH/dneI4E4DZ7TK5bW8j9eDyGYXjmhX7cxmNzG9NMPx6T2+nPeOmnr3UoyuLgtU2x+Gtf/CK2bdtm/A4dOoQf/vCHOHbs2NS1zuvOsUEOvP54TdPPbU8s3E5bwGuVjnHwemZ4rvPa5bXN655LHof7WFvB9hPX7fVv1xne2oe5YFi2yxiejpNfEabBfTzCJdtbdNYOEh6zubnZ+BGG47H5m/lieB6H8dmHdYzX7k/s8bw+rwnPcuGSaXKXqaIsBB3evAh4sd4KbtVxK1GaHho6Pv07evQoXnnlFTz33HPG8ckph8HwPD3zzDP4b//tv+Hv/u7v8OMf/9jcOOzN4H3ve595gsre4UcffdS8K3Pq1CljIOvq6kwYQkPIhu5HP/pRM2yHSw45YzgKbhpZNnofe+wxM/yRT2PZgPz+939gloTp4ZNc9gAzHIdb83gU49WXc23Px21Xr2Y5LG+QOrx5dqod3nzrqG36WH689vfs2WPErH0/l7aBjaKrV6/i4MGDqK9vNNf5e97zHtPD29LSbMKRK1eu4PDhIzh58qTZn401jjahzaEd4T7BYMA8mKMt4/t9hD0kdHyPj/cX9hbTdjA8h5IxXtoc/v7pn/5p01PU2tpqjkPYeGUaaaPY0GNcHAHDYzIvjJPDKJk/5od1n7aQr2fQtvHdZNos9tgwXg4lZBy0XTw+e07YOOR+tLcMx14q9vKwLOhqf1+c+/wuxb2Y9orxzhV3za+PvA5vrpabUh41PoQVdjy3bA/wmmNZsQ2zc+dO/ON//I/x0EMPyWE9OHDgAL75zW+adg5tAYUwrzc6Pnyjzacd4G9u4/XPtgyvT3fZ8PfnfvJz+OhHPmquZ45M4f3jyJEj5p7Bdg7Twm133nmnsTGDg0PGRtBu0AbxtQ3GSZvF80wbxPDcj9c/80V7xGPxvDNutrtaW9uM/eMx7Wg87sfXRWjP6Chkeb3xfky7xbL5R//oH5kRdLRHfBBAe0N7RFgeFy5cMO1ytqVYXrStPD4fTFLIsp1Hu2dH+Q0ODpolXzlh2TFPn/r0p0xaGIa27dKlS5XfR74JVW25UO664vmhfdfhzbOjoncR3HbipApsQ8Q+4eNFyJss/WmE2VDgTfbEiRP47ne/a4wft9GQ0hj+4i/+ojG8fI+GNxgaO75bw3fyuB8Nun2K+NnPftYYXg6PpsGmweWSjWEKVzY0WS943HKi973vfS8+//nPm3dRKKp4PC7paMBpYJk+exOsTG3Px21Xr2Y5rIreuVlIo36+55rX9MLtaW0zzKS7RS8bQSxrNtzoWM6vvfa6iNlGaYytk4bWh02j011nrOjlPAKcU4ANPdoT2gTaATZQaTPYeOD1/+6775p6+Eu/9Eum8cbtnICPjTbaKtod2iraIDZK+SCNDT360bFBzMYc6wPjYQP1V37lV4wo5fBIa+vYYOG7d8wDbSTP06/92q8ZUctj8jqwDVwKZzY4ad84tJA28vXXXzeNagp5pvOnfuqnTJyEeWWcbCiznGrH3Od3Ke7FLJtq6qWK3iIqeuemkuhlm4HXGtsbHDV25fIV/Pmf/zneeecd8yCLD9lpDyjs3Nc+/WgTaE94/VKAHj582ByHYpLX8he+8AV85MMfMeFoC8yx770HmzZuMu1ZPnT70Ac/hM989jMmDraD+HCM1/Jv/MZvGLvF+JkGXv88rxTnFJZsV/E+yp5o2jnuY0XvYXHr5b76uc99ztgKxkNbRlvDtLAdxDpDcU/BTvHNcGw3Md0MyyVtIW0O7Ryh6OU+tLkM+8UvftHYYOaL+9AxXSwn2kwKWnZ+NDY2iE38FH75l3/Z2MY799xpytDux/JieZAZ97DlfenVlHLXFctDRe/c6PBmpebwgqSjUefNgEaz1EDZC5TbCJ/s0cjxhkKjT2NJQ8iGBHtV+L4ebyZs2HFYDA0o/djopZjlTYmOFzkboWwY0uDz5uSGaRoZGTaGlk8p2eBkw5HimMaU6aVx5dNFNjSZDzsEp5JTlJXEYuqsvbaXE841PWIa73zYRRG7efMmc93yWmajyev1iJAcnmrQsghYDrQPvNbZk8rGGxtVFKZ0tEncRrvEhibtDu0Vj8FGIRsXbMCyMcgGH+0W7RcFL+0Q429oaDBhOSEOG6UU6Iz3Z37mZ8wxGa+1dUwLw/KhH8PbHhHGRRvFfDA8fzOsfahIaBf5EICNHTbS+RCR6WFjlOllPDwGBfdyO3+KspzhAyKKTrYn2F7gNU3R+Pd///c4fvy4CMqUsQEUnLQfvFZ5PdIOsZ1Cm8PtfDhCG0PhyQf59GPbhtc7xSavXV6nbItwGwUf5yGhTeF1OyztFj5oofBk+4UCk3EyLl7n9Gd8FKr0p1BknNyXopfpK7X9YbEjVqjbUW7sOKJjHOwQ4MNACmDaP9oftosYtxW4tDfs6eXx3bBdxvz/wi/8gtmf8fH4tleZ6Wb6+JCvsanRpO/ee+8zeWZZMzx7tJkWjmrhqD+WHY9P287w0yjYdLOiKBVQ0assGncjyq7bxnG5BlapH5880ojTuNMA0ui/+OKL+Ju/+Rt873vfM401Glj2ZtBQ0mhS1LJRx5sDe3T/9m//1oTnE1Q2Bm3vDQ2n7eHhzYcNYw4LorFlo5I3MIZnT87zzz9vhjDt37/fDJFkA5VptcJcURSH0mu4tDF1M+F1zaFxFKpc57XNhhHtBBtnvb0bpPE0jlOnTpsGai7nPKyiMGRjjcKW9ocNTg73e+qpp/D973/fPASjDaDdoUBlo4+NMNurTLvA0SrsoWBY2qKOjnZTNrRffIXD+rOxSnvDtLHBx0YdxS/TTJtD28W4+OCONtA+dGM6bdkyHvYAP/nkk/j6179u7BRfIWGPD9PDtDK/bHCzoctGKPdhnAzD3iE2yhl2tVPuvqMoC4HXCx9u8aEVr2M+GKe94TXOXnNOjMlrlLbHbQcpNDmXCcUxez55/dHmUJTygRnbJnyQxd5OXq8cWfaDJ3+Ar3zlK8Z20B7xWuaIjcbGJmObaH94DPpzX4pcPgSz1zTTyXYRt9G+8HhMK4cYc919XfDBGW0EH+oxfEps45HDR4w9o405f/68sSlMH9tSDM/2F49JwcnRMt/+9rfxta99zbSf3O0sbqcQZ8fC7jucB3u0hU8//TS+853vmF5m5plpYn6ymayJn3aR5UwhTZtFO8w2IO0c4+WDPT5UpF3jb4sjdVXsKnOjolepCTSmbkcjTMPkNrLEbrew4UhDTaPLJ6Q0jmzMfetb38Lv//7v47d/+7fNuyG8gdCI80kjjS7DU7CyQccbyp/8yZ/gj/7oj4zBtu+gsMeXPSf2fTw2VnnT4IQ17psT08O08gbG4YFf/vKXzY3q1VdfNfngMElFUWbC68h9Ld0KeHzO7snPb1AUUjRSpPLapwh0RoIMmuF2k5NRabQ6I0/YO2uH8LEBxuHHb7/9thkCzHeC2QhljwJtCcOxIcdwdHx4xobeb/3Wb+HP/uzPTIOU9iWTSeO11141fn/1V39lbJmFDTmmyfao0La89tprRvD+3u/9nomLD/AYN8U4RTIb2Bbmcd++ffid3/kd/Mf/+B/xwgsvmHSyQchjM08U1WzIMs20lzwGH+AxbxTttxOl9x7LfP2V2xteQ2yjUFzyGmY9oVhj7yO3sQ3Da6+055HX3Ve/+lXTLqHQo4jjdcrwdgQIr1e2T3htU+h+9a+/it+Tds9fifDl/lkRdtulrVNXFzH2jW0h2oTOrk7TFmIcPDYFMuPldc8HeHzoz7YU/ewoOApYOzkVof2zva3seLh2/RoOHDxgbBA7D9iOoi1iPtnDzeMxXpYDbQlt0f/7//6/+M//+T+b95qZNqaF6WNbimnhiBuOsmG+aetoE9muo33kA7983pmIi/swDXwgyLkXJib4kPIU3njjDWO3KZKZB6aFDwwoqHkueDw6+a+QK0WZHRW9yi2Fw4RotNhQtXA4C6EI5tM8GjveUHijYI8vG3O8CfHGw0Yubw4WDnNkQ5VQyDJeGkcLbwRs5HIfux+3c0jNE088Ydyv/uqvmqeN1bzvpCjK8oCNQvvOP+0Ee0h4/dO+cPQIG3K8ntnIImxssueGdoJQ2P7mb/4m/uAPfh9/+Zd/aXpA2MBzwwYvHR/CsdHGuEp7eCwMU2o/2PCk7bLQBrHBR5vGuNgrU9p4dsPGJBujbNiyAch1CnXTQJb9KabZOGXDkGXAvLExykYxxb8yOyp8lUqwbUFxyh5JPnj/J//0nxihxpFo5eCrB7RHfIBFO8B93dC20B4QXrt8MEUhymuY+9prOiBtFj5o47XMNNDeNNQ3mHjZRqKg5IMvClG2ZWhLKGTZ1mHa2MNKG1AK82EfjBE+IPyn//SfGvv3F3/xF+YVC9oYwrhoV2x6aU+YN6aP8Ni0XfaBANPE9NbV1SOZSJl0UMTSJjIvfA/aadc5s0qzHNkuo22k/Wa+fv7nf25qBB/fT+ZDQML0spec6VeU+aKiV6k582k42CEq1vAS68d42Ji0jUr+pmNYG57bbHjCcO4GqDtewt80rHx6+Md//Mf4wz/8Q/PEko1Hxs0bCZ9+sqeIE8jQGHNopI23nFOUlcBqr6scpbF3714jDNkDwnf+KfQ4tI+9F2yYsUHFBhyh2GTjzMJGHHtOjxw5ahqRbJi9+eabeOutt0zvLwU07YFjh4rlWbRB08uXjT/3AzdibZjFbdtom9jIZBorwbDchw1Kuw/zxXQzL2wscjgi3x0kbFi+9NJLJv+ltlApj/v8KAqvN15H/NLEP/zDPxgxSsHFd245qRPFGh+AlYPXq73uHBtRhP7uusawtE1B2qjCgzjxNPtRDNOe2BElFKsc7cYeTz4kY48o3y9mfBSHdl4UPuzjiBXbkeCGYT0epsH5zYf8fDD47rvHzKRXtClsG3G0ip1Uz6bX2iELf9MRa5/4mzaWs+BztJy1WYT+TnhnH/rb8qDjA4IrV64awc58Md98uEcbzxF4TCsFtD2uPbaizIXeBZWbijVqFj7VJO6npRyex6eBNIxsvPKJKBuCfLrImw+fWnKYMrfziR97ayy8AbGHg9sYJ2csZSPYQuPI9/oYjsfhDYNDZ/7X//pf+E//6T/hRz/6kTHabODad21m63lRlNsZez2XulsBR31QuHKkB0eFrFu33ohU2guKWNoQ9kzQ0Q7QntjeFLs/h+D9wR/8gXFcZ+8L/SksaQsYB4frufNJe1Gu0cVGHBt6btiYY3wWDhek0OX+zvvHveY4bNDZSapmg/nj8a3ote8JsieYNpAN3ttxaPNiuVV1WFl+8PriNcsHanzXla9T8XriSBHOLcIZnW2P6HygLbAjQShQ7TVLm8GH7+0cmSH1kO2P8Ylx8wUACkBe53yYxjYKw9GOcT4S9qRyGx/qMy7Gyd5Xpp32pBSnN/mKHNOxfxTItHlsC9FxnfaR/lY82/Qy77Y3me0ztqf4wI2wvGj7GJZtMK/XJzatbup9YIbjxFlMu+2tZfrYtqPtZhmwzUaxzc9a/u7v/q5pl3F4OPPDBwyMm8dRlPmiole5pfAJJg0jjTlvJDRkHEbDd0g4o+HP/dzPmYYgn3LS2PGJIyeHoAGkYeQTT4blUETOgsjZAil6aRTZ2GOD1914ZOOSvzn8j+F5w6LR5o2BNw33kB0adPuUVlGU6rlVooE9AJyARVJgrl82CGlb7MQpvP6tQGUDi/aEozwYjg05imXaDjqus2FJ+8B96OfsyxEoxTy64ywsKsJjUYDT5tHWsUeWk71wEj9+a5wNQgprNu7Y4JwL+3CQvSCMk41I+woIG8DsuWGDkvZTUf7/7J0HnGRHde5PT46b82oVdxV2lSVAEkJC5JyEMBkExmBsDI5gY2GMzcMB/Px7z/CMeWCC4ZFMEiBABIEEkpBAOexKu9KuNuedHHq6X/2r+8zU3L2du2e6Z843e/berlv5Vp06X1Xdew2lg35K30e3sPLJi+c8wXT9DhLHC+d0Z0UpQBdAJLF76J8XXHiht2XQBbw1eY3TBc3O/sAfaR8+dNjrK7Y40+eZ8EL4zcos/rCJiAsSju2iE17oiSjwSznYCYOOUP2HO8L5ipUrfFykh190EvYT13gchN00PBqGDgsXH8gDNhUrtdQdecHW4k3QrI7zuTYm6HRSEGKPzkN3E39ra5u/xuIGAsnHPzt3OFdybDCUCrPoDTMKjMPoDB2KmVlUtrCgoFGefKftgx/8oLztbW/zBhxKkRfHsC2Z8L/4xS88+SU+3q76sY99zL8MhkEDY5TtPLoVKA74QYlCflHaf//3fy8f/ehHPclm9Zl8YCyjgKOrNQbDbEHJVQjackgylYRFRRH6LQW54suFaL5mAmzjZasfJJbJKyWZ+hZljLG2tsxkFoYdRiRvYcUfqxU8z8/LWRDO+UwGxJdVGV6ugnGI/tHyE4+WEafMm6H9T+8nquvQWTfffItfxUDH8BZWvmOJ/rn22mt9/kiLfOnqdFiHnIcTcZSJcrDSqwYjxiuTibizKoVxiJFqKA0z3XYN9Q8IJnYFK6t9jozRv5mk523rPO9arG4EvIOARyewa9BVZ55xhrznPe+RD3zgA3L11Vf7+OjD2Dp79+yVHvebyf5HXTjcAUcm9unjLAow8aXADTKMGxN33i14iSc6EtJN/Og/tbuwpRDOn/ykJ3viC/HEpsL+2rY1851cVno/8pGPyPvf/36/QMEkI6DfQMbJD+Ujz5BUXmr16le/Wt75znd6Ow1dGhJXft9yy82uPNudvuqW5z73OX7F+cMf/rC84x3v8KvD5JG6yrV6bTAUgpFew4wCRasKW4FCRimiaFHADCy4sf2FQYXfPJd2/fXXeyLKWwF5KyIvOcB4RPkxA4hwjp/vf//7/gUI0bQASllfna+v2sfg1ZfDoFCZzf3EJz7hw+sWbINhrmCuGvTs1EAn3Hffvb7v6pY4VgcgiEyeDQ+P+skw6gADED3C9jkIKcYaj1QgnOPGW5LRP4sXL/FxYkRieBEewzQkplEjjlWOKLZufdS/wZTtg8SFPmMCjjhZSUF38UkiDEz97JACwktZwvuHG4KByTZEgJ7VyUR1MxgMlQFbgH79+c9/3vdPJqjou0yOsXOMa7km2uPAyjF9XYkvW5OZCGPiCt2jn+zhMS2e9UVfbX74YZ8u0Aky9I6uxALiYrswE2es5KIvsKVwI4+KwcEhbyfx1QsIMDoPOwjhHLebfnaTnxjEHoPsf/Nb35ycRFy+LPNCKSYb0T9qr5HGsWNH/TsR2J7Mc7iQWYgwfrHl0NX6IiswODAon/rU//Vfz7jzjjtdWcUTZV4qyiQepJs3XH/yk5/0dhr5MxhKRcIZAcVNS9U5MG6YOWMWjo4RNQxAMTNw+FF/hfxHZ/FzoVA8xeQrRLXSVeTzF3et1PziHwWJIYmBx6CAYoSc4g7p1HuFX7YKMaOHMsVIZSaT+0sYgJGJUiUs2wF5ho1ZR4CBxyBAW0DxY/yhNPUV9xitt99+h3cnLVaRWSmGMBMfgwgrJrzEJmw/0baUQWZVJ5GovJ5DzOT9DVFsunEoNS/T/Kdi3LJghpkJkFe84hVy6VMulY3nbPIzz/osUL2CsrDqdv9998sjzhi57fbbZLM70ga1msPSxpW9WDdnzmTPMojzE4dc/qLuxcaXC+l05nGBOMTFXSg96g+9wNZCXtiCPmDSjNVOJqwgokxi9fYu9PqAVQyus+0X3YJBicGFTsEIo9/Tv4mPVRuMWICBiI7KbJfOrKqSHvEA9BGGL/nFSCQ85/jHWCROXiqDfgHkD+OVdkE7wC/vDUB3sf2QMrEdWZ9bYyUYYw8/HOmflAVSTxkhuug4iDPlfNOb3uTfvoo+xNDFsGQlBuOQMividZliaqUa5LoXGWe9drzeiIYjzbi4inWLA2Un3nzlIa5o/wDFpgGiftOphP+8y2WXXuZ3BtFmzj73HH8Pw1X4egTjJuTh3vsekAcd0aJNFpoUiY5vYX0fVzeR39F7w/W4uo9zi0NsWJdEMeGL9ZMcT3Li+zQ2C/0evcIjEvRJ7nHKtb31p633BJX7Tp9GX6CLGK/o39Trgw88KOPJce+OLkBHYP+gV+jLnLO7A//sOoNYcs64BznEliF8S3OL7//cP/QFfRydQH7QY0xw0c/VFqIc2DqQavQUcXKdLcnoAvJLGIhyR0eXG4JTcsrJp/jv4GILAfQQZPyxxx+T5qbpu93QgWxXZgcJBJg2xZhMnWFDkXfKwCQBnyGi7Nhk5BXdS52ys+5c128OHjzkiT87+1avXuXqI/P9YN5xQHz49XX54INef+rE4nFtK7camIZ87aCYNgLKiaPYuPNB46Ds0fjQh9wz3nTN9vgNG5i8zbzx2jAFI70R4Ef9FfJfLXJSTL5CzCQpirtWan4VoUFAHDojyn1CKBcGHLOdGHWQYRQcbihSfnNfFRiyKEQUK0KckFk6Pgpft/Sh7Bl0AH4GBzOfLUHxAxQ4fskDgwqDBIMcBJ08Z5pRvEYlPiO9pedlmn8jvbFlL9at2qQXhNeKjS8Xqk16M5czn8YI2wH1rQYRSCQyZJa+TpzoAPxzpJ/rM7pcp51xb1T3AHQOegCdgoGJriE8cRIO3UCa6DF0k+aFuLmOP9zQIwA9xjVAmhhy6B50F3ki7xiPXFOQBkaq6k6uEQd54Zw6IA4m9ni2EIKNEY6B/oUvfMGv0OBX9R8gX7lhpDeKqF8jvVP1fVzdRH5H7w3X4+o+zi0OsWFdEsWEL9bPBC92ckf0Af0XN/o4dRf2TaoFP/SvOOAX3aFtP4wP20XHW+JGjzDZhu4hPsJhh+BP3fBHnOga7BXVGWrHANWJvhzOL9fCPGML6T3BPbMTpWlS/0F4Q/2HLUVeVIcBbCvigJiSFvnED/lBVxEnwjmTjDzDi/6EQEP20YNr166RN73pzY7kr3bEfrPXVbw8kEkBwlJGVnPRx/Qp0mRSgfJo/o5rW9N/5gR1kwv5roUoJ45i484HjUPbVAjup5HewjDSGwF+1F8h/9UiJ8XkK8RMkqK4a6XmV0GnjIbVe6RHrqtoObmmEkLjynWMA5d4TX/mPLe/YkEcRnpLz8s0/3Oe9D7iSS+z6u1OL/Hcp0LP4sperFstSW+xceVGvJGLu/9/2qU4t+MRXs+Vv4z79Odf6fcYiRE14u8H/vOVFd1DXPQRBL9q7IZ6LdRTUX0FwnT0PPwdhzAezjEIAYYmO1X082qQZ/LItkgez+ATK6wERft1XL6mQH6ypx7R31OYyu/xeiNaFtKMK1+xbnGg3ok3V3k0HpeyP4YoNg0wza875aeR3gyi9Rj9Hb03XI+r+zi3OMSGJQnizfzMiYJpuMs+f0F/yZdXX7LCUWb85QBxaR1xrvoF0JbQMVzHjfbOEXckrt1r3sKjnucG8cTnsnDY6cA/OpZ8QsCZhHvXu97l31LPWA5xTSZ5w3TmcTS2QN9444/lq1/9qt8KzQQeZQvTjStnLAJv+XKdt0zuWlElzuXPOeaKodS6jEU2XepE46PYnLH74MCBg/LWt2ZI73ojvbGobw1taEjQGeNElXUoCvUD6NBcw7hDUPz8xj0UddO41B/H3DIVJu66xqWiaeVCvmsGQ2ZIcoJl5iThLbQpZK9WJPWKTJ/m7Phcp109IIXc4mUK2j/jhTxAUDMyMcFzvGRouqguUH0T6p1QLwDiVb+aThhW/Ya6Iyp6XePWsKyUFBL8KdSwZNWHumbbIFsN+ZYlzyFDfpPBynd5mF7fIShLvULHEg/aVLUkT30YZgfapTlWJMSFBP1U+6hK6NbkJIE9kU+aMu1F44wTBefEr/qAc9pxSILRAaQdhotDGL8K4aOSuabH4iQfuE4emZRmdZZnivm2MduSWalmNXvNmrU+bR5b+9GPbvTPLLMKzKNq6LNoeipNyHF5D+ov+0c/jb2/RUix7SinP/IR514liUtX3fzRHTiC/Hdq/sJIr2FWESqteoYq2KgYDHMZlbTxuLAZIpwdlQPEuRnyg5VFtl/z4ive/sybTv/8z//cv8We7c1sKcQ4NBgMxaEWY3u14qpmnmYCbG9mpwkvnnr729/u38LMS6p4CSkv8vubv/kb/xwvn1tjKzNkmTIq4S8W1b5fhrkNGxEN8w6mIA2GeMSR0mr1FyO21QX3hTpleyovrOENqaz2AlZaTM9VB1aPhkYG7Xc22jBpsnLLM7g8isGb5NnG/KUvfcm/LZpdKTxjzORcmD/dxl0I1i8N5cBIr8FgMBjyop4MDPJiBk8GkF4MRN78jHDOIxxsgZzPqHb7sPZmMJQOVmx1yzL6iRdz8YIsSHAymfSTc1wPUYp+t15pKBVGeg0Gg8FQcCXWDP/6gt4vDEuMR7Y7Z8iuTQqAateB1anBUD7QT6z6IryHgG3McX1Kn9c1GGoBI70Gg8EwD4FhAXFSKQZmjBjmM6z9Gwy1RbFjkcFQDoz0GgwGg6FomOFvMBgMhlpAn+m1ccZQCxjpNRgMBkNJyGWQhCvH4Yy9zd7PDML7wnmcGAwGQ73Cfw4q+/Zm01eGasNIr8FgMBgMBoPBYJhV2ASpoZYw0mswGAxzCMXOjteTcWEz+tWD1aXBYGhU6LikeoyjPze9ZqgCjPQaDAbDPAJGRTUIb5RcVRqnkbV46P2KShRh/VldGgyGekacTkPQXXFiMFQDRnoNBoPBUBaKMUYwZIqFGTeVIaw/NRajYjAYDPUK01GGWsJIr8FgMMwD6Ex6tVBsfGbEGAwGg6FY6JhhY4eh2jDSazAYDAaDYd7AjGmDob5hfdRQCxjpNRgMBkPdwIwdg8FgMBgM1YaRXoPBYJjjqOa2ZhAXXzXJqhFfg8FgMBgM1YSRXoPBYDBUBZDVUBTlkNhywhgMBoPBYDDEwUivYV6hkCGtxrr6C3+HoghODYa6RdhmQ0TbdS5/URTrL0Qp8SvyhSknvlpA81Ev+TFMId/9sHtlqDUKtTHVGeov/B0nBoOhMhjpNRgqgg1EBkOtYQafwWAwGAyGSmCkt0xU6xm5aj9rV++IM14rMWijYWfKOJ6eDufVEhDnXlvJNMP4a/UlhuMRV0/1KiDOvbAkEgxXUXdQjFs+iUe1dRWYLX1VPMopM9dDAcW4lS/oq0y+KpNqxDH3ka+80Wu5pXZjDIhzr75E20tR7acqbawWAvQYj7i+H+dWT5iJ7OWqg/lmzzcijPRWABp+JQqgnA5CmErTnW3E5V/d4qQQov7CsFEpdB1RhOdx0OsY4/EGeemSTpMHja86cRYr1SxHbcQQj+PrSu9leE+jbuoelTh/USnWn8pU/JW1r+lxIXHxxacRzZNKPuTSC3Huiuj1UMLriujv2UZcftQtXqbXNzos/J3LrXLR+xd3rVg5vj0Ukvh45jKml5V7qRK9lktCwpu7DgtLXNjatK1cEm0H09tGVPCTKMKP9xec55K4cOWLxpEf2s9DTO//06UeEJcvJLxWKaJxGOFtDNDqDYZ5g2KUXagU9TwqivDcYKhX5GqnYZtWKQbF+psPKKf+DAbD3Ecx+iDUG3qeSwwGQ2Uw0mswGAwGg8FgMMwjGJE2zDcY6TUYDAaDwWAwGOYQjNQaDNNhpNdgMBgMBoPBYDAYDHMWRnoNBoPBYDAYDAaDwTBnYaTXYDAYDAaDwWAwGAxzFnOC9PKq8LjXhat7uWIwGAzVhumaBgCfQUkzPDZJ2kvmt/88SgW3iyfsEi58KJkIU1WU/PElXKK5ZHrYUvJVbhniwhUXVya/8demSzH+8DMd1k8bA+HbjaNSS8Slp9JIyJX/uPZfjBjqBZWNVXMVttJbAHGdGjHMIOi7iSaZSLRJMtEpSel20uukRyak092PdictzuNUc467ZxnJejAY6ghxbdUwm1DDzx8cEp4HA0cPnUCEW7z+yeijnuyx07l1OGl1VKo549ffT0es0hMutCNrWCLun+dsDpNcs2qoJLIwbCnxlJtmXLhK8h+HYuKb8mP9z9DYyOinlNNBEwmnixKqnxCnn5wdlXa6SXVcHELyWyq0/xQSg2E2MGdILx20ra1NOjs7pbu7O+taGqId0Trm7IM7gKk47pT0uHTJWGKZJFtPcHKiTLSc4BT4chlPO/KbgviyEsN905n7Wgooxq0RBcS5V1NAeB4P+mBTU5P09PRIa2urP28UkFfy3NrmJJv3VAry4y5GJQ7F+isGxYatJI0ogrgmzadqxg/i4isljRLzkyG8CUmlnT5Kd8ioLJZky1qZQB+1rnOy2umohTLO5FzCGZ0Yn77waLEJR3Dd0eknT3wRP8aoRBBeyiv8NwVnrrq/TJ3HST7kChuLINlJP9OzUhu4NDS9MI+5JPNfMcAYzz920H8nJiakva1dOrs6pb293dsdjaSXEi6vbU4ndXV1SXMz5Cc/6s0OKoWMlUvcKsW0dDlVyYfQX4z4u8C5tsfgXP/UX0paZMzppzFZ6PTTKploW+ftpvHmZd5eSoqzlxLNmXz6ePgvEOfubSn3y0t4XkCOiyuHxIWdJvwX+IuGz1w73i2X5IqjXCklvlLymVd8u4qX5uYWWbp0mbOVeqWttW3W2n69Y06QXpSyEt7FixfL6tWrvTuDE4OUCv7yCYj+zoVi/RnKhzcuE02O7LbIeFO3jLeukFTnqZLoOVsS3edIU/fZIu0bZKJ5jTMnnaE54YzMtCoj/o8T978zbIqR48OGEne92mS72vEVKzORbphGbjS3NEtPb4/v0z0LeryR1gjKnDy2uEEIw7Knu0cWLFggHR0dWdLryhwRVvuiUqy/ooQ8xblHpVh/xUgQF7c56lYViYuvlDRy+FVwPfO/0yvOPeX0y0S6xRmNHZJsWuoMyZMk3XlmRid5vXSmpDqYlFvqiG+Xn6xL+/bKvePe0+4zxDeTELrGHbPpThN3Nbz3ueX4cBnymuMv6j+UmLAscef0mz2v2f2NE82jPy/yz92DOAkR1fnR8QBJpZKSTCZl2bJlsmrlalm4cKHv4y0tLQ1BfClzS0ur10crVqzwNhNuoT0TFRDnHidRxLnH+SsVue5hHEK/Gf/5w0T955JCmPSXFd+q3GkuUX9x4mvMnfpz1/C9oDvCc/+/0yiJFplo6pRk8xJPdtOdG7L6aaM7P1UmWlc53bXA+Wt38bU4ce02IgxTKZcoj3N4cYlPnhcS/BYjcWFDifoLw5Yh0J049+lSjJ+MFBdfRlylxrqXKp6ycX+yDSLB/XLHlHNANmw4XZYvXyHdzuZob29z9VZ5X5troMbmBBh4mHVlRWj9+vV+EAKqdIsVQ/0gs6W5U0YTS0Wcsu5efoEsWvNk6Vp6vpMLpHPphdK76imyYOWTJNG1XobTi2Q83eUUv27fiQPDgqFRsMIp8NO9Il/uDUyMtEZZVcHgYUVl0aKFcsIJJ3gxNB4SjA3u6A0LaZexxCIZa1knzQs3eX2EXupYcq6Tc6Rz2bmyeO2TpHPxWc64XCEjKbYTtme2FCbY7uz0GpLw5qmTmYca43HSSJjN/J511lly+ukbZMHCBdLm7I5GqTt0JzoUXbpo0SIvTMY1MsL2G5VaIi49ldkANs8Eu+GaFjv9tEa6VpwvC9ZcLN0rL5SOpec63XSeLFj1JOldfbEzmE+VwQlnL0lP1l6ayjN2MAtGZhvXL7SN6X0ZHh6Wvfv2yrp16/xOV3aXNXq/rhWar7vuug9mzxsW3Hi2D9JRx8bG/GrQ/v37ZWRkxLuVAuvg9YOUMxTHm5ZKuutcaVt8sbR0nS7p5tXOYFzmZJGTxTLRtERSzUulqZ3faRkfH5V0akyaEmwlTGZjiqIxDJR5g3T8/Th46KAnvFdddZWsWLlCli1dmjUyG2TrjssiK9VDg0NeLw264xNPPJG9aKhnhPPr6pJKNzmDcqGk2tc7wnuRtC+6UKR1raTQUYmFThY46fHHppZeaWrGmExLMokuco0Bodk6PZWRbOyTvyPC1Tj3WkqYHz3PlY/QHUTdihENV8itEskXX3jNryhl3Rxy2QETEym59NJLZePGjV4vnXDCWj/h3gg6iTymXP5HRkfl2LFj3m4aGhqSQ4cOZX0cj4bQtTnQwFnPgxztMtHp9JOzjTrWS89yp5u6Nki6ZZ2zmZZL2hHhNKu7TtLNC51+WuBCtMvwkLOXm5LSnEg6m8npO1dhCJMj0fZvdnF9AtuCfnzWxrPk2c9+ttdHa9aulmXLljbMzriZxJwgvWwZpJMq6R11Cp1GgCIfHBzM+jI0Gth+k2xeIe1LnyKt3WdKomWVc3XK2hmWkuh20pU5NnU7Jd4pLS3OxEyNuIDD0pR2IuOZiI6DKYG6QoT00p8PHz4smzZukssuu0w2btrotxOyzVlnMRsF7DhBH42PjfvBh0EIveS3ORsaAs4MdGYm25oTMp5YLE09Z0mbI7zN7Se7i+gj1UWdznen89sliaZ2R3rZbZKUkeEBx6mSLgYnTMZlV3kLaqFZV1NZI1fJYRTT8qd+M4fiERd3tY3rfPEF1yJ6KIrx8XEZHRmVpzzlErnwwgvlxBNP9FuEl69Y5u2PRjAuyWMymfREd3R0xOsjyAx2EyQ4DmY01xvi2/NYqlOaOk+R9sVnu+MGN/isdkR3idNFve4mOt2ENHU5N/ST89vc7rrrhEyMHpRmcfaS10sZcM/1kUBD/YJ+m3b3ice/nnb50+TUU0+VVatXecKr7zZKNFn/DTFnVnoBHZVzlvrZwkODYKBCSl3xNcw+WOlNtiyXjiUXS6J1rXNBebe5oyM9/sjzKK3OVuHoCIU7pJNDkho76uSII74jvj3ES6bdVEOAHvOhGD/zBdMMqayxCTmkn/b29sqy5cvkGVc9Q8477zxZtXKVNyxR4rw8BkOtEUAZMYaT40m/OtTkBh9eMoF+opyIkd9GQIb08jxvqnWZtPSeIa09ZzoDcqnXP5nn4rLidFJa0E1N/n5LKiljI31OLx1x55BfdFLSiTMos0alO80cI5LyR65VW45PS8VdPd6tQBgkRPR3wyBCeikHfRW9xDtDlixZIieffLI84xnPcMdTMrtPnHHJI1WNRAwpF/pI7SUWCNCpw8OZnXFIeA/rtWxTeYxvkwiPJBzvnu13DSnkffo7avR8NNXldNPp0r7wHEk1r3HkdqEnt9N1FBPGCC9fa5GW5qSM9D8uzal+p5vGJ+PUeA0zA+pbj3o/OeaSiWRSBoeG/A6TtSecIOeee65ceOEFsnTpUlmzJvOuAX3E00jvdCQcMWzQEWoKNAJtNMxg7tq1S/bt2yf9/f2ybds22bx5sxw4cGCaoYl/VeYaVhH9XSnyxVdJWoXCFht3teIB1fTLJ0CGWzdI26qXOltyg7NJepyru2fZ72dmjBTEDdKs7qYOyVj//ZI89mtJDN8nbekD7loUGmb+oJh7EvVTyn0EpfpXECw9kXlD8+DQoLS2tMqmTZv8Ssppp50mq1atcop8iSfBPKPS3tHu/TYSBgcG/eruoYOH5PDhI14XbdmyRXbu3OlXV1h5Qcqtw2JRbPzVykcYT67zclAofKnxF4wPYWtzqklSXaeJLHiqSNeTnQrKvDBxGnxUTr84fZRIHZb06A6nk+51cru0pHdJMztQXHpNmqTXZc5/hHDVDD4ZXyJOYhF3r0qs0jpC/oxPK2vmNduTbtgJR44c8cYjz8qdd/55cvFFF8uKFU4nObK73OkkjEwm4hoJlGt0lB1xI7J//wE56PQS9tKuXTvl0Ue3ut8H/Q45bCVQbdIb19/i3HJh2j1z55RHwe9oXPo7Gq7WqHa6U/FR3uPLOSKrpGnx06R18RWSalor0tyavXfT758P5+5tYuKYJMYfkaE935K28cekRYazPuoL+eoscyn39SiiceWLuxBKjSt/OaZPNoS/kShwGx0Z8e8WuOiii/yjFstXLPfbmiG9XZ0ZncT9N9I7HQ1NerUxhI2Cc1Z2H3vsMTl69KifqeWIgcmRbZMQY/wxwwnwH1WchtkD9e/voyO9A02nSF/LlTKROFVS6a6sB+3EWYXul0pGnSIfkObUDulK3Sfd6Qcd6d2b8TYN2TCGugFfcWEVl5dVsWXwpJNO8u4rV630hJdZS4Q20dTcGNsIp8GpE4xIdM8BZ2T29w94HQThxcDE4OQdBGpkGuoDqofcP/88b1KaZCixRgaaz5ORpvOcGoqSXtUtjsimxkSSx5w+2uP00KPSmbhL2hKO9LKN0MXXlCVYRnrrA5nanz6ZxuQaeoctg+glVnpbnM3Q27vAbydcsnRxQ74shnuqK73Hjh2VAwcOeunr6/PXdu/e7d89gL6qR0y1yemkIDxXZH5n+rAi6qcWCPOkqEa6mTimr8BqvMOO6PbJ+TKYcLoJ0uuac9xQ6b27oSbh7KWW9DbpmbjZ2UyPO9I7lPEwh1H4FlR+j2YCrPBedOGFsnbtWr8zrrunW5YuWyInn3Si5zXTbKTseaOZTbXCnCO9CsguKyqs9g4MDHgDEzdWVKIzmNHwcfEZZh7JRI8cHFsrN9zWLEPjvPmWlV6g90ePbhDAyJwYlNNPbZfT1x6R1d1PGOmtc0z2X9cdMTDZQgj5XeKIbmdnhz/n7aIodf9ChqbZezNmpeDlMcMjw3L0yFFPgPv7+r1uYkshL9xj4s30Tr2C7c3Ogmxqk51HO+XeHb3y2L7ljqeuyV5X0DazJNbro2OytHdYzj6jWU5cvlO6m/c6w3Ik84isE/9yq6w+Yvt0LuR6pLZsBM/uxWGyXwbtcV60TXc/wlLyLDd6Bz3Uu6DXf3qMNzWzuoteasRdJwruJ1t/JyaSjuz2+wUB9FDmpVaHvY7i8bB6hI4B0aMi/B3XhmeiLVc73amyZmTqh//nMZRYK3dt7ZV7tnbLRHpVQdLb3jIuK5f2y2Ubj8iill1ON9n7bxoFtIeFPAbG4xVZ0suLPnmsM+1HE73x7mb7zxrFt4X5iDlFevVIg+AckoviRoGzosJ5IcVT6Lph5jCR6JBDw0vkk9/ol75hDEye6eX+hAKcBk+zsjIgT72wSy46IylrFh2RlvTR7PUorPfXC+hvTXx3zpFCtHKHMyT1cxpsK2RGEzIM/MDfwLfOvzXVGZaQXV6IM+D0EkYmE3G+WNYs6xQZ0ptItMiOg2n5xb0JuXsrb2rOQXppp570HpWTVyflhU9fJKsWHZD2pqPS7PRUhsTqzY4eY6BqrlooQHo1vXAsxJCai5iqdXePXbVQSu+WvdDc3OL0EMS3R7q6M9/jRT+hlxqV8AJurd7f8XG2Oo95PcR2bhYI+E1t1OP7EzLGe3DnMg6TCH9Pa8OTp9NXfmuHTCKV2pQaPmPXcszGO9laM79HE0vkl/cn5OZ7mqR/eHn22vS6AT4+Nxb1dI7L6ScOyQsudQSq/Yg0y0jWh6HeQVvgUbCVK1Z4wsvqLrtOMm1EH93MtAsjvdPRkKR3uiLLnEePIXgRBYqcFV6ux/lRRK/l82uoLdLSIoeH2uTjXz0mOw6slNEx3pCauZIRxYQzNceks6VPXnx5i1y8sUmWL+IzIaPZ64Z6BYYjylufY+HNzF2dXX51F8WdUd4BGlxxp1Npv42Q8o45Y3PEkV/IsA1I9Q5eZJWWw/0p+fGd43LTXe0yMLoye03hbiL3kZuZHpGO5j4577SUvP6FS6SrfcDpqGGnk+Le2hzjEmkQx/WDilDkmBaMfXNnFIzUq/+f0mUIhYdz9O6uzjOrvU2O8HZLe1ub77esrDQy4QWhWeObq3Ng5ZcJuZGRYUeEedM4pL/Zn88lZMreOC16ug06dc4Z11Q18Fbm3zwyJj/5bVoeeLxX0hMtIinaadZDFrxIj0m51UtG5ZlPSsnl57VJd9uY8zW37nMjoVT9TpNgMs5/Z7s97hGLbDtx8WZeaIUtlXGa72go0qudP1QC0xVC5ne+61FE/ervUuIw1AoJGRxJyzd+1i8/v6tbdh9sZYLyOPCq/a62ETnzxFF52dOaZeNp7dLd08qNy/ow1CtQ9mzJqa5RX79Al7DKazqlscD9GhvnE2hN8qv7huX6W8bk4e0LJMkmE+8j237dIdGUltaWYTlp+ag8/fwWecmVfBMTxYVk7/txt//49q99Iuwa1egnTfOkr+VEWP5oP4zWDdedGyspEN2x0VFPgOeTvmJizvRVfcDfhxzPO7S0tMqug2Ny0z3D8q1b0nL0SKukkqzUT5+gSadGpadzVM5fPyFveH6XrFvdKS2Tb9YzzBZqoVOIU1eADRk0JOkNoW7Ra8Uq6Whj0N9xjcQazsyD23i0f0w+9a0BufmuMTncx30IFXlaujsnZMMJ4/KOly+U007sks6OxvikjcFgaDwcOjoqv7xnQD733X45eCzhiK/TRYkm5tLd0XloSsmapWNy9VW98qLLFzv9lPl0hMFgMNQaj+8dlv/+xUH54S/HZXCIyf/IroT0kFx+Xou8/OkL5JJzl2YdDYb5gYbf3hyiWKKbC7lIrZHd2cVEKi079ozJfY/0yd2b++Shx3i1fobYLl/cJmev75TLL1goJ61ul872ZvHfxzQYDIYaIDmRlmP9Sdm6c0h+efcBeWT7kBzum/BveO7uapPTT+qVS87plY2ndsryRawQmj4yGAwzg9HxlBw4OiZ3PnBY7tk8KI/vGpa+gXGvh1Yt63D2UpdcvHGhnHFyr/R0tfiFBRYPDPUB4xu1RUO/yCqKWpFew+xjfHxCjjrFve/QqBw6mnQqOnOvutqbZMWSNlm9vF3aWpvdPfTOBkNdIaqarJk2EqI3L/P85/BoUnbtH5JDR0ZlZFyEr961tTXLsoXtzrhsk97uFmk2wmtoQNC+GUsrNKkMVUf2hrh743eW5ADPZx8+NiJ7nb3EBN3oWOa9EV2dzbLS2UvLFrVLT3fmBZEGw3zCnCK9hrmP8WRa+gfH5dhgQno6E86wbJKOtsj2HYOhzmCkt5ERvXnT797gcFL6BlP++d6FTh/1dDfbc7OGhoaR3npF9oa4e5OP9IY44khv30BKmpsTsnppiz8aDPMVRnoNDYVjA+Py8GP9cteWtJy6pkXOXt8ha5a3Z68aDAbDzGLrE31y7yPDMjjSJBec3iGnn9wjrS3VMyyrTTyMjxsM8wd3Pjgov314UHq6muVlT18sXR3RZ3wzHz8y1Adsx2ltYUtkhobC4NCYPPjoEfnmTw/KT399QHbuHcpeMRgMhpnH1h1H5ae375cf/uqgPPJEvySTMa+YLwOQXSW8PLpTLXH/zT/JVGJWsufT3CK/J88DN/1tMDQQ7nlkQL54wz753s2HZHh0IusawJEsiJZJfYihtrCVXgdvCORAvmuG2sNvEwwUQd/AqDy87YjcvWVITlnbKZvWL5Q1y7uyVw2GBoCplPpChXbGth2H5f5H+2RgOCXnn7FITj95kbS0VD6fHA491RyH5t9jxtEC56vLrF8N4r1m/TMOcR/MMDXMMMIWW2rr+82Dh+Wuh4/6t8i/9Ko10tVhb5M3zF8Y6Y2BEd36gVfwgZHBKkr/4KgcG0hKT1er9Ha3SnubfaLIYDDMDoaGx6RvcNy/1Xmh00fd3W1VeabXSG8VoPchtvriHLVy8tS3kV5DA+Fo36jXT7xUb9WyLnumtyFQLX1v9zoK294cA9tiUEeI3As+X8SbUo8MJGRgOC3jztA0GAyG2cIYL9cbEv9yPXRT1eyVANUak4hnfmpMSl1MyQv4M9vA0EAYT6ZkaDQhR51u6htOiDOfDHWPat4ku+FR2EqvoaFw6Oiw/Oahw3LTb8fk7NM65JKzF8ipJ3RnrxoMBsPM4r4th+TW+4bk6IDIFRd2y4VnLpK21urNJ1d745HxNoNhfoA3y99yd7/cdv+A9HQl5G0vWyULum17c32j2pTMFH4IW+k1NBT4LMjBo6Ny15YheWDbgBw6Npa9YjA0CBjTTOpHKsShoyPy0GOD8uBjw9I/mLTVFIMhD5jEMSlfSsWuA+NyuyO9d20e8J98PB64mdSPGGoJW+k1NBSGRsZl9/4BR3iHZO3ydjllbY8sXdSRvWowNABM49YXKpwI33dwULbuHHK6KSVnnNIta5Z3++fnqoVyDN18sJVew2yi2u15vqGU/ptKpWXL9kF55IkB6e5slsvOWyId9g6UeYCwk5nCD2Gk19BQQImPjCVlaHhC2tuapKO9WVpbTIkbGgimcesLFdoEY+MTMjyalImJtHR1tkh7a0tViaWRXsNcgpHeylBq/2WLM/qJibiFve3z8O3tBsMUjPQaGgojTnkfPDYmj+1OypIFTbJ2eZss6m3LXjUYGgSmdesDVTAADxwZkV37xyQ5kZCTVrfL0oWt0mQrvQbDcTDCWxlK7bu8yGrHnqTsPjguPZ0JOXt9p7S2TI/EvlYy92Av480NI72GhsLhY6Py24eOyJduHJTzN7TJM5+0UDadtiB71WAwGGYWt96zX35655AMDjfLS67slQvPXGAvsjIYDLMOVnm//fMB+ekdQ3LSmmZ596uXyYLuzM441SvpdCpz4mAEeHZRzbf0G/GNh73IytBwmEg3y4GjnXLgWLMMjWYdDQaDYRYwMiZOHzXLnsNt0jdknwUxGAz1g5GxFjnc3y59g+0yMcVv/eRXRjIECWlqajKZRanWPSAeQzxspdfQUOC5uf6hCdm2e0LaW1OyakmLLF3Umr1qMBgMM4v+wXHZdyQto478nriyWbq7mqv63Jyt9BoMhnLAO1D2O9104MiEdLSJnLymxbY31zmMsNYWRnoNNUG1FGmcAkilRA73p6TDcd12p8hbW2zDgsFgmD0MDqdlfCIti3pMFxkMhvrBiDPxR50kEmnpiZmQM9JbXzDSW1sY6TVUHdVWoqESGB6dkD0HxuTOh0XWLk/LhhNbZcViW+k1GAyzg72HRuXhx1MyONIkZ5+akLUrWqWl2QwXg8Ewu+BFVg8/npRHdyVlcU+TXHJOm3S0HT8xZ8S3PmCEt/awaWlDQ2FoZELu2zogX/7hgPz41wPyxN6x7BWDwWCYeWzbOSg/+FWffPumIWdgjkhyInvBYDAYZhFjjvTe+fCQ/L8fHpPv/7JfRkbjyS1ky2T2xVB7GOk1NBbSaWlOJGX5ojFZtjAtne1Zd4PBYJgNpJPS2zkuyxeOy+LehH0H02Aw1Accx13YlZKlC0alqWkk42AwzGPY9mZD1VHL7c3JiZQMDk9I/1DCE97uzqbY7ToGg8EwE+CzIAPDaaf3mmRBd0I62iG+xnwNBsPsghdZ9Q1OeP3EIxfLFzVLsz16YZjHMLZgaCi0NDdJb1eLI7opmZhIOrG9hAaDYfbQ1OQMyqYJp5smnJFp+shgMNQHmpoSjuSmpdXpppampNhcnGG+w0ivoaHAi6y27RqU79/SL79+YEAOHBnPXjEYDIaZx76DI3LbfQPy018PyPY9I2LzcAaDoR7gX2T12LB89+Yj8qPbjsjIWPChXoNhHsJIr6GhMDQyLo8+MSA33Dok9z4yIkf6ktkrBoPBMPPYd3hU7rh/WG6+a1R27k/KRMqeGDIYDLMPXmS1efuo/PC2AfnFXcP+00UGw3yGkV5DQ6GjrUXWLO+Ss09rl/XrOmTRAvtckcFgmD0s6G6Vk9e0OX3UIot7jv8OpsFgMMwKHMdds7xNLtrYI+ds6JLWVlNOhvkNe5GVoeqo5YuseDHD6HhK+gfT0ub4bldHkzva3I3BYJgdjIxOyPBo2ummzMv1OpxOshdZGQyG2Qam2OCI008jaWdHpWXJghb/nK/BMF9hbMHQUBhPTsjRvkHZue+IHOsf9r8NBoNhtjAyOiYHjwzInoPHZHB4zL4KYjAY6gLMvQ0Nj8ueA8dk/+EBe/TCMO9hpNdQ14h+sHtoOCmbH++X799yVG6776jsO8S35wwGg2F28MTeAbn57iNy02/6ZfveIf9ZNYPBYJht8CKrB7YNyfU3H5Mbb++zF1kZ5j2M9BpmDRDaQhIFC7uHjk3IA4+nZeuucTk6YCu9BoNh9nBkYFy27RqTR3dNSN9gWmwxxWAw1AMmJtKy91BK7t+Wks07UpK0934a5jnsmV5D1VHsM71xpLYQhkaSsmPPkNxy74icsLxZNp3WJetWdmavGgwGw8xi94FBuX/rsPQPiVxwRqecuKpLWprtuTmDwTD7eGDbsNNPQ/79J8968kLpbLe1LsP8hZFeQ9VRS9KbcnGPj6dkcIQProu0t9mLrAwGw+yBLYSjYylhVzMGZWtLk9Nt2YsGg8Ewi2BL88hoyr/AqqfLXrJnmN8w0muoOmpJesfGJ+Tw0SH/XO/iBa1ywqoeWbLQVnoNBsPsYOfeo7Ln4LDTZ81y0poeWer0kb0h1WAwzDZGx9gZNyA79w1Je2uTXLRpubS3NWevGgzzD7ZEZmgoDA6Py+bt/XLDrcfkjgf75cDh0ewVg8FgmHns3Dcov7zniPzsN8dk+x57kZXBYJg5sMiQnOBdAscvNiRTaXno8WH53i+PyY2/PmYvsjLMexjpNdQdmJ3ctX9YHnliUA4eHfXf5lXwIobDx5JyqK9Vjg01ycj49BUVSDFht+0alKP9Y/ZSGYPBUBH4LNqRY8Oydeeg7D8ydpzhOD7R5HRRixzsa/HP9YY6h50pBw6PyEOPEXbU/Taj02AwVAfwXHTKtl2jTsblcN+Ed1M0JxIyOt4qh/vbpG+ow+mmKXsJb2PjaXliX1Ie3zMuR/rtpaCGuY/m66677oPZc4NhRpFre/MTe47K1368W7550wFpbUnIiau7pC37nBzS3dUiZ57cI+eu75W1Kzqkoz2zXQdy/NBjR+WbP9sjP7vzkHR1puWEFbxUxuZ2DAZDeTjWNyx33LdbPvPdvTI4NCGLelv9oxWqv9pam2X18k5Zf0KXrHP6iGtsb4b87js4Ij/81R7531/ZLW3NKVm5tE0WdLf6cAaDwVAJsHkO943L//nGQfnlfaPS3OzspZUt/r0CoMUdF/W0yOkndckFZ3Q5e6hdmrOPXoyNpWTvoaR85vp++dW9g9LVnpBT17b5awbDXIWxAUN9ItEm+450yHd/mZQbbzvgV3wBBHfdyi45d0O3nLymQ3odAQZjyZTcveWYfOlHg/Lzu9MyMNLqlHizxNNqg8FgKA5pp0Um0k2y51CzfPvmcbn+lj55ZPtg9qrIskUdsvGUXjn/9G5ZGxiVj+0akhtu7ZPv3JKQ4bEu52LP0hkMhtpg+94W+d4v0U+DMjqWnlzxXbGkVc5d3ylnntw5+VZ5VocffGxUPv71AbnjoWbpGzRLyTA/YCu9hllDrpXe1pZmv7I7PiHy8PYx2bV/3LmJLO5tkeZESrbtPCo/v2OvHO4blc6OFr/6+/BjA/KVG/vlgW0pWbW0Wa66qFuefPYi6emaWpExGAyGUgGJ7epgBSQhO/alZOe+pAyOTMjShU2ysKdV9h7olzvu3y8PbD3iV30X9rbJY0/0y8/uHJSb70rK0GirPOfSDrnsvF5Zs7xjchXGYDAYKgG2Dau7Sxa0yMGjE7LrQEIOHGnypHbVUuyetDy07ZjcctcB2bF7wL9ojx0ov3lwRG741Zjcvy3twk7ICy7rkIvO7JTeLtNNhrkNI72GqqMYkpnPT8ZwbJGeTpH+gWHZsmNcjg00S0uzI8OtCdm9f0S+9bOjTp07P47UHulPy49uPSq/undcVi+D8HbJlRcudAZmpxFeg8FQEXg8oqerTZYtavFbAncdGJfteyZkZKxFli9qdr+H5Vd398sjO5KydkWXpFItcpMjvLfcM+bIcZM85exWedHlPXLq2k5HnjM7UwwGg6FSYN6gn1YuaZX21rSzk0S27+bb4U3S1S6yoLtJ7t0yLD/99ZAc7Re5aNMCeXDruNz466Tc9yiENy3Pv7RVrriwy5Fk002GuQ8jvYaaALKZTwqB1+ov6mmSFYtEDh1NytadTXL4WMJvNWxt65Ad+1plycIuGR1PyP2PjsjNdw3Kwp5med5lnfL0ixbIiavsM0YGg6E64BndxQsc8V3Is3BJeWx3UjY/npbW1iang5qlf6jN+emU5Ys75YFHk470jkrfkMj5Z7bKK5/ZKevXddmnQgwGQ9WBOcVulLXLHfF1vPXg0ZRse6JJ9h1KyqIFTdI30CJHBzpkYW+X9HY3y/duGZb7Hkl7QnzFBWl52dMXON1muskwPzBvvtPLa92L/X6soX6QTKb8d+Y+9a1j8tvNTbJsUa8851JeytAsew9OyC9+MyB3b+mX3q5hecVVvXLlxUtlxRJ7GUOjothJkbmAUB+ZbmocPLZrUH56xzH55k+HZSK9QJ5+cY9cfgHvFxC5/d5R+faPB5yvYbnqKW3yoit75YyTu91vu7+NiFAXzQe9pHaS6iPTS42EhN/WfN8jI/Kf3z4mWxzxZbLtyos65dzTW2VgKC1f/P6wbH1i2NlRSbnqSa3ykis6ZUFvu2RfQ2BoEKidpGIoHnOe9KZSKRkfH5ehoSEZHByU0dFRmZiwV7OXg8o6V1zYaNOLPk/CG1CbZWSiXX77qMhvH2mWx3a3SntTm1x6Ybts294nO3ftk66OMbns4rVy7mlNsrhn3F0fczGNudDVuc8zOfA3gpERtoNKFa4vbzohra0t0tHRIR2dHdLd3e1+z+1nsdFB6KKhwSEZccfRkdEGMjC5Z9lTB386Q1l35nj2LIPS60x1DOGc5Gxizl8YNW2xqcU5tchosll2H2mSOx+ekN9uTjifXXLK2g7pbE/KfQ8elKaxI3LO6YvkvI29ctK6JuloG5GWxKDXST7SNHFrwnEZKK1MGd+lhakKfJJT6c5aPkqGq/Pg0y0ZNeOMx8zBFwE39E97R6d0tHdIV1eXO++Q5ua5uyJGXxoZGZGDBw/KoUOHpe/YMRkeHuFK1kPmYJglZJvsdB2IIzqtSVKJFmfxtEr/cJts39cqD2xvkqN9rbJk0SJZtWyhjCWTsnnrfmlvH5EzTxI5Y11SFncPS2vTiDSjm9L2ObVGQUtLi5x66qmycuVK6ezslKamqO1syIU5TXohukePHpW+vj5/DvnlnKNhJoFizmhsNTAyxmo6+xtk/WAQKvjpDhiaR0YWyKP7F8rDO9plz76kLFvS5gjDgHS1DjqDMy1nndIpS7oHncrHuBx3QSG85TXtqCE9E2QkTCPXeT2iEmJK2bxh2ZoxJiG8XZ1d0trWKkuXLpHFixc7Q7O9ojTqDUzCHTnidNKxjE4aGhx0OqlfknyAukHgjS7fLDNtcyaa6LQ+MZn+dPfioPqFcE6yTWt6LDhCgoJ2RxvEsEhkDMzRVLvs618g9zzWIzv38tBFk7Q0T8jgsUOyYeWobDypXVatgDSNuaAj0uQk4fRSBs0u31Vs064OpvLvzgtUSaLA9WIQ3gM9yaRbhcgrhqvbzD9/jv6YUiHZC9n6V3fyzsMzvgxZL6CluU0WLlzoSW9Pb4/0Lljg9dJcMjIzdlG/PPHEE/L4Y4/LwMCAI7vDMjY6JuPJcceFuNuuYvjnKwgxzCR8jfOfa5ip9NRk/lRfp/U2eZmQNhlO9sqBocWy+0C7jKWXS2v7UncfkzI69ISsWDwka5YMyqL2Y9KS7nchk04gvHZfGwXon2XLlnk54YQTZN26df7cUBhzkvSyitLf3y+HDx+W/fv3y4EDB+TQoUP+yGpvIxmYCjXuOMadzyTKS/N4IyGdTnmjYyo6foRGqYOz0CBEyUSvHBldIgcGFvjnU5paF0sqOSS9bUdl+YJ+Wdw1KOnxI9KUxrisbMYyrN/wWEvkSnMm0i4F5Ceap0ryiEHa1dHljk2ywBmUy5cv93LiiU6Ju+OSpYult7e34Y1M6gjjEsJ7YP8BOXzosF9R2bdvn5dG0UmT99odvCmc/c05/2qJybQix9IQ0S8Ox8eilCeAOnmWlHYaplVGZZHsHVgiQ6MLZDzV5VwTzvWYLGreJct6hqWjddR5H3Vh3L1NoJMQl77TcRinU5HmKkdx5TuuXgiXJ2hVSG9Q95xHf9cTyM/0cSaEu5e8ztafuqOeuj90U2trm6xds9YblqvXrJZlS5fJilUrZeGChX5yrtH1Enpnz549sm3rNtm27TF/xEZyduGkTgrvb73d2/mCsN5T2R1sue6Fs5gcje2S8cQSOTK0QEYTJ0mibbW7MC7p4YdkUedR6Wo+4nRVn7OXhrOhDI0E9A474lasWCFr1qyRk08+WTZs2CCrV6/2q8BzaaGg2phzpBdFjdLetWuXl507d8revXu9bN26tSFXeXXQUWG1KOpWa4RplJceq7vZU4cw39OOSnq9ZaaGR6ukE61O1XeKtC6S1i7XsTvWuns5KuNDuyU9ulOaU8dkbGTABWGgDhIqA2F+9ByE57XAbKVbCNG8hPmrRt5aW9pc60j4FZS1a52Bue4EOXvT2V6ZQ37XnLBWenq6fVtoRGVOHWFEQnif2PGE7Nm9x+sjdBPCxBxbnatRl7VGmEfOo79rheqlezxJyRda4/Zp+j//y3/2IyVtMpHokcXLT3Y6aYX/nZ4YkKN77pamiUPSBOH1ITQFR3b91mbywDbZkPSqH4X7XQQ7jdZD9Hcc5jrp1fyoFBovue7BNSXADugatg6ih0497VQ5fcPpcsopp8i6dSfKmrVrZMnSJf6RjEaE1gsLAffec5/cd999sn/ffj8Rx4KB7owz1B/cnXOSr48x7d/ipN0T30TnqdLSeYJr22My3ne/tEzsd9pnwGkjtjRnCDRtPdovykUjjtGNBkhvT0+PXyBgUWDp0qVyxhlnyMUXX+yJcHt7e9anIYo5RXrptBDeHTt2eKMSRX7vvfd6w7KRESojHawU/K6WssoFjT+aVmnpFjkjHq70Hmedoeqb/Cxm0ilzzpvTg069H3NKHAOzckTLV355S8NspVsMNH3Nl0roVjZcUL/Sko0CY+vI0SNyxdOukGc84xly1llnOSPzBDl1/anS1ubIcQMOqEzEYVDu3rXHE9zbbrtN7r//fkeCj/hZ2UYynMN7Hb33FbWDAqheusWTXqLNxJ1Jz5ua7sgOFXUDKT8h1+Wkw5mbSWlJoI+G/DkGaCZNjEp3PI7w5kIm3elwvyM6MSx7Jm/Tf8dhPpBeBec6Xqp7NH+Tv9nGG7kG0EnHjh2TpcuWyotf9BK58sqn+2fpTjxpnaxctbJhJ+Igt7/4+S/kkS2Pyu7du2Xbtswqr16nXCqKRizrXEDYLifSSf87rq1GMSHdMppY7sjvQqdxnIZK7fW7UaYetcjc02reV2sjtQf3Xt9NxGLBqlWrvE7auHGjXHbZZf7c7kM85tQni3gOBaMS0otRec899/jfIUnUDp5P6hVhHpnpUWH7byUSxhUncX7i8pFbcocPy5VBUP8xtwInnl7BoGyWYScjngZXuqXZUBh6j9QgAtF7WIyEcEO3u38ZIsI1SCCzlI9ufVTGx8b983SLFy9xfXhCFixc4NtOo+HI4SNODx2Q7Y9vlzvuuMPrJVZR2MFgW5FmGuXX9ZSJGTU2XZyJlGvF41mZcC4QXEdu061OWpzQbuMIL3HFSQC2RsNUq9RM5ltrK4YceOTwxvjHM7302QcfesBveV60aJF0dHRKS2uLv9Zo4HndX9/+a9n66DbZvn27PPHEDhkYGDyurvQ3R5N6kUIrvdOBfdScHpHWdL/TPgOu/2MvTYWv9vgTn2eTaorWM0AvsVMMPQUHYtszj4qxS8VwPOYM6aUBsHKiW5pvv/12T3ijW3QaxcDUBl0PiHay0kGdT9V7XHxT58H9ib1VEN7Mem/mhVW1IbzkJ5rPML/VRhh3XNqziWhewjxxXm4eNZyjwv4I6J9+UsT9HTx00LeBJY70Ylgu6O1tuOfo0D/opB3bn5DNmzfLXb+9yw9Q4eRPwyC4zeF9jx5rA9LLnsWkXQlyxZCJOpNWJh0nWbcQ3EF0EGS3yR/VNUt8vYsTf6/D+52NswCmfMT7jdZF9HgccjiXijCdMK2c6c4Q4tKnn6mEfU/F+/H/Z/yG0DAc2bWxfccOWbpkqZ+QY5fGokULp8VT7+BRi71798mdd9zpbKVd/pleHr0IFwcM9QrX10rowJkFAvSSG3O8YDPNbv80VBfoO1Z96ddsdUYPQXp5sVWj6KSZxJwhvdxwnk9hlXfLli3ewMQtinptBLU0FMqNW8NxDOOI/s6FKT8cp9d7NL4pBP5y3ioUeSormbDF5KcQ4vIUPZaDQmHzpQsqSTsE8ZQjGjbfsVRMCxcTBVuZh4eGJTme9Cu/605Y52cuu7o6/QppIwAjcqB/QPbvOyAPP/yw332yb/++qq7ullv/5SBMK3r/4/Ph3DL/KgJxa/TFpVsIhMmID5+VTDpTghuCT3/ukT2mHclxB/7PHFW4nv3l/IRXPLKHDDROEPHrw0ZxvFsmb1n3accwf9P/JtMoKBlMFn0aqKPsmTtO9xMXl6uZ2HgqQSZCTf/4fCji8xP2waxLNry6T/lF2LHU0tIqR44ele6eblmyZImsWL7cn6OjGsXAZFvz5oc3e+GNzbzwM85WmoSrlNhqNcw8aGLcDN/WihH+D+0lxXQ/hsYGtkYymfQ2EmMXW57t2d54NM6SSQHwLIp/HvDIEf/CKhqAgsFIpRiE/qshM42o8VYNUUR/RxGGySeh30oQFx8KoBzR8KFovOUiDBvGmytd9Rcirk0VkhBh/JWKxhceq4EwDRVmLenPDz30kP/0WMY4a5yXq3Bvjx09JgMD/ZM7UKplHGsdhedhm6qFaDqhaPrHwV93B3+a8RsXZzGi4UPJJBGTbkH4HLmwxMvKVhA/aYXi/VCIID33L+FIZeaPHQmhZP+8HycuTMbg1POs+7TrnBNmumSyydH99v6muyHZ7AfumePUXzR/WUnkliBXrrwqLtrjZMrfbEn+/JUoPj4XbXCME4gvO0/4tM/jjz/uCOSA7+O000bB4MCg39LMVkieVeaYF5GxxWQWRf9cu6+axKVTgRhmB+ggvgSBzcQCIGI4HnOG9KK42TYI8WX2Uh/yjiKuk0alHjFpmBUhpfovJGF8BsNMgm9G8lI6lDkrFBPBZFa9g0FoYHDQbx9kAEI/GeYjKtOboS4OpZ4QN47WQuoFvHPg4c0P+50bkMjwrc/1DNoNNtLuXbunLQzkQ7TdmcyuVBtxaZjUv0SBvcEkFo9U6SdbDcdjzpBetudww7nZcwGFGng1EU1LxWCoB6DEWenl5SvDIyP5t+LVCRiAMCohuslk/AScYT4hRp9Ovs3ZVkcaEb5/N4g+UrA4wK449FPBbc0GQxmIm6wyqb7kAn26r6/PLxgYjsecIb0ocVZ3c63wGgyGxgQTMPRrjqnssVGQmrCXwxgMcxFeH6Wy2/b9XvP6h9pJQHWqwWCYO8jopcyjQYbjMWdIr8FgMBgM9Q1b1Z1L8AamJ45z874aKa4/2D0xgHyrvYbcMNJrMBgMBsOMAWPFDBZD4wHCZTLzYjDEwYhv6TDSazAYDAZDPcFsmRmBEYr8iBrV+jyhycxKiOjvekOUsJvUVgylwUivob6QSGXFOrNhbiJu4GpE0eeG4q41lvBsI0JZ9DxGpJBoXejnjgqJ80uYuLi4Pnke5tWkdKEO48X1Ric8+xZKnFuc4C+UuY8oGasHkSZX91WUuDRmW2qJ+D5TvsTl36T6YigPRnrrCKHiqAaqGRcoNr5qp1ssSklT8xiVENHf1UIt440rh2HuYCbub9iOckkUx/nJutcCmkapCPMXj0pzTfgS4vATe7XKy9xHue0ATIWNC19snBq+WP+NDTOzZw+NVPfat0xqK4byYKS3BMQ1vGKkmLDVRCnxFeO32Pjy++NaMRKi0PXjUWldEj6MI1986jefRBHnFqLQ9VzIFa7c+GYMPntTeaz7/M4QqIbjxf0XgN8ZN3ekDrGMIFK5JOuv0B9+C/+xEjl1TtyhhH+adsZym/KjUvxfJs3J+GIk99/0PIZ/wP+fx7LM+CqMTHxTcef+y670Ou9x4uPy5/zISGZyf+p3LtF2UY7ExVcNqWXc+YX7Ph2ZvEyHLz9H/39u+KvuPkz64tz9mKq/OQjVHUXphZn/41/V4KOr/l8mk+UL/4OpdlaZTP1F+0e8/2LF/2XzaFJbMZQHI71FopJGVmrYsGGXI1HE+VEpdB2JIs4PEsX0a8WKYspt2nbAiBRC3DaQYsIVQiVxhPmPSi7E+Q0litA9lx+g1wqJgvqMuhWLML5J8fd36vp8QHHbk6iLqEwhrCuMUW+YenEOOWS6v9zCX5x7KJk/SGiGiHqDOJTJa8F1zqP+nGTiC/3nkiDtIPw0iQ2H5PFH3fg/6ihefB3GYFpb9veEeDAkC0nGby7RuDKYci9EfNGT8ekVK5l4SEf1rrqVI1NxZI6VSlwacTIVJlOXoYQIt+jz2SEfOnvP48T3Ix8yc8ymNqc//0O9+D+O6Yk6lMw9rIrUoIxp/1mryiTadjmtTGi1tHf3IwvOp+nIMsSPDwZDHcNIr8FgMMwg1IAxMTGZXakezNg3GIBO6pqUJ4bawkhvHaHaA/FsxVdZuuGKQ2koJU3NY1RCRH/XO3KVwzB3MBP3N2xHuaSQv1qi3DRy50/1jeqeepAwP4Y4FN8OwnrNyNSLrI6/VpxouhyLyYOhVkj5v4mKxa988hJNg8EwZ2Gk12AIUJwRZTAYZhvV7av11u9NDxWL2dPZdo/qA9W5D2n+XFQ6mVIdqU58IeKulyq+tJPn1UWYjknpYqgtjPQaDA2AQtteTFka8qGU9lHMFitrbwbD3Iczw7Nn9Ynq568+41N9Wy29G0ZTVV1exagMhlrASG+RsL32hmqh3LZEOBXAYKViMBgMBkNVESFH9SbziWT58tYI0XotW4z1GuocRnpLgBFfQ7VQaVsKCbBKLuS7ZjCUi/kfs/wAAMcRSURBVGj7K9TOCl03GAyGchBHwAwGgyEKI70lohjjzmAIUe2BOFdc2jbj2qe12cZHue2nlHDqN197yRdf2Abj4sjlbjAYDOUglz7CPRSDwWAw0lsmzHAzFIN8g205bcgGb0MUjkbmJJOVtJdqx2cwGAyzBXSXisFgmJ8w0msw1AjFDK42eWKoGEETqqQ9mTFoMBjmA3LqOufsaHH2RxVQ7fjqHfOtvIaGg5HeCmCExZALtSAQRkoMpaCU9pLLr+k4w3yBtfXpaIzxpvw8Ur7jJMPa4q+VI9WOr95lvpW3BmKoLYz0VggbKA2VgjZk7chQr7C2aZgvyOji7I85jjiDO5Ri/IQyG5ilZA0GQ4PCSG8VUIi0mNE4t5BvgK/EAMjXTmbLqDA0JmrRXqwNGuYH5sckpI5V+ST0VwhhuFLEYDAYZgpGeg2GKqEaA7hNkBjqEbRLa5sGw9xClIDGSa7tqtVCXNzFisFgMJQCI70GQ53DBndDXkSM0lJh7ctgmF8oVl84H/4vDrXUG6XkL0f2DAaD4TgY6TUY6hDFDvoGgzf8ykSx7cvaoWG+Yb7sbAjHmqgUUi1xYZBSkS989FooGc57vHtUDAaDARjpnSHY1kCDwdDoMD1mMBgKoRiiaaTUYDDMNIz0Ggx1BjMCDDOBYttZ1F8h4quGbK74i03XYJht2CRP+cjX/2daB5jOMcw1aD+KE0NuGOmdQdgAajAYZgK11jWmywyGxkacsRwvuf0WQil+DQZD8f3SUB6M9JaJUhthMX4MBtqIEQpDrVGsLqq2zjIdaKgFaFehTAf6tNoC9DjXkbvPltKf4+9NFZB294Foc0rC3alCflQS7sBJleCiSkvKx1lPf5nCxkAvlS1Vrj9DTtSkL80DGOktA6U2NmuchkKomUFgMERQq3ZWqA1b+zbMDpSoVltA9Pf8Q7H9upB+KBtE6YlvLil0PZRMfJrXimXyD+JbT+L+Inl1Ttk6qESqXH/zUEpBpeHnI4z0lghrVIaZAKu9tuJrmE2YrjM0Ckxf1i+ixnglekXjCqUYFOvPYDDMbRjpNRhmEYUGbjPkDNVErYxEMyoNcxWmgwuj1DGsHP1iOsYwH6BtvVwx5IeRXoOhzmFGl6GeYQOtoV5QK11pOrj6yKc3QiPe9IvBYKgWjPQaDDOAuIG7lMG8UqPLDIf5jWobj9aeDPMNRnzzI5dOyKcr4q6ZbjEYDLWCkd4SYQOfoRIwoKtUijCuqISI/jYY8qHY9hLX1gyGuQwb/0tDMfoh1COmTwwGQy1hpLcM2MBnmA3Q7qztGYqFtRXDfIS1+8ZDSHxnGpp2tSWKOD+1kFIQF75YCRF3vZDkQpzfehJDY8NIr8FQY9RCYZryNdQC1q4MBkO5KEd/aJhydU+hcFwvN26DIQptT/Ushtww0lsmbDbZMFuwFV+DwWAw1CPU6C7H+K620V5sXJputSQX4vxWU0pBXPhiJQ5x/vJJPsT5rycxNC6M9BoMDQZVukZ8DcWg2oO0tT+DwTCbUPKhuiiVSsVK6C/uukrorxoSlwYS57eaEpdmLokLX6xUI764OFTi/Ne7GBoDRnorgBl9BsVMKT1TrobZhLU/g8FQCMXqiVz+8oUPr3GuMjo6Kv39/TIwMCATExOT5EmBGzI8PCx9fX3ebzKZnOanWiBOTU+lFulEQRrj4+MyODjoy3js2LHjhHrSPJWLaPnKKZuGHRkZmbxvtbof1UZcHhsh3wYjvRXDiK8hH2qtCGl/1gYNswVrfwaDoRwUGhuj1/kddUP34Nbc3OwJE8RpaGhoUi9pGA3X0tLiiVboD4T+qinkSYncTIkSSUhvVI4ePeonA0AlK6oK0qJ85cQFuG/Ewb1gMqLW96Maooj+NjQGmq+77roPZs8bGkeOHJHDhw/L3r175bHHHsu6ZqAdCYTn1QJx5ou32DSr3YFmK744f7Wo9yhIN5pOOelqmLj4omWLK2ucW6UoFOdM1C8gnaqXL5077wzenZ2dsnHjRjnhhBNkxYrl0t3T7Y2XegZ1hDFwYP9BOXTokDzxxBP+2NraWv36S+Rug6WkVchvvusz1f5AmI+ZTHc+oSb9vMqYrXZAupCmdevWyaZNm5xOWuGFvl3v7XFsbEwOHTwkjz661dtLrAiip/LBmfbZs/oE9+PEE0+Upz3tafKiF71ILr744kkSRdnCe7J+/Xq58sor5fnPf773BxFkjIF4VRukv3v3bp9Ge3v7jLWPVatWyXOf+1x55jOfKVdccYVcfvnlXi677DI599xzfV727Nkj+/fvl97e3myo0kHd7ty507cjytXV1ZW9UjxOOukkueSSS3xeL7jgAn/fWIku1CZnG3H3sVr3ttJ4lixZIkuXLpU1a9bIKaecknU1KGyl12CY45iJgdZgsHZmqBcUaovWVmcXxU6o4E8lHzo6OuTss8+WF7zgBZ7QQmwB22YJC6ndt2+fnzyFED7nOc+Rpz/96X5CFYTpVEN6enrkSU96kvz1X/+1fPjDH/bpLV++PNZvNQWiTV084xnP8HURChMC11xzjfzBH/yBvOtd7/J5ioujGFm8eLEnqn/zN38j733ve+UpT3lKrL9cwv04cOCALFy40JPel73sZf6+rV69enJiuFFEEZ4b6hdGeg2GOocpU0MpKKe9VKuN5SMTRjQMMwlrb9XFbI9DpB+XB9zYRcMqISuX7Ag677zzZNmyZZM7gmgLrICdeeaZfrWXc8KxUglRRIgjFAgzz8dG4VfLY/yGIF1WMV/60pd6skl+IKNRf3Hp4haF+mNVlTgQ8hEFK6RNTU1+tZeVPgRiCZFkhZfdCUwOPOtZz5KXv/zlfvWX1f4wLrYqk87Bgwcnhd+6LZp6BqzMQqZf8YpX+BVFVrRDEKfmNRTKQt1zJF/cJ+4ZhBd34mHnJsIzyJpuFOy2UH8qcfcrzh9ucX5Z9ec628CpFxVWn0PEtUNDY8BIr8EwR2BGnqEcVHsAN+JrMMwtqI4oVlfgr1K9kit8nDuPjzz66KN+yy6E8+STT5YNGzZ4cqvPnbK1l23QbMOF9DzyyCP+UThI3IIFCzxJPeOMM+Sss87yxBjiyEowYcM0Ia9r1671BBq/hCEs5BLSRPoQuFNPPdXHQR64zm+2wRMXaeIPwoc78SDqR1egwaJFi3x5Tj/9dE9aCUPZ+M3qMYQsV11BLO+991759re/Lddff73cfPPNsmPHDr8Szersi1/8Yh8/RBlQNt0WS/lYGScd3LhGWjyHS7rkhW20HMkPdUbeqS+Iand3tyezlOucc87xcVEPpBcHykBY0qJOEeLk3pAm4F6SB1aauZf4IW4eM+A3fnWiQ0F9nXbaaT59FfJBOyC9ENQL8eCHeKkD7jX3AxKfq54NjQN7pneGUEy61e5QsxVfnL+ZqHfSjaZTTroaJi6+egf5rWWeibva7cqe6a0QMc/0zjZq2Q7D+qtlW5/PqEk/rzJmqx2Q7nx6pjeVjl9pm21oXXM/0K2QTsgNhA3CxfO0CKu5rDBC8M4//3xPjLATf/rTn8rdd9/tSSnbgd/whjf4VUu22bICyv2lviCJSgoZiyBx+H3Na17j/V511VWeHOH3oYcekpUrV/ot1M9+9rN9PgCrrIxfrETfc8893l6F0BGeeFh1JQxboiGSkFX8sBrJiurVV18tr3zlK/2KMfGQT55JZnz89a9/7fNFHskDbZGtx5STLd2f+9zn5F/+5V884b3jjjt8XsgjhBzySN2xmktaEL7nPe95Pn6EOmOrOHnFz+OPP+5J8Ete8hJfZuockCd+Q0p/85vf+HKzbZl8I8TDc8XUHXllPKR8hGEygvC0w4cfftivjLPdmTJceuml3h+rv9QJ5YNQc408UCf4ZeWafJE+fZNJBdoF+eM6dcyqO/cEoTy0CfIBqDvyTHr4ffWrX+23f1900UU+b8S7bds2T75pdyog7PPhebmoNA7asz3TmxtGeusI1TYyZiu+OH+zVe/lpKthKEex4fFXjTLGxaFxR6UUlOo/F4in2u3KSG+FyEN6i2kvoZ9q+Ks1wvqbzXzMZVCvVW+nVUal7aDctkO684n0pqX+SS9jBILBf+GFF3p3tsayygnJhNC86U1v8iQA0rdlyxb5zGc+4+/Ztdde64kRBIzwECVdTYU48OypkiOI0Fve8hZPntUvxJGxCfLGKiYriJA7thFrHskbabESDdGGEL7jHe/wZI00CAdJpR0x1rFSTB4h0bygCxIOoScdrhOGdMgbZJbzKOklbxA7SDGr2oSFtEEgIbyQROqOMfaXv/ylzwPkG3JI/IRn5VPLh38mEcgb5JD6YRwmjra2Nl8+7PBbb71VXve613nyCGFnVZiy6eosq9bcDwg4ZVLSS3jqldVuwnAPKAu/GTux6/Hz+te/Xt785jf7esAfEwnEr3FTB1u3bvVblD/wgQ/4OiYO0qeMCH7pv5DZW265xeeHdgCJZoWXe0ucxE+5We2lbMQLlPyCuD5fiR6oJCww0psftr3ZMAmUVz6J85PLrZ4Rl1cUjUoIZhXVr56HiIYJ4wmv6TGExhX6A3F+DQaDwWBoFETHyloCEsIqJAQPIshYDZHC+IcUsUIKwYIcsvL729/+1q+CsqrJNl8lt5///Of9y5l+9rOf+QkBSBQEki21xAHZgzAxRt92223y2c9+Vn70ox95QgRJ4xlXJhEIf9NNN03WAXljZfnHP/6xJ+OsNpIfrm/evFm+9KUvyTe+8Q1P7sgj11jxhORBZiGXCL/JF8SS+FmFhpzqSnSIqE2hRA3ivX37dl9ewkGSuAbBo2wQ5QceeEA+/vGPy7//+7/7uoIUkifqgPRJm1VZSCNluP/++33+IZAQLQSiv2vXLr+tmhdnfetb3/Llo57YlhyduCYeJmK+973veb8QfiYo2IrMKjHElXzoii5l//KXv+xfFIZ/wuOXyQaESQwmpWgDLIZ95StfkXe+853y/e9/398P8geZhdizWs+qLr9Z0aYd8BKyG2+80U8S0A5oK8QVl+8ocCtFDDMHI71lopSGW+g64DoKKVRUlUDjKwahP81rvvzGXc8XrlplyoVc6RaLfPkj3pD4RtMhbDS8ujGghNej/hTqJ7we/R2HfNcLhTXMHSRYKQ8k+jfl7tpjjr/p4XP7Iy1NL+Mvn4R+pqdRvrjyBnFHr5ebTjHh4vwU61aq5K4zd8OPc8u4+3tThbrOhNd6ztY17jEy5T9ewntUjbxlhDrI3w5U9C/uGjIVR2l/pB7++TzNQbgRL3uWQSXjbBThmBonhRD1p9tVITRJRzx1lZAVQVZ/ISyQKAgQRBM/bBGGHAOIK4SHrbGQM8gdq4K6pZhVS7bFQnr45M8Xv/hF+epXv+pJGmSPlVlIGySJVUlWVwGEEoINSWaVl1VWyBgriaxGQiq/8IUvyKc//Wn51a9+5fPANVZAKQPhsUEAefvmN7/pyTZHyCllihvv1YaAIIYvbYLAsxoKKAurtPiDZEIeef739ttv96SYcITnOuSQvFNPd955p69HtY0o6y9+8Qt/xD9kkbqB/FMvpIcQH2lyL1h5hcQryBfl/9rXvubrgvKRB/xT72zJph4hrdQXxJt6pr65l+SD546ZBKD+iBuSTHjyz2/OKScTEP/93//tj4B2wMQH8VD/lJHt1Lobgvgg0jpxAsK2F56XA8JrHHperhjyw0hvGWikhkVnLwT8hKJuetRzhbpF3RXh9Vx+qoVK7gV5i5shVYT513TULXQP84C7kl39rW5x7vo7F4q5HifhNcNch7vP0/4w5EMJ/6LXaP/hdf2L96dS3B/hMn8ZglH531Q8U3GHf+WkkyFRoUv8X5yfYt3K+5texnz5xF3vS/H3J/7PxxWmk407TvjLV17yPP13+Kv0P62DqXji28HUX4YQ5//LtO9iRePzdUBe/Pncgx/XqO8sdJwLx7tcKOSnmDhKBaSGrbqsOkKuIGmQJZ6TZcsq5BDixeojq72sAEOkWPEjP/jHL8+fQm5wh0SxAspWXlZBIT9JR4xYLf35z3/uX55Fej/4wQ/8qiMrtmwBJh1Ik4Lt8BBySBREnNVV8gthY8ssz8FC+CDAEGqILn5YeYSUQi4RSC9p4fe+++7z5SgE8osoiJtyIZwD4tbJAPJI2dlSzQqrrmxrOEgg5FPjpO4giZSb/HEO+dXJB8qrzyNT58RFmSCnIemlzig/K8iQbiYSqGfyRjjyRH1RbuLGnQkNtpwzQRDGRTsgP5BiJha4b6zo8yw2q8HkmThIi3TZsk385Jcjq76stNN++E3ckHTuB8QZYg/CdlyNNl2NOAz5kdviN8RirjZKVWoqSpiQcMVSf+Mn6o7MJopJn/uHv5CEIriH9zbqR930HOBfByONN+oHhO7hdY6abph2FNGwKgZDMSjUXtzVotpVsf4MBkNjIzoexf3OJ4q4a0ixKCUM5ASyy4oqxIwwkBnIFttpIS6s4kHIIESsNjK+A1bvIHes+D35yU/2K7GsEkKYWEGGMGPzhEAHQtxIByL2X//1X17Ydgsp0jzrCicCII6qQ3FjhRMiRXoQZYgjwA3iq6QXQkZcALIOCcuHUEcTnrAIBBCCT9nJo8YJwf2zP/szec973iNvfOMb/XeMIX2sdhej74mLcnMfeO75r/7qr/yRF3Sx0s4ztJQRxMVHeCYHdKVWQb1zjfyybZo42XrMM9ovfOELPZllBTq8P5BeJhNYzeXZYcgy26r1pWBsc/7jP/5j/wyz3g9AvUCKaTNMgPBsNm2DLenEwf3i/midRUE+VQz1CSO9Bq8QUVYoVc4BSoCOq4qWc9x0kMAfEu3g0YGhXkGetdwcKZeWjWvR+gjLrWGoD8oblhk3DUc8nKMo+c2RsArONR/q32AwGAyGesFsjUulpgtJhKDyvCtbaiG+bA+GwPJMJtdZoWSFD2IK8dXxGELDC6He9773yT/8wz/IP//zP0/Kv/7rv/pncdnyHAKbADeOEEaeBebFSRAl0lKbAlIFadaVVQgZ4z1pQ2hxx428Q/aU8GEvsOoLySI+4lA7pBgokQPE/eCDD3phmy7kHjKLbcckAeT6qU99qienpMPLv1i1/tSnPuWfWcaOiYPaiQj1TX55cRQvpIKUs1LLdmnqlK3T1LuGC/MHKBt5YktzWNfETX2x2ku8vFUa0s99ZGv5Jz7xCX+PKGMI8vP5z3/ev7n6P/7jP3z6rJBDhqlTVu9ZJYY0cx8Akxxs0+Zecu8/+tGPTgrp0K64h9yzQpitfmPIDyO9Bg9V0HRUFJwqOdyU1Kny0c6s10LlxfV6RzT/Wm4F5cE9rtx6jTAhcMeNo9ZHmE6Yll6P8x+KwWAwGAyNiJkewxhHSROyw7ZVSJBuEYY0Ara76moiK6xsdYZwsgIJSWNMZrsy4z3k9YorrvDbfCFj+IWQQXjY/sxWWcgunzt61ate5T8/xIusWFGE0KqQL1YLWTXluVHihxxiY0HKIZqEZdUSMgqh45puNya/xIH9oOUoBoShXJBZVjb/4i/+Qv7xH/9RXvva1/q8UG7qCVJKuckbZWO1mW3G3/nOd3z6cavcCq1z8kx9UdecU17yzbO/EGfioy6IizCkFwXXeKEULw6jPhFWXfHLlmuO1Bd5JE0+IQQh1zdPh3GyJZ1PGn3oQx/yb8lmpZ/nnz/2sY/556rJG3VJXJQNAk27YaWXHQDkEeJPO2DShHtMPeKXa0gxIJ+hFINi/RnKg5HeeQ7tYHpEcaAMkLBjh51WlZZeL0UJzDaieQehkomWg98oulDZhX5Qikr0wzoE/Fb/YRpA84C7+sNNJUzDYDAYDIbZRnQcqzcokeFlRWxJhUix3ZYxmlU8SB6riKwaQgjZ+sqbjCGZECy2u0K22JIL2eUNwBA4rkPcIKysEkKM+MwRW215BphnSyHYPM8KMWYbtb7UCrLHc628sZlv3rKCyzOr+IWsQXTf/va3y+///u97Aky+WCGFzJFn0ib/xMN5KWDVGLJ27bXX+k/9UDZIHPcREvjd737XpwHhgwhCeLE/ILCQRsg4dRC1RygDZSMe6li3DVM+4uA6q6dsGecTSNdcc41/7pbJBrV1omD7OfHwqaO3vvWtk985Jl/UOySXfFL/hKdOmXQgj0xOkI8QxMcqLn64l3wmirdvE442QTzcJyYXeOEWK8DaDrin5JmVYMLxxmjaFfcsurVZbbhioH6jYpg52Hd6S8RcJCPa8SibKiSOYacMy63+1I9C3eoJufIT5lvLF/UbLZv+Dv1pOCSsNyXCoV/cwzgQ9afQOOoVWr6qIp27vMxGM0BhVPAGTftOr8FgmE2gszHE/Xd6N2a+08vKEn27nnU3wGAv9zu9od4qVM5wnKsWcsUV5ovxk7GBcQOiAqmkfBAcSBMkD5ILIYMkQfg4QmjwywouhI9VT9JjBZA3/LItGBKNG+MR5A3iSxtghZhVY+LljcOQY9oHq4asekKwOccf9c/qJyu9/CZNyDJEi7iYXGcLNi+2+uEPf+j98XypvlAJQs2bkSlfHIif9sjKJHFRN5B20oBAUheUGcKrn1WiziDUlAl/5JWxFpJKu+YaoN0zmaB1Qf55lpb6oxwI9cBEAnkgLo7Ew0qrEndAHlilhZRTdlbHIcuUnbpnxZjyUo+suN5www0+z4DntCkLeaNe2LquZaC8jLXUH99oJm7KRfz4w44gbtoD5WBigZVfeINuNaccEGMmB/DLPYdT0A6IkzRILw6VtPcwbCXx0C4R6tG+03s8jPSWgWrEUS/QsnCkM6tiUuUE6OCI+lHwG3fc1B03jbMeEOZF86nKEWh+4/KsflWiBJUwDCwMslpHQP2Gq8NafxqH1puG07SA5q0eQRmqnj8jvYYqgfY529A+n0sMjQ10+HwkveWgmvWRK65Qn2ofwx6EjEHCKCf696677vIkB8LGmEI4xhfegIwf6gYyBNHEjoTg8HkcngWFuDLmsMUZ+xKChF/CQdR41hMyyhucGc8hjpA4nhsmH6RJniDRrPLin1VG8kc+uI5fiDl5hJCSDmFZLSW/rKwSHkJHXuPAvYS08dwuz89SbsqHQMqpA0g5hJPnW1mRpb44kl/aNXYI9UI98N1j0tOyQnqpG/xRF7ryCYkl/6Tz9a9/fdIGYos5/kmbZ2V1Ozl5gxxTdvoN9aAvnqJNEo74eDs2nzCiznTVnLCE0/xST7zRmgkB3IiHcuo2ctIjjwhxk0fKxAQIz3EruCf417qgvMTJS8og3bQD7gN2XSGU0+7DMOWEVxjpzY+EawhzwgKjodNBmLXRb28pSm1MoRLNhWL8KEqNr5S4c6HY+LhGnWi98FvdUN4ARYOEfrlG5+eIckPZRv0UAn6LQT5/0WvR3+SjmHTwg0TzjZsSVRBe1zBhOI46w4oAPWpdaXx6VAKn8aj/QsjnL7ym53H+i01LQf64z+UgLk8eqam2FwWDKTPGfPKArUqbzt4oK1au8MZAPYN7y2D74P0P+eeiMDAYVBk09b7nq/tS70sxKDZO/BXjtxQ/od+4cMXEBYr1F4dcYdW9nLjjwpQSTyG/4fV8fqf54zsz+aMtCpNxumO+6IrNF8jntxhMK2eRcVWaZhSMdXv27vFbJa955TVOJ22SjRvPks6uzskxs14BSdj88Gb5wQ0/9PYShA09FUVYZxPpDCkupx7D8TJEqXEVE0/0nLFDSR3gvrHqx2peeJ84h2RBiBi7ua7jHEdWSkP/xAMJpN6Y8OBIWpA34icOtYUIB+nTiXHIMqubOgYQjvhYkSQtyCHhWUXliBuCP02DCRauxYE0SZs8Qdg0HcA1frPiqVu2AW6aPyV7EG0IrZaBtPHHyjVjL2kQHmIKyA+rr6zCkjZh8QP5p06wzyFixEc9A8Z1ykPc+CcPrKySb+JirIQks5pMHQCO5IMJA42PNk1euNfklfQIz2/ixC+El4kL8k8dQ7L5rS8NU0CsaQt6L4mPcgDuHb9Lgea7GIR+SwkXBS/oYpcD2+ZZ8TdMR31r6DpGJY2ynkAnpiwoD0TdtHOr0kOphW4qKASUkIYlrnqqG82XQvNNnjXfuc71t0J/6zUEUDcICpYjflRRUhdaxyhmhOv8Dv1rvCCMXyXO3WCoFeqpDzcaqLtcYjAYSkep4x19DWIH+eGIQHAgbGrHKBh7ITRKtHQ8xy3OP79xJz4d5wnLb8KRNn4Y3yFPXOMImYYEEhY/lElJIWQTIq15IE9qK2j+IGlcy4cwbUgh23pVIMuQPvwQd+hf0+M3eYC4ck6+SZt8KkHUMlNWiCsEXetWw+Gf/OIHkss10uA38SP4Iy7i1zjwwzXyRH6UeALNK4I7ZcSNuLUeOZKGpkUdE5+u1EOQqUP8cj+iwI1rhAGEJz3Caj5KAeFLbbuG2qL0u2iYBB2uGBTjDz+FJA7aqaKiCM/zIZoOSgPR+HBXhaMCuKb+wvDFoBS/Cs2PiqLU30DTD69F/WmZKK+eh+EAv8P64qh+ONdBIkwDhc5MZJiWuoduijg3gHucKMJzQ32AWzIb90XbZLHw/gkSJxwKXK8FXO/L+5cf+TNYav2Asuo0QDlpzgRMbxjqCeX0E8iQEiwViFAclJxCjiE+hEVwjwJbQONWMgup4qj5VBuJ37qiCCGD4Kl9QF4IQ5rqnzghZRpWQXoaR6G6ICzx4h8CF5WwTNrP9Qi5Iw2Ng/yqmxJHBflQd4R8Ew9COA1PXKSr9Ul58avlwJ3wWjau4abp4qYCiI84qD/iwz9C3eGfNEOQD9w5EkcufwA3ruGHPPAbCctdK4Q6V+uxHDHkh5HeGULYceMkRPS3IupeqIEX0wHCjqJ5iYYLCZ0idItKKdA0oxKHYuOO+ov+DtNBgSrCdEM/cRKCeoCsQm61TjRefuOOG+Fw5xiGKaZccX6KCWeoRxS+b2FbU6kG4uJViYO7Ev+X9R+4TPurGYg6j+QqB+DSlMT707qIk1yI81uMKKK/DYaZAONHoTHE+cieFUZc257L0LFey8zvaB3gBjmDNOHGeM+4r34Ir/HovcAdO0FtCHXnN3Fp3NVENE4tV/S8GOCfMqkQFnKqedfylIIwLxp/aFfVO4otczl1YygNRnorBB2uETpdIagiQTiPKl0ldBxZoeQZCY7qrtc0fL0jvG+Uk3PyHbrrEWiZ9LqK1o3GgegAB3Sgwo/GoW7407rjGm4MDlrvBkMIbV/lSiHE+aFdliOziWi5VaIodD2KqP9iwsRBw5Ub3mCoJuL6rwqcd/I88BsHvRZeD91CKQXWT6bD6qMxUWq7N9QGZl1XCY2siOiMIfkCPOjPMyb6dkEImYJz3fJBGF2xBEr+6gVRRUPeyKMSS65zTlkol0p4TQV3wuPOUf1qWAirzmjiB9F61fAarx41HHGoW5zEXTMYSgFtNk6iiLYzbcNRifqLE42vHpCvzOUijLMYUeh51C2XP4Oh2oj21VAU4TmIts9aYibTMhhmAtH+ZJh5GOltIGBo6lv5eOuivgWvEmgn1AGG36TDuZIxCBtQgqakTokufvT5B67hP9dgpWR6tqD5VqMdcI6bCr8Vei26FVnrSY9hHOEkgNarAv/Uj9Yr/lgxp14QDRcCN331vsEwU9C2bqgeQl2guiFOVIcWclPhml5vSuT2V6pkM+p3jxvmFujfhSTjr3i/IeLcSkEYvtK4DIZ6gfYXa9OzA/tkUQzKbYyVNOJo2OhviCJ551ulPPSv5eB173ynjIfvMXpClJIf4sM/AoHjd+hG3CHZRTQPuAH1o8RN3UPwMgFeOgDp47ulpBWHMKye65H4ea2+vjEQ6DXeUEi+eO18HLkO41JDUckr5xzDcy0L4Ddxaz3ob/zgpvVFWH1JlcZDGpRZ603d8ce5xk88IKwXrvN2Q8g0b3lka3mxIE5FeK6Ic8sHLW85yJmXefbJonLqj3ZSq8mi6H1RCX9XE5XER1jdfVIpNI4wrmi8/A79ZcT/mnSvBIXiKDWNauRJEcZVbrzVzA8oJ758YXghDlIK0MNz4ZNFDz/8cM5PFoVISXn6PgTjRhTclzj3clDtdlYMis37bOTN0DiItqNK+wSfK7JPFuWGkd4YVKKkyg0bDRf+xoCGLPLttEsuucR/dBoCxUov5b711ls9OWAwDsMVmxfqBL+ko6LuDOIq+MFg13iV6Gm6nIekNw7nnHOOnHHGGX6w5QPp+GeFOA6aTnhU/6SpaUEISJtV6Gc+85nenQ/LI9HJAC0r4XAP80udUna9FvpDSBMQhmuaH/wQlrgJj3tIejUuva5xhL+5ruBcfxMWwnvNNdf4D9Pfeeed/oPzkKdiEI03iji3fCDPWl+lImdejPQeB+qC8LR12jDlpU3VClr3uY71AvLDxI/2m0oQV8ZoeUM/ceeVoBpxGPIjvGdRMImETte+yhirejkfCGOkt3SE9Rrej1z1XYwfMFv9qFA7UcxW/gyNg7AtFduucsFIb34Y6Y1BJUqq3LDRcPqbARYyR+N90YteJOvWrfMf0OY6AzTXIUH/9V//5UkRqyA68OKH62HcSs4UnDPos3qIhP4xuDHSOeKHuLlO/BoPEhI44lDjHH9cCw2B1772tfK85z1Pbr75ZvnzP/9zWbRokX+dPeGJM85oUJLAEcPktNNOk+c+97ny29/+1hNbVowhBXyL7i/+4i98fX3pS1+ST37yk3Lqqaf63+QjzIvGSVmVoJIHLXuYFy0fYSgjfqgHfuOHPHFOGABRwz/1xnXcOT927JgPyzl5AsSN8RWSZK4THlAuyvuP//iP8uCDD8qnPvUpuemmm/z39gD+EfUfhZYHhOeKOLd80HooBznzYqT3OBCedsGH+devX+/bgN7zWiHn/ZmDiCtrXJm1X3FUUYTnhvpB/nvLhEXmbOeunXLfvff5MeSJHU9Ia1vm8yeq7+NAPPRfI73lg7rN19cUcX7qCcX2/3ovh6E+oO2p2HaVC0Z688NIbwwqUVLlho2G4zfEaufOnd7gv/rqq2XFihXyi1/8wpePgWr16tV+5ZfVTQaw//k//6cnvmz71Th27drlBzoA+TrppJMmyRnAD0SVVWNIGX4Z1NlCzQoj3yvDCICU4Y90Q/JLWqEfthXv2LHDXyc8hjorVYoo6SVN7glbzFjBJr6o4aAkgWeZwbOe9Sy57rrr/ErxF7/4RXnooYfklFNOOY70fvzjH580YKg7JQ2UGWJJHlk10rJDMnDXb8aRJ+KCgJAHrTcNQ11xPPPMM70fQByUn3Qha8QDKQa0UfICyaduIG7UKf6pN8qNG1vYNa040nvDDTf4eMiTfnsv18pv2K7Cc0WcWz5ouuUgZ16M9B4H/NHOn/3sZ8vatWt9e6p3g7rRoO0tZ7ssgIqedK3MrjHkATpq+tEfMgjOUxMpr1+2bt0mt9xyi3zhC1+QgwcP+r7HmBbXPgD910hvbcG9K6Uvzga0fRVCvZfDUF8otl3lAoSX3ZRGeuNhpDcG5SqpYsIVGzf+IGUQove+971y1VVXySOPPCL/8i//4suAcJ2VzFe/+tWeXH3mM5/xBjaDMuRr48aNnjAtXbrUG+F79+71BBGipiQNcA5phBCz8gp5ZfWUtCHNDIoQD7ZXQ+AgZBwhh/ijzjEWIJ3nnXeeJ+MY6Qyw27Zt89cxIsizkl626f7kJz/xfiG65Ilnk5l1J/6QmCtJIA9nnXWWPPWpT/VE/4EHHpC77rrLh7n//vunkV5INWmzMk5eIMz8pkyAvEBe8YuSoJ4gvJQdQ4D4eG6YfGPIUEfEo1srqYsNGzZ4A+nGG2/0cQLKcvbZZ/swalRAbKmvc88919cZExO0VcD9o0wQG+KlDrhG2uQlSnp/+ctf+mu4MflAmVjx3r17tyf2UYTtLa7tFdseFdSbkd7C4F6WS3rphy996Uv9owBM1MxUWd2tnVeYam5Tq3+l9odyQT8y1AZat9OqOEd1J5MTTqcPyf79++VHP7xRvv/97/txBd3KWEh7iLaJuUJ6sQWqSXrnW5suprz4YSzQNsRvDRe2K9zCthaNO3q9nhHNu6E0VFp/Rnrzo/m66677YPa8oXHkyBFPBiB2EIcQYSOqVocsRfkU4zfOD8qSFcinP/3pnuRQRp7fhYhCiBDIIgM2pH/79u2e7LJCCfl8/vOf74kChBZSxYokq4jEiZAmhJgVpSuvvFLOP/98v5US//jFQKc+iRfDG0Oc+Iib68QJmYPUstrIqhQCkTv55JP9EVILgWVwxVggLGScvENIIYibNm3yHRW/DMoQS4iignzizkrwk570JE8eIbjEq1ujIYrk8bLLLvPXyDtlgZhCHjhCaiGJ1BHpkx7+X/ziF/sVc8qDP/LDudYz9wGQDmUgL+T3Oc95jlxwwQWedBMnhhJ197u/+7s+j9wXhMkJ8v7GN77RExpILyv41PfLX/5yueKKK3y61Af1Shzca90mDenjHlEPEFvqjPTJJ36536wUQ3ypg2q18TgQdzHtuSSkc+cXg4x7SZuh7a5YsVy6e7qnTYrUI6gj7vuB/Qf9xBCPIHBkkiVf/XFf6UO0iZWO3OOf2zkT4onBPBJfbk7die8zHJtmSLJpNmWPJtWUzL0F2tX0dxSQVHQm48jKVav8pCV6l7fl5+qruDEGoK83bdzkdTIvUMz01RwJ1QkYVw8dPOTGy61+ohr7AT2VD45qZc/yY7bKXvXxqAgUU9bQT5hH3KN5Vr9xZeFaMekZGge1vJ/Yvwg2J/ahYTpsv1wZmCklS8dgpREyw0AMkXzJS17iCQArjTzvByFj9e8HP/iBJ5aEYTB+xSteIU9+8pP9RMCvf/1rueeee/zghkEN0WOQh6SxkoQbnYPV0Ntuu82TOK4THhJGnJA3iDdEDULIoE+ckE2IL2SYeOhsrDyysgVhJgyrdBAWjAvqjqO+ZZnVS0gzpJE4IJLEB/FVEIa8UxZWajFIIJ+EgZgirMIqMFyYpac8lJ08sp348ssv92SUcKQNAYfwQh4hw7/5zW/8hAlhIaNPe9rTPFEmL+SBuoZscU7dYTBBYrkfuPGb+0Ia1BMEhhV4XU2GILPSSzzUO/eINCC41BfpUy7qgIkOjCnyCoif+w0Bxj/3nFVu6vsFL3iBf8aZ9AmPX0PjgPtFG6NP0DeZgFqyZHHxq0aMn9WQ+Yig/E4lzLiE6ZsUIaVCwxVQiYwfJ510otOjz5HnPe+5fsKUiUSd8DQYQhQzxuIn6k/dQgndowj9xV03NCbsXs4ejPSWiJlsrAzEkCO2IUFEWfF61ateJR/84AflrW99qydMEGEIKtcgZKzcQuJYEWU1ked8//qv/1o+9rGP+e3PrPCyLQtyxguxIKCQ0x/+8Ifyr//6r/JXf/VX8nd/93dy++23+7hYVdQVWMoOqYJI4pd8cIT4QdQgdGwP+8hHPuKfuf33f/93T4wx5skTZFTrD2Piy1/+svz93/+9vP/97/cv4gKQRQgu+QxBGSH/PM/6s5/9zJNOtiB/7nOf889i4V8NFMJDptkSTB4//OEP+2ehIZEQRMoNCb7wwgt93lk9/5M/+RP5wAc+IP/0T/8k3/jGNzzhUALObDjQvFMvTAJA7qlzSC5pQ0ghwNQRK8RMJEB6+c0WZsgvW11ZveT+sHoLgf/nf/5nvy2bfH7iE5/w5J5tKaz+QnAV3GMmJf72b//Wb3n/vd/7Pfne977nV3ohS+SDspOeAnJPvmey3RpKA22HNsl2pKc85cmybNnS7BWDwTANIQEuQiYnF0ARKnDZ8mVyxZVX+p0W4ZhiKAwbY46Hjr2MwyqAdqVti+uM2fwO/QANz7XwiBgaG3of7X7OLIz0zjCiDV0lH9iG9LWvfc0/z6srtpAmSA8EFbIGQQIQTFYVIYU828xKICucbDWG3LJSChHjN0cI35vf/GZPXiG2PCsLGYMMA1Y6IX4KSBjP40I4IXUQc7YPQ771ZVoQdfKD0UC+IXU8J0X8gCOE8ec//7lfyQbExzPLEGdm2eOeT+UaxLIQIJLUE9uyIbUc+c32Un22mPyxYs3EwHe+8x1PGDF0INes+rIdlbDUEwQ5CsJRXogsq9nEy+QAYagjJiqoX/ILKSUeCDLPMUNqIcHcI+ofEq3b0Fmdpi4g3azYE6eCVWhWg0mb+qbu+c1KNnGwMg95Il5D44D7SL+F9HJfDQZDbVBgqPVYu2aNXHTRRZMTlaWM1fMdVkdT0LqA0Oq5ShT4wa5TIqxQv0qE8RcXXz2JoTzE1WU5YsgPI70NABQhRIbVS0jlRz/6UU9SWeVj2zPbdF/3utd5gsozO2zPhSCyRfeP/uiP/Kogq72s4kIoIWGQKhQphPYtb3mLXxH90Ic+JH/5l38pf/AHfzC5BRqEM4/khVVMFDTGOtcgc2zPhJzrdlzyQhoQXEgkq7TkjTCAOPitcesKJWGIj2MU+I1zj4I8anykx1GfzdX0qCMl/3/8x3/s64fVaVap3/Oe9/jt2JQB8q95DkGckFdWbiH5kFPCEC+EGSLKyizPVUCuEZ67hnhT/5AcrvPc9Z/+6Z/61VtWvTnqNmjyp/cAMIkAqaUcGGMQXQg2Qr2ogWZoHGjbZOKIFd64tlbvGB8bl6HBIROTKsiwG0OGZXhoJCPDIzIyPCqjI8iYGwfHZMyLGz8KiWuX42OOSEykJhd50f6FVCQvpFq37gTfJ9HXhV70ZDge5RjgGma2pVpQewV7hngZt4G6qf2EMHbjBvCnedE4VDSMwWAoD0Z6ZwgoMAZPiEupzwpBgCBKkES21bLCyDbXr371q34lldVBiC8rg6w4ohgxpHnGFyIKOYMck/Ydd9zhV4AhopAmttHybCkDvG515i2zrFTqymwxgGSSPwV5QEkr6eWoZUZpz7byZpAhD0wmUH8q1BH1xhZutlFj9MTlU1eoWcGGnLIyQB0ycOHGdnQIDc9Es4LHajH3DdKKHwg1dcaqLelCXEmb+8QzzmzHZuUbPwruKXEC8sT9wg0xNCa4v7RBVvm7u6c+7VXvQJ9BQCAjkAvegmtiUrkkJTnuhGP2PKPjskfX1mhvjDWFBL+EId50aorMFCK+jAuLFi/yE8TkQXWuoXKgNxRK7FTmIhin4wTbiKNCSa1C/WArhP7iwhoMhuJhpLdElKNsUOiQVlb7GEhZGWRgLRY8V8t2ZrY+QtZQehBnXmQEgeVFThBjtgQTL9dYeWVL77e//W3/LVvkK1/5in8BEs/rsupInngumBVK/HL9s5/9rHz+85+X++67r2jSqy96YlWS7dT8Jg8YDKx8spWYlzBB9DAg8Es5ZhOUjUkIyCYEk+eC//M//9MLEwm8WIq6gvTGDcis0kLi2YqMgcX2ZJ7npdxMSFCfEFy2mnONOCCz+OUekTb1AxH+1re+5esd4T6x7Zu0uUfUpQJyTboYcsTNqrqu6uNGmSDC4eBpqG/QhmgH9J22ttntE8UCAgEJYcUN4mukwFBtoC9DoZ9MpDJbO4uV5MQUeeZ3ysUzCU7z8CzGKh5NMV1aPXAfFeH5XIa2X6C2I20Z0WsIvwF+1J+GC/0bDIbKYBq9DJRCfFFUDLgQXt4U/Id/+Id+2zHkpRAIC5lhqzHft9VvbkF+IKwMypBJSI/ObrONGLKEksSdcz68z3drIV2s7rK1Fr+sABMP5OnHP/6xJ1/45ZM6PJtKOvlAPUBeWR2GxPFsK3nFyICUsXWa52R55piXRpGWKu9yjQmtTwDB01XwUsFzvtQVZeBe8Jwy5Beyyco0ZJJ4KQv3IA6UkckByq/Enq3N1CHbnnGnrrnGCj1pUF/EyQovZeGFYtQ394f08UO61D15w6+CyQlWBCkz5JrwrC4TByvE5JuXhWGwGQy1gNdJrk2ODI/4c4NhpuDogNeJRYtf0516XnKCFV/arHN2l925u2hNuOagzkNdMV/0BuXE3lF7hTbJb+wJ7C/aJL9V8KdtV3/jV/1pPc6X+jMYagEjvTUGyootxpATvgXL24l5WVT4cqhcQOmxiqvfgb3qqqv8i6v4bBHfzH3f+97nn8XlGVC2wrJNlmdJebkRpAh/+OHNxO985zv986J8K5YXHkF+UbyQJQgeL8XCL8+34o9P5sS9wCkEW294Jpat0KQPUX77298u1157rRfeMM3WaYgaK6pKHlHi4QpmIUwaMU6Ig7ioV1ZWX/SiF/m8lgrqlHpi1ZXv6lJHb3vb2/zztTzf+4Y3vMHXk25JD/OgQhkgrAgkHr+QaV4WBqlFyC/XIKTcG94EzeTD9ddf74nwU5/6VP8M9bve9S55xzve4e8BdcjLxCC/vJRLwf24+uqr/f15/etfL+9+97vlmmuu8feSlWU+W8WAGO4i4Lfm12CoFGwtZUuzwdAoQAcy5mQIBFudnWOW+HoYh6gJqHfG6fkKxlzGfsZjzqkLRMdjJa/YUYguBOAeCuBa6KeeEc2/ycyKIT+M9JaJUkiEEl+2n0I0IbI6+5cPKEu2QrP6x/OlSp5ZMYZM8lZmVv14TpftuZAsFCPxs0UZ8gUp5TM9L3vZy/xzv7hBjljlxBDguWC2O/M8MPEirNjyXC/xQeyIk3QoM3lghRPwGyUMcWZLLm8mhkBDtvk2L29EhoizXRhSTFwQQwg5iHZQfkNoqaNcICykkVVp6pMyUQ8QQvLC9VyEmjpn8oB0OCeeH/3oR57U8nkiiC71BHln6/h///d/+/xS9lzgeUxd7YWgUj+s7nLfqGNWfnGD8OKXtImPcv7bv/2bJ99nnHGGr69Xv/rV/hutxMUbpXlbM3HRfthmTX4pH1vdefkY9czKMavE1D/xNsKgaGhMQHZ5TtIGVkOjQXW+rpx54guyw7g16cpA/UalUsTFGSezhbi8xAnjN22Pc8Zn7Dp2Y+mjanpdhd8g9IethTui8RoMhtLRfN11130we97QgESwXRfCAFkIERLUUshqIRQblxIRyCHkBxILGULB5QPxo/AgXqwKQkIpHyQKgsUWWggvz5BCUhnMdWsrdcEKJP4ICxHmBUs8A8yROMmX1hnED2LFSiUroDzTyuokZJUXOwEULWlSvxA4VqtVGVM2CDXpEJeuULNdmM8T4UZ48kiedGWarcWUUV/KRPyIvgVaQTqaFv7IE+EhluQZIU+QQuqYPLKqygunKCfxU1ZWpal7fpMXwlMf5J/4CMdnhHgzNuUnz5D+OJAfrpEn8sPbtUkb0q3P/BIn94Y0aKPUGWnrNeoBd8JTBp7x5Tls6o78Uze0E/LOy7WIhzxTTu4v31eG9NI2GCSRWoIyV33ATefuR7RT6pJVfbZ3r1ixXLp7unPek3qBtvUD+w/6fkWb48j9DOsPP9xfdhWsX39awUcKYlE9lRYL8uvfhDt+/Cc1DIZGAzqMMSHRxJiSdXRdcvLcAf26ZfMWP16ia6KPjDDhykTxpo2b/Ls0mJxUclLPYEL50MFDbpza6u0Ixhh0UD44ipU9m0KpY0Cx9VLJ2BINW+t7UUz85AmdydG3OReG35wjuFP/HBGuh/HiB4TxAHU3GKJAF/FuHb4cwi5Lw3QknBIsX8vUEXh2FcLBahgDVYhQiRSrqIpFIb9cVz8MnCgrDPlSAQlEOfLMJqLxMGhB9iAGYdlQkBAl/OoKIHFgeEO8lLAyCELS6CT4wwDHjxJGSFQuQ5dyaZrkASEdfVEXK8KQXdz0bcfqP1e9kRZ+wrJE/fIbo4QyswWY+Ek7HBSKAf4pJ3lkdZeXCVF+nVTgGd1C5CrMZxzC/HAe/uZ+MuEAmeM+qRtEWJ8pDkEZyR/3jvtF/iHpHLl3GF1RRNOPIs4tHygveSgHOfOSyt0mmIzg2XVWwnkh2KazN8qKlSv8xEE9g3tC/3zw/of8JA6TSEx+0GbD+qPvcV/Z4v7c5z7Ht7mSkb8JVgxeXDUwMFhyWzHMDmhf3KuZnBhiIhLdUO+TUeRRV9Cam6fegkvTTgQ8gonF67/zXXn/+9/v9a2OX4C63bN3j1x66aVyzSuvcTppk2zceJb/1BFjUT0Dsr754c3ygxt+6CeAmWzNb484suX+oihHF5QyVpaKXGELpVkJiimPCqBtEIYxnjbIb/oqYwXu+NNJaw2j9pf+BrUsk6HxwffF2T3IV0P0PUCGKdh0UYVAARVSQuoHw6Acwgv05UaQVFZRWVWFrKEUuRbNAwoVYoSyhDhAgEmb5z+VzOIH8gDhIl7IHquOxKUvUkLh5kKYJvFAvDDqyRfEGeWOW9RgCBV4FPnSU5BvCCploEy6ZblUEA/54yVjxIMBQB1QLogohhHnYTmrCfJP2uSdOkMg4czQRQkvfsiPkiZWhTHMyD+kMI7wGgwzBdon/Z2+qKSevgyhj7qha9CFCKQ/1+MI+UA8xeiKaoHyURbyTlkQ8q0TezopGQVuupqmOooj4cN6qSbIF3mifmsF6j7MO/qeNGfynpQL6p98Zm+HIQ+oI+orKtVAteLMF7Ya8ZcLtR3U1lLoueoErjN+M2HENYRw6o9+pv6QWtkjBsN8gJHeKmEmFBFKEOIDIYXscF4IkFFd2dXV3VpBFTWKWRV4qSBcNI/8DkWhg4AOBLn8FQJ+ddBBNL5woAzjDWU2QB6ZSOB+kleDYbaBAQfx4dEAjgCyx+r2LbdkPv2lbuzKYcKG3RQ8+sDjHqWCnR7lkOVyAYHk0QJ2E0HuILs8BsK7BXj2n3LzGEkUBw8clJtuumlyEhBoXfFYCpOR1QT6gHyQVx55ALXQU9R/mHfuI59vw70RMI0EueqZJVXeUKDOVMpBGL7cOCpBtdOMlidO6Ht6rhNF2EVqZ3Cu/VMnjNQfYbiuNhX+uKb+6hVaXpPZE0NuGOltQKD8VIpBqf7nIxpNUdj9NMwEML6GhjLf4c6H5pZmP8HGM+ls2WdVFALE4ybf+953/S4KwE4S3kPAzgqMNwigrnhEVz7VDaLMCmsI/QwbxFnB1k3i51gsSIO41dCE3HLO7pgwPxx5lIByQPZ4RpsX2G3atMm/sA8SzMvvohgaHvK7csJVV8oLcWbHjhJ30qTOSBc30sONvIX545y4yDfx8JtjCNyIA3fyxX3ALQR1SlocoyD+fKu21DEvP+TliuqPvCG5wvIbd9Isd7dTNUC9TZOsu6H2oL5LxXH3K0ZKQbnhygXtPkyL39oXlfhyXXUgQj/iN8IYr4sHet1gMJQPI70Gg0O9E0gjuIbZAM/zYoQVQlNiavUC0qnbfSFVvFkdQgcRw+CD+PBIBbsrIGS8MI7VXogsJJkXvEGeWLG87dZb/YoqJItrxAupZiUTksnz7xA7yK9+hgx3/IZEE5A211kBhXghnBMXcej3slmBZeWSl/CxUk2+MTYxWImTvsjLQi666CL/pnseUWC1kHJFQd2RTmisck48uHOdfJEPVoR5WR3f6+Y5cPKkL7ujTnn0grxSTsJzDULNMQRGMvVEHKy+UiYIOvGRNmGoH9JiAkLjIz+sZFPXfAKNd2NA7qOEmbrmpX2EY9We+wy4L9Qb4W+88UafDmH9c6QuL9xj0iRtrs0W9F5OEhJujanXqoO6DaVYlBOmHNQ6foWWRVdsldTiRhvkd5gX9Qe0jao/g8FQGYz0VhEzQUxUgRYDVa4ozHqGKvWoFFvOaqERiSWkAqOc+poJzPQ9MTQOIL28EA6iA8FC//AYxoUXXuj1EKQNcsXz6pBe+httt6+/z5M0yBGkDkKkJHkgu8oLAYZgQfAgZ4RVwxC/rDCzZZp48M9qZLRPkDZkTVei8cfKLaSbcBA8CDNpkV9ILM/OsyJLeqxkkyZkffXq1f7TYZSZPLU0t/hn8eNAXKwSQygRykGcuAPqBXdNl7xDwEmbSQFeOMSRLdGcU0eURbeIDw9Pf9M94Dor0tQBK6zER73Sf3Xll2v4ocz9A5n4qQv8cu/4zX0krhCqAzDOVWeSb+4f/ombMpIeZaF+SINr+CPPXOcezIY+IU3EjzEp02f1hNloD7lAXugHUSllrKV/qH/6C0Ic6DbaP/2BdHDXsqNTEMLhh/4Xpql9zmAwlA4jvQ0IlGN0cIj7jUJFwUavFQtV0rVWssQfJ6DSMswVMOgh0XrQgZP6mu91ZKgBSuj6GGrr16/3Rpq+FZbPueDG5AwkCGKEG3oFctTS2iInn3SyXHHFFf5b2bRlSClHiDHEkhXVU049xccPYYJcnn766Z5Ms7WY59txxz9vrjz//PP9Ef+lgPxAbC+44AJ55jOeKU972tN8v2K1lyOEFyHvgDxClH/727v88/XkMw7EywooK8gIK56Qb8LTZ6kXCC/pUQd8q5v0WOFlggBSTP1RnxjLxEcdQ0oJv2jR4mxKGRAv+WQCgjcMP/3pT/fxQLzxzwsOqaPLLrvMf9KC+j529JgnqITl/uh1VrS1vApe8kf98xkx6op3S5AnXqjH/Xr2s5/t7wt5pR0gkFzaAW8UxR95h3zPls4i3UnJus036BhbL5iNtpAvzbhrjMH0PfpisfnVesa/juHYNNr/6av4UWKr/jUt/AL6YbFpGgyGeBjpbSCwwqBvLY4OWCjDUCGiIFllYUUCY7AcEI6XZpFesSBf0bwVAmmQz6jgzioFKwUYVbVGvQ4o5AujF2EQDOv3+c9/vrzsZS/zBmUpA3E5qNf6mbugvjOSTmRkRkDzyopPnWOMRIHO4e3wTMRAsCCibP1lCzDXIFcQHX4rIe3u6vY6jTYNeUVnQTyTziCEGPGpJ/8t6l/c7OOMA/6vuuoqryvw+6Mf/WhylbMU8GZ08u+JXnOT35YNoWMVmPzjDmGD4ALyCJk788wzPMkj73HAP8QTMqhCfrWckEP6ln7qjTTa29t8X0cHoocpD/2bPED6dVWbuPETBWXBH/GRL34D6oS42LrNt8ipX60r7gt6l1Xor3/9637rMwa3ljcXyDvxU1/cS+qKT64xXgHaA3HyDPA3vvENv+V6tkGeTZ9N1UMxUm3UOv5ikSt9tZ9CoV3TD5mQYjwuRseortOxm3j4pAz9ncko+gtA13Bdd6sw+bRhwwavD/RaOPYbDIbSYaS3iqim4lZFrIJyZYb9He94h/z1X/+1/2YpihAFHAWGFMrx7W9/u//+JysIGJQYH8XkUY2Wq6++Wn7nd37Hz+qzNa1UI7JYPPWpT5X3vve9x8nf/u3fyr/8y7/Iy1/+cm94MRjMNvR+zCQYNFl5YRUFQ5b7y73EQH/BC14gr3nNa/wqE6RCZ4WrDS3zTJfd4Oo8ewQZ4qvC9sykpJNjkh4fkdT4sKTGsjKalexvrqcnnF/6MPcwiDRdgMwWi4TTGxA02iure5Be2qgafRC1xx9/zOsiNd5CQy48Z3WTVVFdraTtr1u3zl+LgjCkwcokE0CQt5///OeeaNFPigW6FFKuk0eQaAxbziFwrB4TN8QO4HbmmWdOGqaadwXhENzRp/hBCE9+cYeUom/p05ouBu/Y2Lh3h0wycQDhJz/UB79ZOcYfhFfJJSC8Qo1pzRdpMJFwww03eGObekVvkDf8IpTlec97njzrWc/yedTt5vmgZVQB4TnknrGLeF/0ohfJc5/7XLno4osmJztmA3pvGNP8FuegP8wXhPeoVGj95ZNcKHR9tqD5gpyeeuqp3vbhO82h/N3f/Z187GMfk7//+7/3E83032LG3EyfHvMTQ/St173udV6noS/RUaSpOybo5/QZ9cfL8vSa9ulGgtZrVAyG2YCR3jJR7U5cKC7cMHBQgGzrQ2FiNDBLjzHD4K1bZjAqIUkYNGw/w1hEaeKH6whKlq2GGIb6fIkqZq6jdFHqCDOeGIOED+MIhfgIS1z63F20TLmE7Xakw8wmRiZKHwFsoYP0si0O40zzqII/jGuMbJ1JZWDgSNzUCXkm/5BC/BEurgz4RXRbHvFCtAkPNE4mAHBXv2xN5Ki/KT95CeOMpqXXEZ4dJAyCUYqb1jXxkXfqAIOROsI/ZeQaZWKLJVsTGUA1jwj3gOtILuOf+iY+0oJoUG6E+DTviMaJGGoLv6rr/9y5/p9mW1xWILvi7oknvK7d9e2T0R0Py7G7b5Vdv/ihbL3hW7LtBxnZ+dMb5PCdt8jI1ockeWCPpEaGMsTXp5MRf545eGRSnHJzlMb9d7zgHgp/rW3t0t3TK03NLS6vCVm4aLEzDPnEFquRCde2U44IL3Ptl0+asWPFDUGIH4r4ljn9lWfcMtcOHjzkdNwR10YhoPRF6iLhSFuP6yuHZfNmXjQ14vrgAddf97p2y1uXh51uc+X0BXB5zQppLlmy1BHv7XLffff7sAjXSIs0BwYG5Z577pX7739A7rjjTqcrxuXkk09x+UrKQw9tlm3bHnP9n8/yUJYJeeSRR50O3e3zFqalkskvnxJqdeS0zQv1QXqjo+xeSciqVaudLl8kt956mzz44MPT0sU/1x977HFfB2vWrPV+77rrbkdKW50RDdnO1J0K9cNxYgIdArGjIjJlJC/ETX6pK+qwv3/A++X3Y4/xDPNu57/JX9M8htLR0enGhw5fVw8/vMXXDeFJV/PCb9wzeVzqy3DgwEEf5759++XggUNT99/HGwfyXQ2Jh+myTB3klUj9qXu5KBR2Mt0SpJpgHGQ8xIZiguvkk0/24zHjIbYW4ygTzy996Uvl1a9+tT8nDH44MlbijzGXsRz/5JFxlvEam4uX1mHHMUkHCcY/fvBLeCaxmCRiN8iJJ57obRz8cA0/xM0EIu6km08Y0/HLMXRX++oZz3iGvOUtb/ETadg1+ohDKNg62ATEQzmi10PBtqL+yC/lzXd/9P6ZVFcM+cGIYygRs9GwIDPMKkJGEVYdUIxRhYtS5Tqru5BiVgogvJAk8g3ZQlg5ZXsNKwcodvziR8kY6REu3KKmaUCuUPYciRM3/EPKUdLExxYeVgpQfMUAZQl5++pXvzr57cuvfe1r/k2grDSjnCkvBJA8oli1DChs8sPqBfkkLvIDyDPlYHAhPM+wEYa8ke+oUF/kXVdUdLJAQbzUFQSc8kNCiRM3frP9kGvUi9YXAiD3pE0a5FPv1apVq3y9kR75JP+EIQ6uc41VmfPOO8/PQBMHExEMQLxBla2KvICGsOQPd8KTD8pBubXM4Wo59UeeyDNtiyNlIT3Ckv9QZqPdzze4YStz4pov5/zS/1nZ9ZJ27WnCGRgDfXLw0c2y9dabZMtPviebHdnd8r1vONL7Tdn2/Yw86n4/8r1vySM//K488vOfyOEtD8nY0UOOLGc+ewOyKU4eQ3jCW6R44utIzMqVq1yfPUNOcW0VgoTb8uUrvNtppzGJtsDrGq5BgJc6Iprpr44Arl7l2iTbiJc6HbfR5VHkqDPQIG6QPZ5fJSx9hXggb5BPiCRkFJJMehiV+Id0af7QZRs2nO6J5LFjfZ60cb5yxSqfF+JAIHrEw3H16jU+z6SPUUgaSgTJG+fkAYKn6YTS1dUt69ad6PuaEjydBDjhhHVOF3R5InvKKad6so5xCgmlvtav3+CJ4XKnYyCN1AtlotwrVqz04RYsYNV5Kj3yhB7Gb1dnt/9NupBj4ujp6ZWLLrrYl5c6oFwnnniSzyd+0UmUHaOYtMg7YcM0ILzExb3LGNMTPj+ZVf1Wnx7lQodk8rrC30vSg/hS756Iu39hvPHAU6ViiIOOkbng9UNQhbXW//UwvjDOMX6SF8ZL+gPb/Nnu/+Uvf1m+8pWv+G362DWQUuww7A61mxh31dZAGFOpZ8Z4xmDixqYhXkg1CxKkA5ikJl7Co7+wo5gIZ1Idewe7AD2CrUPcxIktwTVNHyEe+i/EHVsGvxz5jTvXGe9xu/zyy/2EOgspxIsfjYc8omtJR+0I7A7yoS+lQwhDnrF/dGcKNoTahwZDPaH5uuuu+2D2vKGhM3HMgkWf/QqVeyFFXwiz2YlRSmwFRmFh2DD7BlFE8Wi5UKooqde+9rVeQQJexKKfrMDwg6CxgorC4wUyPF+iRAxSRBnxQ1rEyxY3wpMmhoy+QAblx+wfcZI33IiPGUwUfMaAOjip1HOBcAwApMN2ZpQ8eebzIqxEs80HBc2zYGx5JK8MLmzx5qUvlIM4yCt1wsBBHQFIK0TukksukWc+85k+bxA9FD9lZbBQUGYGG+LjGTzipG6JjyMgXq6zMs2Axoo6z+gRD3Vzzjnn+Pok3xo3Awd1R5wMHtwj2in1xmo8hJ66JiwDC9coH+HI+zXXXOPvlw56pEPeGRAZYMgTs8rUG+EoG/Ew8cEzv9wvBlcmDFi9pp7wxz2jPkiXMrJVmrLgn22Y9Cfioj0QRtuYHquGdO74SJ/7Tfkp04oVy6W7p7tgm5ptUGe0mQP7Wd065PspR+55qEPww7148pOf7NrUab6dxNv/LkwiQ0FdABnt75N9mx+W+37wXXnwph/J9rvukP1bH5XhA/vFdTxJHjvqpW//Xtm7/XHZ8cgjsnPrVkmMDkurq7tW145a2ts9qXI31KegCH9BTiB0ue/Q8cAI4l7RNrlPhOUe0t5oh0zkAK7R5yBL9FOwwpE9dAcGk07uYFBhRLH1Vv0SDjJFX8boROcRBnfCse2YsPQhBeeEJ4xOQGG0rly10tc7KzD0WXQKv0kPw9PH09zk00P4Td75NjHlRA9Q5mibpJ9QVtKhDL4unBv5wJ36oS+Tf66j4+jf9HnSpTz4p+7QGwh+CctEIOHxH5ZR0/RG6MLMVnPciEvzjq4lTtImnbPPPtuXAT/0e9yJ86yNZ/k0SDMKvT+kRZ0Tnjrl3hCWIxMX+CNN4qFOyRflQ6L1VTvEt17yie7kSB2F3tCVWzZv8Z9tIp/aPhWMbbTlTRs3+Xql/PRtH08dgzHk0MFD8uijW71+xyYIx8A4sLMkilLKqfpOw4T6byZRTJ4hvdx7+heTzNz3n/zkJ/75dz67hTC20+7ZfUYd6ovo6FP0AbbvQ4gZV/lNHTP2o6MYfxkL0C30Q8ZdfuOH/GEvobt4oR36kkcReLM7NgN9iR1+jNPYM9gggPcKkE/CM5YwptBmGf9JF9sCmwQ/2Mb4ISzupEUeabu0YcLhh3oA6EfsE+LBVkEXYGszltFviAv9gd2E/kJ38BgDdUdbQ6fizzBzUF1M+0HPGqbDSG+dIm5goBGj7FCMGFkoJmb5UCyAMBhhGG2QT5Qzio5PUPC2UEgtneCNb3yjvOpVr/KEDYMEBY8Cx3hBmUGmOI+SXpT6W9/6Vv/cHOEgpbyJFMXIsyc8W0pcpIEiREFjEPC5inyAXBIO5f+DH/zAK1aMU9KmDBA3BhnS4zuPuP/pn/6pT48VUMKivCGjDCyE4UUTGFgoY/KMIkbxkzfKjX8GNwYMBWVgyxJEkEGBeCEjGJbEycDDoMB2IAY2yCF1xOBFnZFvBgYGCJ65I34GIMJjXL773e/2yoj6ZJDj+Wyeu6aeyA95ZTs6wj3jfpH+m970Jl9+jEYMLZQagyff8+SZbcg87eD666/3/YCZ29///d/3R+4N9cv9ZSAi/9/97ne9P8rJvaR+aVcMbpBL8sGADdHg/pKPEFXvQ0Z6c5BeDI+sX+fmH+dNTUjahXn05pvl55/5tNz+ve/Iqt4u6XX9vMdJd2ubtDsi2+akxUm7q6dO13a6XLqdMiG7H9ki+x97VNIjw7LU9c2mrm43Cri6jLmnuCjp9T8iwiEO3BvKiQD84YYuUjcQ58Z5ixPCYCxRH+ga9B19gDC0P460CyWbuPEbv4RRtziE/ogTgfzQhzHU2E1BPw2JLHGRV81DLrcoIMY93dPzw5G3Vnd2dE6GI33yhdEYl390CGnhRr2QN34TLoSP24XlmsaBH+pVw4OwXklXDVP89fQ6crposXePxq8gbvQd+SWMCv5JQ+sFN6D3knElX7y1QXw7IE/kg6Ovl8Cbkd4MvK6KeYFeMeWMs2Fms36KSTtKemnj2B18Eo3+QnunzyDYG5BdrjP5jy3wF3/xF36SHluDSSrGX46M0bQjSDOfImNyCRsJN0gz9gJpMZnNWIB9Qdv8+Mc/7m037APsjt/93d/1cZI/xmkEu5BFAu4t4zrt8X3ve59/JhlbR/1iZ6Db+E42YzvvbCFe8sAEFm60a3baUQfXXnutF+xJ7CGIOnYC8WETYH9gd0DCsSOU6GMD0c9ZpCAtyhWHeu8rjQojvflhUzB1iLjBQoFSZjUTEsbMH4oKpYnxjDtKGaWI8uKbjhA1lCcziihmlB8kjYmB//iP/5APf/jD8r/+1//yxJlwKC2Mc53pU2Cw/OEf/qFfXWXmkbdwQixRgBBoFDjE+CMf+Yj81V/9ld+mzIAKgWP1EGVMHooBBIFBBv8oWZQ4AzRxUF6UPwSNrTqf/exn5U/+5E/kb/7mb3w9QO4YYFhZYHIARQxZYkvSu971Lq/EecMr5UGJM5Cpgke5U4f/5//8H/mzP/sz+ehHP+rrBXJInBBNCAqDBHVP3X7hC1+Qf/zHf/RknfrGcCZOZllR6twnwlAPDJSUjXCQYNwoI1um3vOe98if//mfT768hwGUeJhhpnyUnQH2c5/7nHzgAx/w5B/Fhh8MMgw3jtQ1zxtx7cYbb/Tx/tEf/ZF85jOf8Wkxg8xkAUY0+VODjgHzf//v/y1//Md/7Ada8kn+mDwB1BHtMl/bNNQKrs6pdwjv+ITc/aMb5e4bbpCDjz4iLWMjIuNjknDk1NENp9AT3kZtzgq/UfKOaktHKilLHNeY2Ldbtv3qF/Lgj74vwzu3S3p4yIVPeZvfBfGohjmi7SVsN1FDh9+hm/+dPQf8VlIS6zdw4xj6zYWoP/WLoUq/o58qeQsR+lXEuYVwV2Ovx7nzO1f+o25xfkAp9RyXlndPFPepOo1Dz6PxRMPjt5h4DTOLaD8NxTAF7BlsCsZKCAU6ApKqE2XYJdgqTD5/6EMf8rYQYzB2FeMx/pnwYTIeQoj9gm2CHaJ1TTz4Z8KIbdVMfkNIsT8grTzGxDgNqf3kJz/pbTom2SGe9C3y9cIXvtDbQdgr2HbYDxz5jTu2E/Eyzt9zzz0+/2zf/od/+Af/SBl5fMMb3uBtCWwX3IgD4c34LEjwfhHiwXagPzPhg82IDcaLvj7xiU94Ig75NRjqCUZ6GwwoR2bZWKFkhla3yahChTCxzQRSi5JDoalSQpFCJlFwkKBvfvObftURooXyhAChpAgTDngQtLe97W1+ZpNZSma/md1kFY7VTmYLSQsijML/8Y9/7EkvxIw0IcSQ8iiRDkH+UNgo29e//vV+xZUVacgogwREGwLJoAKRZfaQrT+kw8ACkf2v//ovTyhJj4GDemKwIQ8MMMyy3nzzzfKf//mfvvw8W0PdMItJ2VDwXOd5YuL89re/7esGMFnAzD6gbhgAWcH+0pe+JLfccosnidQlZSYP+Od+QDTJKzOuDJC33nqrvzeQeOqL7dzEwRYqPh9CeO4l5J58M7HAM7vcE+qbgYTVVyYmuI5fBb916zVpfOc73/EzrcwiU0+EYxaQmWhIr4K8UG5meDmSHrPLtAXaFwNboS1whtoBigApnRgZlT333iOP3nKzHOEtyK2uv/b2ytEjxxzvzX7SK7BTfTj3u8m1V5645djelJCO9IQkD+yVrbfeLFt+8VPp373DkelRGnYmYBaE9fQE54jELP40PJhAwqBDDxoMcx2VTD4wBhaSOORyV0TjUJktMKZCTBlXmRDD9oBgQviwabBLyB+rwiwA8JsJcCbZGUcZ47ENsEWob534wY7CL+dMtjHeY1MwWY+dwVjPIgKLF9gz7NbCfmCSnXGaNCCjkFDsDBYHmMjHFmTCnTH705/+tLcrsAEY1/GPDYSdwyQ66XMk/0zuM2lPXglLHNhO2DjYQ8SBsEsM24J0WAzArwIbEJsJu4q8Y1foTg+DoV5gpLdEVDJQVBMQLJQMChJljFKF8EJAUTQoKAgXCg6lhhurkyg2FBkrd8wqEpbtKKwQR8tGWAxBiC1bZbgOoYXkseqIYkb5oWwhRRiLKGgGCLZVoIwhVyh0CFQ+Y5LBhfxDeiHYCNuN2b4MUYdko0QhbeRbVwwoP37II/FTVrYOQfzJP/mkbsgnq5ysXOIHcqnEna2zzKYSJ/mkDKz6suqtM5mky6CGH0D9ofx5kRRbfBgA2VrPDC6znRB48gBJZ9Akz+SfsuAP0sqgSBwMLuSLgZRBDyILUSYt8k5+FaQDAY4D5WcApS4hrcwUK7jvtBnuExMC4WDEYEu+yRdxk0/aFunTZkK/9dL+5wsgq64BSNK1g6O7dsl9P75Rjm57RNomxmThgl7f1vsHhmR0bFx4N5CCU/8zYKfezd2+juYmR3yTMrz3Cdly88/k0MOuXRx1xk92tdeLBnPHSbdADPULJhfzTTAaDCVhSoXUFOE4F0W+a7UE9gC729gdhW3CRPxLXvISP05jRzGhrOMu4yVujOlMfCOMq9gI2AsKyoJtwior9gn2EbYGtgjnPKIFGcVGYfxnEht7AjAWY4ewYouNxVjPmMx17C21NwgPMWZMB4zpEHFexoVtAIGOA2WhzMSNLYDNQBkU2EzYEthFamsqNM+UlbJgqxgM9QYjvWWg1oZ/rvhDxY8iYtYO5QNpRdGghCBXKB9doQQoWBUUKttheBaU7/3yjMjv/d7v+ZXJ6LMXKC3IHvFCfiFCKEwUNQqRrT66vRY/PHt63XXX+W/Z8R07nqMlTkRfepILDBjhdcgWZBDlrDON5J/8sPJLupBi0kMoC8/MQjQJowqXemC1FCVOOdkazJZftu6wqoNxCHEgfQYcBje2K7PVhy1K+GMQoLyQe/xxH7hHep/0HLLKzCyDGX4hz2xJglRTHmZ3GQwYKEgbsk6e2Q7+wQ9+0H+bmG1DDF4KBiG2W+ZqEyHIG3VGXtmmzUAXgkGY9EkbvyH4Td3mukdheQ21g6vl7FkW9Pl0SoaPHpXH7/qt/OanP5F03zHpaeF53Wbfrng+dGQ8KaOuzafcPUq5KJAJxEWhTwbj5uEYbXtzQha0Nknfjq1y4P67ZXD3Tr99utGgBiQTN9XajYBOYGdIdMKpEUBdMBaQ/0pAudEjxEXdolOJ2zD/kObPtYdq9IVK4tA8RCUfaLO0Y3RDIb9xYOyF0PKoDxPrOmHMyik7tFjRZNxn3EVf6EqpThZzDXuJBQhNn3GUMZiw2HDYCqzkYidBcLnGyiu7wsg79gfXmLjnXSbYOtgxCC8sxUbQBQ5AWZmIj0584YfdfZDWXKSXvGMHYBPhB3smBDYF5SENyhy1IwyGeoe12DqBkgolFoUIBjN4rBqihCCsKEsUM2SQ2bmbbrrJK0yNB+MFIsSLk1i1Zcsyq426RZdj1FCCAEEeCQfBRem/+MUv9umhzFF4Gj9KludE2HbNSjDpI2yvQRgQ8oH8EY4XIkDK/+mf/snHRxoMCih2BcqdcnMdQotQF4T/+c9/7rfxcp3Bg7JBYHkWlnpBqbMViBc9sY2asijYPs3MLXEQF/4ZIBjgcEPZq5InDwwq4f1icKJeiIO6535QFgZNyCYzr9QDM7FsH4LsstJOXOSZ7Uf/7//9v5wD0myDMmp5DbVDguVYBw7eTJpwJOzAQbnvV7fK/h3b5Yjrj2ODQ9LsjKhm2t3iBXKkv08OD/RL0jVPLy4sMuHOJ5odMWxKZ8gw8WalxRHs5d0d0r9rhxzd/YSkx0YyK7ml24YloZrtKOWIenRVo1LQV7///e/75+cK6a16A3XBagxbDCsBOgn9ymMePEbCpCM62laQ5zeKIZpRaBgNF/4OpRbApoGI6rs1SgXkk8ehePcJk+AI4zbv/KBPMJGsYOzH5ohOHNNnkLCMnGMrYV+gY7CtmHRntxv9DHsmCmwaJvEhymr3sPjBY1Hs6sIGm4sI24hJYTHkh5HeMjHTxn+0QaNEMUpQjszMQWRRnChhfW4DgoYiRiDDzBTyjCYDAC+xQnHzTCnPnWAwxnUYiB4vU3r/+9/vBw+2CLMNl+3Q+EfRMuuHAv7iF7/oV3mJ81//9V894WRLDYQOEpgPxAXBhvAxcDAg8LwK26NZMYb0MgCx2oxhR/l4AdT/+B//Y1Igt8xkMjCwxYgVU7Ypk1dIKy+74qVO//zP/+zLQn2wTYnBizIwqGA860ovq9W81Aqjjy1KpK/3nbySB/KlbhxZFSE+npFmqxHP+jCQUefUA/eMWWDuA+Gpewg+eWJFm9Vg4i4HtAkmKBh09TkhyqmDPZMHzBhzT9XNUK+gTTn1TL93xC451C+jh/bJWaecKIsdUT18kLfUb3VG3RFp7eiUVHOrjDg+Mpxy/SjR5MluGqLrV2lcVNmuDZGG/KYds00kUtLqfOzd/pgcfGK7pFzfq5TwomvoS6wq6KRbqCtpd/RxJI5AEUbDFgLp8J1c4qHv8luBPoG8ltPOiY8X0hEeg5T8xIE0WAmJ66+ZvI1Oy5OC+ClfnL6NAj/4jauruDTo32x/DCfzAPUQl5c4kB7jAcY0O4OYpENn8HvMf6PYYGgM8C4NdqDxsk36RqmgbzPhT9tnXGenGzYIYyl9E1sFP/QX7A36Hf2McRc3+i1ujPlRcA27gPjYKYcNx+Na2D5MuLM7Dn2KvYOewf7gXSTYJpBw5N/+7d+8nUT+8Ad0tZa4dNcYNgG73dhZxkQ8q7QhsON0Jxj5Qf9Rxmi+sVv0PR+Uz+wIQ6PBSG8FCI25QsCQYOsthJEtrBASwscZTHHxomBDIwkyCMFhiwxGGc/RQuBQopBelB3+UUocdZssygrBDeWMMoQsQ8xQctHtKihBlBurl5A/wvECA16GxBYY3FkxJm2eS0FJKnHluRNWNImbeChr1AgOgTtKnsGJsvF8CGQaZc1zNShxFDsEFD9sGyZdysZv0kOh69sPySvblfl0D4oaUGb8svWIcBiNOmvKtmn8cZ8Iiz/KyucD2KrMPaR+uMaAxTnpcCTvHBHSYOWc+Ck78TCjqyslGl7rgsGG+0S6bIcmTkD4kERwzzFoIdLUM2lpfJxzhPAzgOGHTxGx3Z0BjskK2gj+yBtxaliEe4OoexSaV8QwM8j0dtdPjx6UwSe2ycih3bKos1mWLOiQpQs7ZUEX7XdI9h06IvuPDciBvmE5Mjwu44kWR2XdfXIR0Ju5Y+Fd47VWXM/c5ZQMDfTJwOFDMnqsT9ITWZKcBc8U55apuJGUa8M6uXPLzTfL7a4tbnG6iDZFm+QlbOgL2h87KTAgcacPajhWLHjWnXasb6UPQVulv/g0XBzERbxDQ4Ou3Wa2MmK0Ef5Xt/7K+8GIxGjEkMOYZGIKkDaGLL9D4037BEYmuoZthnyeAz1HfkgDo5YdLLhTJvQV4DorxLhxjXxwjfiZCCM94kMwVsl7dAshUD2HH/Qg8sADD/oyEBf1RRq6ysNLaUibfI+NZYg69c6kKHVFelqvWl5WwagPXgKIO6vDmga6h91D6F70Er8pc3KivAm5esSUTss6GIqG9pF8KMZPLUCatH+ec8XeYkcXpBfySTum/2reokJ70Jc88luP2C8q9B3sK2wI/KJv6J/0D8grz/wivEWZtLGLsL00LsZX8sFkPP0c2wMbAduFsZ/f6BAWKiCv6C/ixj5hl1r4/hHGeWwx7AJ+kxd0CvaXlpnxH7sGu5OddNgk5J+yYpMQF/2c3X+kSRnRC5RPbT3iQHjcix1s6Cx0L2GxUQyGRoGR3gpRiATodQwQCBpKGDIC6UVZoEDj4sAt6q5KGEBcMf5QjgiKEEWPgsRYRBnjH0OINADnGEEoVrbV8oZk5BWveIWfzSc/ucqDImTLH4YRihFFCMlEObKdjvxADnnZwzXXXOPj5S2HEFMQJVK50kGJAvxjJLJSzDkveiI9yowhiGHGKi6zuDzby+Dy5je/2RM7FD6GNIMbAwtEEmXP8y/MpvL6f8rKajB1RdkwYCHrPGdLGfALYX7lK1/p09XBgDrV+0AcDF56r8g7dcuAQj0RH+SUcBioDGzkB2OTiQlWpxiUGIxIi08NMTPNYAOIDyE895g0GPTYYs4gpas81A/+OLIVm7TIL/VPvPinTKRF++A+Eif+EcpDG9G2glsctJyGGQT3ZuCYjB/cLanBo9KcGpXO9iZZuqhHli9Z4M5b/XboRFOr9A2Pye6DfXLUEd+kU+1T1NRF4//PgPNJcZdZSR51RsywI73+bVjc/jDA9BCBTAft5sD+/TLgDCna14ED+31bRC9BGCFmtD/80XYhvexsoJ9AMPFLn6ANsroCWYOY0i4VnNMX2DFBPxodHfF+Bwd55jTljUiuMVE3Pjbur/Gb+DHwIJ3ESRqkhf5CT0TBdcgheUcwOpWgQmIxTDUeyoDwm+v0bfJGHejEJN86Rp8RjryQJte2bHnE67IQXEMvMVFGnPRxdNWWLZt9GOoLQkw46hE/+q4F9OO+ffu98UtdEYfWFeXhHpA+/p54YqcfD3BXHUMa1At6C+MWnYVf7hk7V+aKgWu6rDoIbZJ6AXmiX0DSIKEQQ56ZVZsr1CdxwJYBtHnaCGM8bhwJHwrjLv0R3cDkEWEghrzwCruEsRf9QX60rjgSlkUG9CJ9F72BfUjfo7/Sp5UY02ch1fRRvq3LWE7camthn2DvMeajh7CZ6P9MdGNbYG+yWw4bivyiN9Ax5FUn4/k2MH6oJ/QNLywlH9hv2ELEgz2BjUc6OnlHWawfGRoJRnqrgGI6PcoGfxxVWaob4BiKuoVAUaGwMFIA5IhzZvoxZCCfGFwoRxQmyhajD4MHRcZvVmsxqNj+isJEmTGDyMoBChPlS7wMDChklDDpkhcMNhQ7BheKD0VJWpBQVlTwg6K99tpr/QovBiErETzby6ChZC4KjCotF36oF91WQ1gUM+lBzCkHSp1tyOQLQstAQDkg/gwgKGMUNtd5xT4GK+WFwDIDSzw8C0PclJmBBdKLoicvTAgwqFAW8gKBxS/5o0wMSBlDe9DnN7xnOhgSP3lg8MGY5OVWGJCsjhPer0S5umHgg+wysDAjzH3EeMV4p6zEz+BEmTF8MTwpM2XQ+8t9YuAFpMU9hkBQLsg+ExAQXu4x9UFZiZN7R1iEc8pAeRnIGAgx0mk7gPZkmFmkXZNKu7+mdEpa0hNemmXC0ViMsZS0tTbJssWL5NQT1sp6trK1d8j+w0dkx76DcmRkXPqTjlw6O8tvdw4I8HSt4n47P+MjozIyOMw7syoGfY2dGatXr/H6CJ1CX6G90q+ZmGLiCTf6Jm2NcwxDjCwMK44QMtos7gr6BAYXE1tMAF188ZP8SiTu9E1IIe1Wd02wwkH69EUmo7SvkB7utHn6JX1WQfsnr/QfjEB0GfFAkA8fPjQ5sUj8GJLESz/Hjf5I+vRP8sdqE31/ZCRDnulfJ510sv/0CXpmYKDf9/cQ5Ityo4PRQUzuUV6IM/k+dqzP1ysrNkyisgsFPY1+pr8Snjqlj6NH0O+87JB7wjl1Tj3s2rXT1y3GrKZBmgh1wuqUrhyhS6OfKJkLUL19XKcwFA36i4pCz8Nr4fVag35GP6c/0oaZBKNvoCMm73kOEJb2Tt8hvPbbXGCFlT7Do1WMrfQt+hljPfqIcZ544sqPLQCpxW4hj0yQkd9QH6EfsD+wvYiDiXkm79GT6FN2cGAfkGfKyKNcfK6QfNNnsXs48ptH1XRCHv0AmcZWIL/EywQBZSE97Ah0GbYD6bE4gj9WeIkHvUB+iJfyUV8GQ70j4TrKzGmiGgJDBOWBQcR3ZEOESq6QwgPlKudc4dQdxYmCxCAjv6ExFwVhUEohIH5s8eWaGouUh9VFtqagYJWYkRZGG4JiRXESDneMG7bDMLPINUgicSMoMIgg/jCqiBtlRtwAd8glQtqQO00PN7ZKM+uIEoQcY2wSb1y9a73w3Bizsihs0gbER/kJR9kgXeQD4w6lTHkwjBHSxejFSIYgQ+DIA+GpD7bpseWZeicsipxBAn8MTAoGG91KTd1Qvxon9US9kR+eBSbv5AE/IbjONYxT0tX6p22Gb2Hm3iOsmFPPnJMOAxCEgHJCgAlL/VKfzFoTJ4Yn9UR+yQvxcp02AQiLIY5/DG/qjvSZHMGYph4AAyuz34QnbeqLvJNH7hkGO2lTX5RHEW2XxULvNwjP9bXC09yyoPzcIwZu7sumszfKipUrfLusZ1BHtK8H73/IExQMH4wE7gt1qqC/ce95m/pzn/sc3xdA2lUJL6JqTo7I2LYH5ZEfXS8/+/IX5YTFC6Xd3R/WcamtlCe0LTKaaJX9g6PyuCO8T+zZK8sW9MiSni5ZtXSxLF3Q6wizI8lOmmG1jjD70I7tNqfSsvPYkKy+6HK54KWvk9VPeaokWpokgc1FHhzRGhqKf6bV9dLsMQP6IO1IVyBpvxhIvA+ANkn/5l5C0gB6mrpgC5+SNcgZ/Rl9w0ovRh1Gl/ZT/PBcGwYafZq2Sx/kZTOQNwxH2vmSJUtd31vo7wErz6tcm6df0e/p20wmERd9g/yEZA73z372s56U0ofoJ+SH72NiPEJu0QvoHvoKeol+Tr/C8GQCkPtIH0L/0DfZcQEppY3zyAH9jjrBQIUg07YV9GPaCjqQLY+kQRuiv5Nv6gfDFTJOPKRPvWNsM+FAH6e/Qqx57wE6GdJO3jKTEP2ub6/1+ot79qxnP8vd6kwa1J+u8gJerocuheCrzq8NaM3R/h/nVg6OJyzULfceaW5hh1P2QhbovOu/813fdik/7UzBPdyzd49vg9e88hqnkza5tnCWdHZ1+njrGbTtzQ9vlh/c8EM/JtDWQt0eh5R/B3zpiNPntWg/cXGSNsSOsZUxEn3ERDN9mT6UD4TlftOH0df0d+otrjwhsC2YdKbf0y9pC9h5fDWC8YtzPhnE4gR9jOvESftiMpsw9Hv0BeOHlgs/atfhh8lxdI3qW0gvOlTjQ+ehE5mwY+cYdgu6AdtYFyxIM6w31bHobibpAGmSDnFgL1Kf1CF5JA1sWYD+Ig3GMnQcfaqY+1xsWyhU74bp4F4ybrEDgElRw3Q0X3fddR/Mnjc0lBAxaLMiFiLsXMV2tFqAzotiwNgohjhEOztKFRKAoMQVxIVSRimpQU1Y/KD8dFZP3TF+qCuUOYMeYckXSo5zjQM3jFENr3VHvOSBOIiLOBEUIYYZSpMj4VDE4axlHEiHuEifeNRwID2E65SDI9dxg/RwDvlDmaP8yTt1RHrEgT8UMG4YgsymorAZAHDD0A3zpoYvfiEpxEmeQOhX60rvgeYT0d/4Jc8MIhwZaLVcQPNH/jGgyRuGNf5oy+QxLC/pcw8gEkwk6MoWBgt1Rxp6j4iDcpNH7gUkgPi4Tr3poETcpMG9JD6AO6Bs5J17qPe4Zkjn7pO0KQwPCAaD64oVy6W7p9uXoZ5BfdHGDuzPrMTTzzhyb8K6xA/3kV0T69dnvnnt4aqEuYCmVFLGjx6SA9sekW0P3C8LO939c/eIGvPiomomOvy2tHoSPDw8IksWL5E2d6+5f8eOHpGJ8TFpb6VfuPve5PqrC+hz4cL1jY7LilPOkJPPf5K0L1/tCK+Ln6bqrtFmWGGMBznIgDZC+2Wlg4kjSBZ9AF1H2cgH7ZSyY7gBJswoP8YT95n2xqQeBiFtEqMcv0yIad+kXUKkccfQo71SrxhjDPSkQ7uHtDH4Y7Sd4OLE/wJH/ql6dBOkhrBMIkXfZUBeeEyAsJr20OCQPPjQgz5/6ETyASkmPGSQ+CG+XON+Qt5Jnwk76oMJJMYm6pPVEspM36P/U17atoI6QTcTF3EAdBF1wgoswhhH3KSJDkBnYahjuGp/Jl1Wp6knnTTAoB4bG/du1Df35LRTT/P9iTSOHDk6OTEL0BdMEjT21uapdqrg3lMeJOH6RFbtTQJ9umXzFj8xQ91o+1Mw1tAWNm3c5OuG+qRvq/6sV9BPDx3kUYOtk2Ou6v5cyGqKqiBf/UTHmGLrMs6f3l/6BmMmfR43Hfvygev0YeoH/UV/zDf+oXNoAzxexXZm+jh9HXf0A270VcZiCCrQvkRa+EcXoMfCcVyh+aYNkhdsGOwFdAT+9TpHhLjxy31lIgt9qYssXAvbKeWirMSD/kY/EE7jJC+4Ewer0LQXrhG/7zvunHjRVQj+o9C0osjlbqgMtEXGLcYcxgDDdNT3tOQcBEqmkBIFKITQEAMoJwwyJFQuxIUb1xW4obxwjw5qpI+SQ8mqolK/KDAF53Hh+Y1CZ0AJy4E7BhcGgZJnFGchkB/SInycImSg5rqWDz8YY/zGXQV/KGJNE38oePwxqGi+yDd+uBZCVw/xq/GRN+5D6FfrKU7BK8gHdUPaHPkdgjgZOLhOfkiTc/yRR9LQ+LW8/CZP1BNHve/cC34ryCvl03Jr/Wg8IXDHTxTETdnDfISIu0+GGsDVc3Nnt7QuXCLNjuykYaN0uaxwF9i43JyekE5HZpd0tMiqhd3S4Zrbgu4uWbpwgfR2tbv2MSyP79kne44dkr7xIRlNJCXZlMp82ggi7NpLgjYe3tZs14ZYR0WvKWgPtBkmbGjPGEcYjbRN3AH6BiKLAQYZwy8EbvGixb6tQdwyz65u8X7QTZAJViUUtO3TTlvvDVlIM/FxpA2TDqszkFDIJHnAaKU/gebmFk/g1B3/kMaongXkh8klVi684Xj3XZ6YYkyQBkR1xxOZ3TZMaFBWJmcwNMiLTsJSZgxJ6qfYPgMJpwzkjy2N7MShvPRFyg8p5RrpUk+PP555NwGrLWqohuC33gMFdUo50DdMVDBpkEljui6gnsg/emIuQe8Ht6S4u2IoBNpYKHEoxo8i6reQRKFjsI6Z/C62D9Jn0AFI3PgXgnEWP+gEJsJ41padO+9617v8JyKZuKKvMrmNTovaRJpHdAnpxSG0V0gPXYBeo18ypoflUtuCuNBF6GCO/MY9Tt/hh7xxVJAmeSMseeOa2ihhGdQeJE8GQ73DSG8VUYxCVYVUrPINQRjClxN2pkDeMGSjij0ftFxxyrgQUPgMNmzZCcNH64gBg3xhmBaqP/yyMkK8pZQjCsJyr3PFQT5YncHI5YghyiCDu+YxmlfKSxmKAelSBsqiA2axqKSdGirHlAnnSG93r3SuWC0LVq72L6hKxRh4EN+WdFJ6WxKO9PbIxOiwdDY3yfKFvbJi8QLp6W53YZMyMDokBx3pO3C0T/rHRsRRRWl1fafdkbkW11b8iMAtz2+PHkcUMIRoa6zwAowk2hxbeWnX2r8xvFhhZKWVdgmR7F2QefwB/xhY+/cf8EdmqSGlYf/BzznnnO2PkEqE6mBbr27JZ3UFI5R0ILikqQYvfkiXlUxmxKMGIyA9tkTiFwKvpI/dBoRh1YZyHXFpswqCn/HkuO8vkFX8YASy2gPpxSgEpIvo1kLSJh+UMQTuxKOPfJA2eVLBP/VMvKQxMDDoV49JlzxwHwhLmakPrlFfeo8gx+gb0mASAGNV08BfCK5RlnBSbS6A+s/cd9Nvs4k4sqrgWi6JQ5w7bZr+FtfPCyGuP8QBP+gAVnF5PIm+xbOx7PZAvzFxdv311/utxbnyXiwoA3qJfkyZCgGbB78cywV6gzIhnBsMjQzb3jwDKCdNlGOhGUaFKlI9anqVKth6BeWajftYbczV+1My0rnvJUb3fNve7K+6KqFaHMX1bT3pCOrggX1ydOcOaXN6gS3OGWSP7oBTiyOWrS1tsv/gEely9dbZ1iztzQnp7miT3oWdzlPaEalhOdY/7MPwRoclJ6+XUy+9Uladc4EkqNdsXAAdNJHM8Uxf0AfJI4QLEscRwwzSyvOyED3KTrlZuYVscf/Yjgwpg1BxHXLGltEed3/xx3Ok0fsMcYb0sdpJu6C+Tj99gye9pIMb11nFpF6JhzghegqMQNoSfuKMWtKAQGael+/xxiUkky3MnFM28ooBSFkp57oT1nnDkudDT1h7gncn76RL2I7ODp9XzTfXiYu8KikNgRFNffFMIiQbUkq+8Esd485vAMHFyKZcgHSWu35CfoifspAm/iEA+Oeaxunz7+qI+8D2dw0DyCNpUg9tbaVNnNUPptopoK1y7yh7c3N2Enm6Fz9pY9ubM3A0M3tWPwjrOdd5raF6nPZBX2LLMTtPmAjj2V4eF8CNlz7x+TImsNAdhMuVz3BsiKLYMPgL09Dr6h5FvjSLQZgvzlVyQa/l82MoH+gjdLxtb46HrfTWMUwplIZKlXetQf7iRBHnZpiHmOz2qcx25lZHtFaulpPPvVAGx1My7kkonqb0Q+aXM3ScODveEcDFMuCI00D/oDSlnJGfdoQn0SpLexbJ+hNWySlrljtjNyX3PrJDuleulWXOgE+0NUkazstkfkT1QMCjEgUkAuIJWYSUMfDyW8kZBAo3VmIhaQzOSvbQdRAx3DY4EstKaj6oP+KClCFKTDiSDqQawoihGYI8KfGLA4QIQkyc69ad4F/ioluBFRBMti0iGBcaV5O7Xz29Pb4OuMaR37jjh7yE6UJQIaRRsLrMc3S8GZ9VIp6no/4ojwISThrUFXFSh0wIUTa2jJPfcHs4dQ3pJj8Y6rt27fYv3eKN7roS1dbW7u+dAoKNdHeXv1JUr7DxtTiE41I4PsW5VQOVxBfmp1wpB+gcJouYROCRhE9+8pPy8Y9/XL761a/654nRJVyfb4irz2h9FxKDoZow0ltF1KKDhgNz3CBdqnKop4G+nLwUKmup9TFTiMtXnJsizm2mUe/5m4sIa9U/OwscaWzvXSgrz3Qk6vwLJdGzQEZc/Wdeeu08OY/+M0bODWG1bsniRY7UJmV4dMwRVOfRsdTmVJO0umNbU4t0dnTKomXL5bzLnirrL79CFp7oyJRLh70lk3kgfsKW0E/p01EBEENWPDniBhHWa2ybg1jyVlJIGQRRr+WCjyPrTyWEv55NI+5a1C0K9YOEeQ2Be9w1F2paOP4Ux/mNiRdAlp/5zGf5Twnx9mW+tclbVEOCHKah0LTVLRq/v5bNz4YN6/1nT3irtabBZERIysO45gq0TL5cXrIXDA2JXGNUrRFNV/sJ+oyJInaTMDkWtrdi8qp+QsmFOH/heRS53GsJzU+5aYf1V48Slq8aUiziwqoYcsNIb5kopaHlu5YLYadS+K2GExN+SyTCOW5hHvit1xG2LqlfgJHELD+iW7xmC5o+eWbbVfjSBVY6eDkLs6SUgfyH5Q1/q0TrOayXehDNU5hf/R2WLUT0d62geQklilzuhmqDOobIZoFd3tYm3StWyllXPkPa15wgoy2tnswmsoSXVWHC8FZm5+hX9To7OyTp2lTf8IhMoEdSSUk4XZCYcH4dYWzvXSRPfuZzZPX6M6W1m9VQR6BID3BCutljJaDN9Pb2+BVWjtqOVMgrKyEYiOglQ+ZZvNWrV/mVXYRnb6mfauprNc5Z2WUbHGn4SYdZGRO0oYWNLXSrRI5HOK4acoP+GUJ/R90rheqCYuON8x+6lStRMC5jkyCch9AwOn6r0LbQaaz+qn2j13SMD/2HotejEk0jl39+R9NQN85Dd8qEfcV27FB4eR3Clu048OiF+kHCsLxHAXszzEecgDj3ONG46lWqjbg6iBNDeTDSWwZmssFpWhzZGsfLEfimI9v7VKFqJ0C0I0Io+U4b3+rCaNIVAhSyks1cAz/uGF08j8f2ufB5uGqBNDQPrP5QJr4ryXcpOSKXX365z4MaYlq2sJyh1BvC+6K/AXll0FFEyxD1Tx2xDXI2CYHmxVBrZO+5F85d+8HBtf/mzh5Zfd5Fsu7Jl0rvSadIsrVNkq5tTDiiy6ovxwl3zITIEM2kO/LiKvwlU2lJuvvIc7wtCxbJyS6uDZdcLj3LVjkOnHkekQHhOK3g3CsFb07GEOQYBelyjaNhCuhp9DB6v1Z9H73KtunZ1i8ZcP+jbUDdKpEMfPt25c1M+Lqxh08VZa8ZisdcHgvCsjFG0zf4Hjg7IbBDuB6O0/pbiWQhwS9h4q4hej0qudKI+ud3NA114xx3nkeHkLPzBrsLO4tvfl9xxRVeeAM170hgUkxBeJ5zx+6kLtRvKLyXggk0FikQ0opC3eKu5QJ+61kMjQV7kVWJmOlGrumhdHh2661vfatcdtll/tNAmTd3DnjjCKhfDEheFvO2t73Nf0Cf6/hlhk6JJn5VEYKwXvDPs2C/8zu/47cdkhaf79Cw1QDxEB/50Nf8s9VOST3klw9rs+WRGUeeleGlRvjPlYdq5a0WIN96f4oF94Z7wfOEPJ/IvWYVfM4hnfu+zbcXWfU68jFpiadZkZ36mUg0SVN7hyxz7QG3PqfzeGvwyNioX9FN8+kh16dSrh+kHH3lO739A4PS59pNZ3eXM/Jd/+3skqZFS2TFpvPkSS+5WjpPOd2TaWmaepBX0wMpiHLWWDoeoU+DoVooTU/mA+1Wxxp0Kf3PT760ZD9fk6MJ24uspuBGruxZPGa7zNVOX+NjJZR7+8Y3vtFPwvNyKuwo7Ca1XUoFcSO5wur1YpHLf5hGeJ1zVmR5fOLqq6+W17zmNZOLDTxKoQsO7PzA7qIfcGSM4o372Givf/3rfVjsNsIg2GrYmtgqfJpJV4nj8haHYv3VI+ot76qP7EVW8bCV3jpGtDPxQhK2oDHYYiSzAqtvRQ2VKDOSkEdmKCFLdACUtELJLsJ5NLyCcKQH6UDh4b9a0DQRykE6EAAUJt/d1G/a8YzZn/3Zn3mFqm8nzYUwTqTeEM1XrryqG0YJhtS1114r73nPewq+3KfayJU/Q23hdyhnq3zy6HSBJ60tbdKybJWcesWz5IJXvlYWnH2h7BwelyeO9MmRkbHMN3cnI5iQ3l5Hcltb5O6HH5HD0iKdp54l5730d+RJr3mLtK/fKM3tXc5vhvBmk/JHFUgBafvf7jwUg6EeEdVbjH3oUVbteAN1U7M13mqikjGikrAKjaNaooDwsVDAIwC8MI/dEAA/upIZ+i8GxYRRP6HkQpy/8DwKdWf3CHYkK7NsUWZSFmF7Mnbm8573PPnLv/xLefazn+39K7DVqA/8aBgEW42Flle84hV+YYbHVZg0KBaa5ziZb4irg1LEkB9GeusUNF4IaRTe+HXCqhezODwnFzZ4FDXkkZUxFFNmK1dmVhsBPC/LOYqcrSrEpW/4jELDhOAthChLwhG3AnLMVmq2xkCYUXrMKuYC+SVdjBEGlzvvvFM+9KEPyfve9z750z/9U3/8xCc+4Vc3L7jgAq9ImWmlfNu3b/fpUQa2QEPuw9U/4kQJI5xHQRm4xhGjiPyqP7b1MBOKcqc+d+7c6Y/MnJEWb03l3lCPIVgRZ+ac69QreaOMDCrUI+eEY8Bh8NB7Rp2xFZ0jvxXkjYHJv43VlZ3tSAi/DfMIrknQKljBZSXXE99FS2XppvPlgqtfI6/40/fJM17zBjn1SZdKy/K10t/SJQMt7U46pHvNSXLmJZfLpS98mTz7jW+RJ7/mjbL2siulbeUaaWpzfb6JZ4ObMgQ3B2wYNdQjdEzjhWbocITxiHFAV3TR6Uhra4sju87cMb5bM4RjVyNDt+eq/aXtLAodv7XcLApAAPnNuB3aJUxgY0MA4mL8x+YgDGnhF4FYh/GqYFtALFlJ5ZE1FjRo75DUqD/cSJO0iVNtsV27dnnbSUE+cP/sZz8rH/zgB+W9732vvPvd75a3vOUt8m//9m9+NwMvuWPll7C66EE4PseEf5V3vvOd8pGPfMTbP9hq2HWs9oZ5Q0CcWyMjWp5KxVBb2PbmOkbYATiHhPH8BQSRZ71QMJRXlSlggIfwvuxlL/NbmdiWxbacBx54YNIf26PZpsJzHGwfhnCxiojBQJwoRpQv/nAjLB9dRzmjcJ/1rGd5pYsS5hqETN0JQ3woW1ZvGTi2bt3qlSBKOgT3gnLhl/T5iPuXv/xlT3JxJ35IM9toKC9pIWzfoB5e+MIX+iNvNaXMDDQoWuoEYnnNNdd4xc9v4gLkgZVwwhKGuiR/r3rVq3xdkBdWyakblDcEk/Q4ZxaTclI+Bi3CMshRNgYbJgJe8IIXeMG/frIEv5RJy8U1thPpij3bg3Qg4x6TV/IMwX3xi1/s80N5EPLCll8mCCD9jdSecyLPsuF8/E6vwg2B2TOtH44ZAyzR1CzNbc6g71kgPctWSu/qE2ThSafJ4pM3yNJ1p8maM1z/c3LiBU+Sky+6RNadf7GsPfs86TnhRGldsMhx3Q5X7c10wkzUOeDTctLqiQTbQzlmSEVLiyMYzs3EpLrSEhxzCe3PtUMnk+0wOG9252xh9uLILnq/FFXJWGnbmzOY0kPlIayTUPfVK5TsMr6zqMBqJ2M439pVUhsH2gjjOGM2RJFxW+0r7Be1Z2iLr3zlK73dgn3C98ghl9gF2AtMukNGSV/BBDqrr8TNhDp2CosexMvLqAA2CLYYtgv2DHYTcbJbDtuEsYb803aJj7xi3/AdYdxp89gotAlsaMLgj3LxOTPiJ07sGsayr3/96358RpjYx1a85JJL/I68H/zgB76s5C8KbQ9hu6j3ftNIsO3N+WErvSViJjtnXFoYyCg5yJ2uqqLEUMQoLBo8ypQjK5S6xQSFRxiUKoqTFw+gyHFH8fH7Oc95jn+Gl/hU8SsY0CFhKHOUOIYAs38MmBASBgYUIkoX4k1nw43PYDA7iQKPDq6kgRtloqwMBkpKyRNpoozxg/IkXgYE0nvta1/rtzxTBoCihcjzbAkdnnKhsCGUOpAQD/nAHbJM3ZEudUSZGFTwz3XSo7wveclL5NWvfrWvHy0bSv9FL3qRLx+/GSzIB0QW/xB4ykaaTAJAvhnY1HCibqhr/DJAkV/yT35e+tKX+jDUL3nTl3gBb+S5OmFwIf5GMCAM1QK6ICP+vc4J1yaaXBtp65Dmhcul55SzZOV5T5FTn/pM2fTsF8imZ73Qy4anPUtOuuQKOfHiS6V99YnS1LVAHFv2q7uZ+PKDNgjJZVso7XdK+G1iUisJ21qcZPy1qji9SDv1hNjpSU9+s4SXF1YV0dQNNcJcGKfibLEQtEkmQXgPCmM7YzxtkklMbAdILgQYGwSSqBPf+IV8Ykcw1mN/YFtgY0CSEeLFjmLSHZIM2AWG7YBtAQnGtiMOJk9xw75hkpx8YccwyU/emDjGTUG58Ed8KuSZx9kgutg2hIfAh+GY6GeCXoV8MWmPO3nmnmOnGAz1BiO9ZaCQAqwGSEPJTgjIDjO0EFqUJMpGVxAhdBAoyBNuEEYlvShb3Jj1Y/Zyy5Yt8pWvfMVvH/7c5z7nZ/G4BmFm266SKgRFhhL/vd/7Pa+smQX8xje+Ib/+9a+9QoYIQ/Rw/9KXviSf+cxn5Nvf/rZffdeZT2YPUfYhNH5AWTFWIIqs7JEm5WO2EQKv+YFc6pad++67T774xS/6rTiky3UGGAgsZWULDgqdOoJEkwdmKCkD7nwSidXljGGfGaDYGsTH5f/v//2/8pOf/MT7g2RDoj/1qU95ueOOO/zgADklbu4HgxUkmDJ897vf9fX66U9/Wu6++24/KDBoQZopB2lRJiYDHnzwQV+XlOO2227z5YO4c33z5s3/v70zD7bjqO7/6GmxtVmyLMkL8sb2w5INBEhCVuIqk62SkFAhO1nIQhIggUpR2RDlhGwkBAjEIZA/SAWqUpgQUhhjllQIAULsYMBgbNl4dyRhWTLWZsm2LP3m0/ee9/r2657lrjPzvp+no3tvb9Mz03P6nO6eGVcHZuo5f8w6MLrKbDd51aksVczxzQXHN3dily0/LVu24vRsbvXabOVZZ+eyNZct2fJ1Z2TLVubxeZs7tXxFdmpueX85M2UIIZYqfv87aaa5rVmAzYIthL3CQz8/+MEPZu9617ucbUUfz0A6zin9OmBzYENgs332s5916f7pn/7JTWhgv2GHYZPhdOLcYtdw/K655prs3e9+t7N3eO4JEx8MlJOOfAz8Y4t96lOfcrbKO97xjuz973+/m4llUB8nG9vJiJ0TbDHqiePLijPsIiZDsG0MBumpowk2Ho49s4s33XSTc8Kx4YRoGnJ6W4rNsjKLyaggCgnHDoWH44TDSxpziBkFJJyHROHQvelNb3JK9tOf/rRTiigqRuhi4PC+4hWvcKOHjP6hcHF4UeQsZ2GbhON84rzh9P3N3/xN9qEPfcg5iziZOHohvsJF0eJgMhrKPtGB4EhyrwkK9o477nBOM04xS3tR6Nz/i4P97//+764zYAk226HjQeHeeOON7hhxfFDcdCgcJ8pHKX/xi190edi2zUZfd911zmHF8UVwgnFqScs2EDoUji/HlA6E/IywUsZnPvOZ7M/+7M9cnf7t3/4te+973+vCqBPOOIMQDAawffZp586d7niRlkEItkU5zDRz3zL1Iz3OMs4vgxXUSSx1cFr7s7WMwTnhex7mPvmdX1+5OBc5v9b6rrIQQsxDP5yScTLu8qYJTmrRZAf9Ok4oju5rXvOa7C//8i/dwD/2AjYWfTjPEMEO4DhYWdgJb3/7252t8p73vCf7+Mc/7tJiA2B3McOKjQXYCH/6p3/qbC1sNtKz5BqbAfsA+4I8TAa86lWvcmnY/l//9V872wzbhwF87KwqUC7OdAxsKso1+a3f+q35CRH2ByebgQAhmoac3iEpUoCjglJEiSEpUGyMKOLo8oofFCVLV1hiQv7//M//dA6vlUN9cQCZpWQml+W2r33ta53CQkmx1Abn0odyKB9lxtJlZh5R5Dhj5kSyTRxRZl95mAEji5SH08t9JcTjwKKMY/d3GJTHiCFOLvIHf/AH2a/8yq+40UtGSpnxZFYWRfy5z33OOcA8bp/64wC/9a1vdZ0DCp195Xhcf/31zjmlA0GYaeVY8aAp7jdBrCO288mxwmHmfmTCiDexY4lYPjoS9o9jAByHq666yjnOCMcER97S2THA6aVj4JxYmXZvDN/BtmuEv0XXKVfP862B5huKgxS0JxzfPBjJf81HV4DbD3bv3pvdfPMtuWHHoMvgA9zg2LHj2f337XbCd4NBr9t2fS3b/+BDeVtfeIgK3Hvv/dnNX7nVya5bb88OHTqab+tk9tCBb2R79ny9n6rHwYOHsq/v3Zc9crT32jIhxOQZ17XW9WsWPcfMLDYZs6k4p9hC2CXcisVqLzCbgk9WnTHRgH4lzLctiGclFzOu2CPYM9hblpYJDAbA3/KWtzgHG+eUlXHYITik2GA4ugjfX/7yl7vysGvMBik7J0Xx2ClMEJjg2LP6kAmFN77xjW4GGvtTiKYhp3cEzFEqIlQc/C4Tw/9uEIaCZekuwm9GA3GecBBx6FCOKCJmIE3J4mShYEnLPSMsicHRRTnh7Jqy9ZfM8hsnktlMZlAZqUTZEkY6tolSZsaTUT3imf1lKQyCAmZWkhln8ofLcambCQ/YwKGlI2BJDfvAMt4PfOADbjkPji/1p0yW/7KMB+G+XrZlS3aoM9A5cG8yM9iUTb2YOUaoL+WxPfKx/+wLTidp7R5jg98cP+JwXvmNAMfY7j+248Voqgkju2yPgQbqw3HiN/mtrhwXyrHf3DtDGML2wOJEt6CdcY755BSfOsVn73vPSc2vD/eXfx+Q/I840ubfTVxsHraAtZv5Anvf+9gvX3xwQh955JgzcmiPj+bXAE4vYQ8+eCA3xrjv7Eh+LT2cO6p7s68/sM9dK3D8+KO5IbQ3u+uuu/N0Dy9yeh868JCbIeF6mJtbnt13731utcXuPXuyW2/ZlRtyR+fb/f/d/3/5NXurK1PXgpg8+bXlngrNmw/oR3uCydT75Brr/e59bx9cR2VSNZ0vRcTSp6QqsbyjSAz0M322DUiH0K9jY/D8D+6pZZIAu4TBftOH6E/bhtkXvi1B2Sdy2862QRpsAWwDbAd0I7YGvwknHpuFOMpAj2KHYM8w6+vbIdg52FThg8tsf9muXw/sFSYJELPN/H3HucepN2GSAzuN2W4mSdg+thp1S+EfazsuktFFFCOnd0RMeVXBHCuUYJXGmSrblBJOLzOZOK4oGe7JRbESzqws3ynDtsWIIQ9PYpaXOrDslqfsfeQjH3Gztyg+8hjkwyjl6cbMHHMvMMoc5W7x5OGT+2NJw5MAcbgpl+U4PI2Zz7JRPxQrI4WkR66++mp3/ypLf5mdZiQTpYzyZgaZWWEUL0uQmX1muyyt4fgCnQIdEcuwcaTpfHB4OUZ0HjjDGPLcV0M69oPzg/Cd+hgcb4vj+PDbOgiwY0wejsM1/WXQJtyzyz5xfy9l0zGBHWsbnEBwgGyAADFnGBHdg3POOabd+m0qj1n4jJ16F0aaQZl3fKOQqX47oo7r1q/Ltp7NANeq7Eh+/Tz66ONOcIopk31YmV9zXOfsR89ZPp49/PBBl5+wkwP7lxtaT5zIr73T83K35LrlTHedHj50JJfDziHmKbOunKPHcqPrG24mhTxD7IIQtaC9MrDDtbTg5PZ0tH1fIHW9dQPrf6r2QWG6Wfdd9MvoDj6HrQvnnbxOj3nOH6C7sTewjbhvlrTcgoXtgi1Ev4/N0Ws7veOBvrQBbSuPcL77v7G/2KbZM1YGMMDOoDqTHWYrYF9gg2DTIdhFCPcYc6sVt5z5K9zss6eze4P7TC4ws4zNhL3FxAXOLGUb2GPcKmfCfcmf+MQnnL2F/cLDr7AXzR4ToinI6R0DviIKMWWJwuA7o3Eoq97sRvrwk9YkhDDy4uShUCmLEUaWtaDQWPpMvClRPknDQwYYhUOx4VS+/vWvz/7+7//eOY6M5MXqw+ggS4t5KBMONs4mD6dixpd9og4odJxmlCtLe1ly8853vtNtA6XPPbCMMIadRbhvKEiUMg7zJz/5SXc/K/kYuTRHkSU8LBfGuKbuvECdJc7kw2hGcQPpWcbDvbjsA8qbgQFmo3lAA448in1U2Cc6BToK6sQSbI4By5ve8IY3uKVF3ANN/TgvqXtkqmAjuaI7cM1xHTCIZTMC48GurbRuqgJPv123bm3We53SWmdc0QZ5Su7GjRtyOSO/Jtdnmzef5VaZ2EAODsPRo4/0bhXYti16a8OK5b2n7M7NsZRvmXsK72OPP57nWe2cbBxdDNX9ufPLfqBzhJgG9EWsOAr7rK5hTk+a2Tms5XUrB8cSHUTfaU7jMOWSj7IQdLbTgf3f2D+0E3t2CfbL2972Njf7yXNTGFz3HcYqWL/ARAA2A7dn8ewU2iX9BHHYc9hiPE8Ep5hZVewQJjyw11j2/Bd/8RduiTM2CAPwOMLUx4e8HCPqTrnAMmX2B72NTcOqOwb9DY4lt2uZYFdRBk46x5fb1RDrD4RoCnJ6x4QpixQoJIxC7u945Stf6WZLURJlUK5fNt9RJAjOFvd1oHRZqsx9Izh4KClTNihjxBQ9n4iFUQeWOrMUJ6yPpcWZw0lkRpV8vIfW3gPMLCwOM8uM2TczfHGOcUh58TkvPMfBRCGGxI4bs68oUT6rwH0qLCmiDn4e6soxwtkE7rfFaWZpMwo+vId5GOjMODY8XAJ42BfHk04BuL+He45Zpm2dSBVix4VOj85PdAfaIYNgDFYNOyo+f69uX3rQfmyGis9cTvVlSEf4/vt353V8NNuyZXNu0KzJZXVu9MWNGq479onBplN9HRSC8Xb33fdmN1z/+eymm27Oztx4Zp7+rP7M7yaX5xsPHXSzxRhmLLUTYhrQ5zE4aoOoXYS+3T7T4pLUxi9jFMryF8UTx3JgXtfz5je/2d3WRZ9f1wE10D88owQbh36YspFUn44twjNEeAcvehDsmJhTmwJ9R11ZkcaKNvLzdogrrrjCOa30G6za+53f+R339gxsNyYJ0LnYQTyvhX4FWNnHADyTEqRndhisHthazOpik3L72y/8wi+4p0mzLWw7ZnJDqJ/tP8IKOupjtg/1wEmWzhZNAwtITAkUJg9bQgmhYFA6ZYauKUkfc3pxIlnKguNLGr7j4KEUcQRRaAZpcYaZQWXUk6f74cQyAsij5rn/oqgu5LeZW2ZfWcrzspe9zC17YRkPo+IoSWY5Wcr7ute9zu0nI484hChWcwRHgRkxHmRFfZlNZeSSp1GzD9QfR9xg/1HIHBfuK6aTIQ3LcKgXintUGOnFGf3v//5v9yRFOioGNVjSzQw6nQ8dFiOlzIpjTFWBulIWnwws4CCwdOrVr36168Q53l02yJYSGAes2OBaGsfqA8dotuYAvYGdu9zA3YYNZ7j2fOLEE7kxdn+2d++DuW5YrDfQR6RHN/GU8tjKClt9ctlll2bPee6zs4suvsCVeywvjzgMJm7V4PhgwFUdMBJiFA7sfyj7wo1fcq+IY5C0yuB0axmjnpgUMRuoCvSR9M+sDMP5ZFaUPhP7ZRhe+tKXOpvDhLc08Ek4Di79P/00v7m/lbcx/N7v/Z5rQ8OAjccsKk90ZrUdtgwTCdhtzN7ybBPsIZYW82wV7AQcW+w/XpHIQDs2CPVkwB37A/uPAUkDnYqTi732J3/yJ+6T3+hbbBomLZi5xlbynXTuE+YNICa8SYP9ph7YiGyX7QnRNJbv3Lnzyv73VoNBxagUii682PyL1f8+LVDYOGA4anzicPFkYZSTxcXwlT31Jj+OEE4c+4iDR4dMfoxEHnvPqBzLYUhLGMoKo5MlLxivOK8ofuKZTSEvM58YpSylYZkyZdNZoPhQqvzmE1DqlMMsjC3nJR9LiwljSQvbJA6DFYVshmvq2GPckhcDme1Tb7YfQn62jQPLcWFb1JE6sY/k5/zjYFIO6ek4cHRxTBmhZV9ZcsT2zOnlE+Obcqkr+0rZbIPOzMLpLAnnHDDSSjqOK8eb/eW8kgbnno6OT86xvRaK+4qoD50XdbNlQ+yvtQ8cCtoyo7bM4BNO+ewj3/nkeJOXfKlj2ipOpfeBc8dxpJNl0Gjr1i3Z2nVro+2jSdB2aKsP7tvvrg1uDeCTdmPXtMFv2g7n317234/pf9rx4dOXCuTJBtoI3/s/+YiJD/fU0g537brN6Rv2Cf2B3mGWd3X+yX2+5HzsscedfuH+XJZCsz/r16/Lr/0T7nogfO3aBcf14MP59ZTHn33O1vwcs7yu90AvdAVln3XWmfm1tyc770nnurLcNZtva82a1dmyubCmQoyHr3z5K9mHP3yte286+h+dHXL4yGHnkOzYvsMZ+qx+4Npuuj7mGuZe+TvuuNPpo0MHBx9sFCO3Qvrf2gV6lb6DPptzQ59K/88xoO9MYfqZT+wL+mv6IQbx0G8m9Mt8mu2BPYDgSJKP/Nb/80ka7Cz0JzOr2KsMdDIrig1CHZlB5jv9BfYcZaB/SYP9gB4kHbqQvDjDpKMe7BfbZ1ukox70k9QbOwNnlDqwfWwudDj7RbnYLQj5qSOTCTiuHC9sDo4X26Wtcz1g7/jHgm1gl/IKJm7l4jt1jF07/jVS5Xqx8yGqwQQTdiQ2Le1MDLIsv1A60aK4UFE+zJgwQuszzYsslpeLH1BCdKIoG5QCBmQKygnLQnlj+JvjhzJEEaFgMZTpxFBgKDIcJMKZ8UW52kwnEMaFQX0oiyXRKEIUG4oThxG4cOg0UHD+6CD7QEdAepQoChlHkGUz5DGnl/ogKM0iKIv79chDPalLCjpo9o9t0UGY4jaHAiXL/vKb40eZz3jGM9zrjbjnGYXMq4ToFBAgH/ewcCxwmslvDjHHm+PGcaWTA44r54JjzDmgs7BzzPGiXhwH6kKHwPGk0yGcMI4fTgDHmqVLdEzOoM+3iSHFbxxbOhIgD8cIJUZd6NSIHyexdhsLM4riUvh5BvKf7LXLWJkcdwZnmMlntH7Hpdv7D1RKGy1NgPNJu7zl5t5D5Rg151qhfYTtm/2mHdFmmM1nJp92kJfSSzAMdijzQzug83Jnsc6Z6zm9j2R33XWnu054mi0Oqrv28vZqZZOOpc+8WmjTpoXZMfb1wX0HXNvG4T3t9IXVFQwIEL5h4+BtBkeOHM1O5I7yuvVrs7vvuic759xz3HZ4FdLp+Xln0IP7gIUYN/fcc2929fven1199ftdH42uRs/7cL3u2bvHLSN9yY+/JNdJO7Lt2/9ftnrN6kVpmwZ9ym27bss+et3HnF66/777s6OPHO3HxjmZNWNFEcd9QJcVYH0J+oVziG7FhsGpo5+POWOG9eXoLvQ1g+V8htsmHduhXPpk4rELsCWsf2cA25xQtsvgJuHYYPTz2Br+Chj0KnmxW2h/Ptgd2D2UxbbYF2w3+g4DGwXdy8yu1dnsI2wrA3uNfpV+lGNh+8Y+Ya/ZyhyOH/tkYDeawxyCrcMtAQjbpr+I4R9H/3sKO5eiGqxsYJKAlQ2sBhCDyOmNMMpFFstrShRw2lAOKLCyDtLPB+RFGZrSM1DOKFZfGVEPlCywHcTyEGeOIQrPFLBh6VDmKC6UsA/KEMWIgvZhv3AaDeqDlIHSZt/onKrAcaH+CB0IipntcExxQNkX6syxYL952jMGCp0E99cya8t+W8fH8eC48sn+Up5BJ0V55iAblEVnglPsg1HhO6Q4q4gPx53OCUefDsWON8eA/OwD+0PHAdamyMc22a9xP9THtuETCzOK4lL4eQbyL3Gn1+DcMzLLfeA4vutzp4/2WEVnReFw5lnnr/v+9/pnLs7C/cNCtJeTud55/LHHs0OHD2Xvv/pfnNPLIGVcxzIYnS04vS/Jnd4dcnqngfUPZfqQdIilw77APmKWEv1b5PCCb3eZHmdg39fblG3lh3YONhC2ELAtbARsKfos0lEONgKfYV4Yh33lbwOY4EiV57dZbAvKxAZKHWf6ZCSEbXCMy/DLTW3DJ2YXiDRyeouR0xthlIssltfChinXV8Dgl1FWnuVln0OnlziLD8vx0xn+cQvDy+oxDagDTr7VBUeJi/43fuM33KgmS7SZ5eWp0ihm38mHWe6Dv22+x87LpOsXK79om8PUJ7k/cnrnwUBjkIQHglx++QvcCo5R93X+es4/3PXqfo3OgkYoYVwbFGIYShoqKxRYRs+9i+9617ucI1A0AIueYjbLd3p37LjEXdtyehfgOPl2w6jE+oeQWBq/DmX1IX+V7YjhqXM+QOejHnJ6i5HTG2HYiyyVzw+vU7Y5Pz7kR9gPK8sv098/CzeH14+jbMTKs7R+ujDcsDAg3P89K6iD7/Qy68sTqXliI7OqvLoIYcQVhzc0Tma5D/62+W7nPQz38c+Hz7D7EctXVNYw2/HzDOSX0zuPuy5PncxOW3VaduGF57t95j2MjNIzeFMVax3+EcXpdeSf6bOXX/8Vn28Yb4GL0YywmCV5LxZt7+gWlnzy8Ece8MPsLiuH6Bv8QVHTS/4njvFSdHpjOjrEtx9GtQ9SdkeMVLxfRqrfNChjlPqKcuqcD9D5qIec3mLk9EaocpHVuRCrpvXT8R3x62vxYTrDvlsey2/iYw4v+GWAn7+MKml8JpWedOYsAkYLTgJLt3E+cHb9e2fqUlSPuvuUwsrx92NcZUPdfUilH7ZOfr6BMpaY0+ufX+jt9sK+4xSz1J17Z5nptWXwsX3u5cqvZfeZw5e8QLvaF0rNv/cDXZh9jxxz3N6BjB4ueD6PbaUCifIWk07Y27b76hF3aObxMi3e1TB8MMFg+oLtuIjFsYlgj8HIePrIdiMJI6fRIx5ZnIdcJQnAJamQrk958sHIKunLijuVO23sK2391CkGe3s5uKWFAVH6Bh4cxCoLrs9Vq7gXceEKIn0vby8fnzi93/7t3+45vds76fS6/Xb6pfAoTwU7/qEtY1h8ilS+kLJyiijaxijldpGq50PUQ05vMXJ6I5Qpp7rKq2r6MB3Gcay+odEMsW0QZvn5tO/kD9P720mV5WPpY2mhbniKovRhnP22T+pYNb+//xDLlyqraBspivLg9JSdj2EoKicWl0o/bH38fANlLHGnF2L7Hoaljt+i5YfEeVktbWWntx8Ui4NeOAUstNEiUuXEKEsbiy/K48eF6Ub9bdQNN4ri65Q57HaG2X5I1XRG3W2WlV8l/tQpnN7eoKiJ5UPP4qhy7yUDpXzy2+/fLL1/3fIAoUGnd0dnnd6m3dMLYX8NfnyMWJ4Ydcvhd5inrAxR/XyIesjpLabZGrqBTFKZxZTpKPj5qbfJqDRdWVWtH+lMmoxfzzbUV0yewjZAnBcdthk/a1E5qbheef0fUyWmu6rrMzsOVv/B3zg/4e/eAwAJR5Yvt9++9MIXx6XSI0Xl9QTny8odlMXhvN7JlzBN3XA/riiNny4Vv1iK0sXiysotjl+om+3Lip6s7Iv9zmUuTx+eB16NNf/p4nvnjvYxP+6Ti1ycxUzSVvLtGZNJwAA0KwJMGMi0Tx42RTzbpo1YequPDZJMqm5CiPrI6W0YrjOdMuE2zejzsbAwvKm0pZ7D4p8PX8TSwc539LznYczs+rLQRgbbioUvxC+QCodly1hJMijMO4eSCq8vsXKGLXtx3dlFbNfF0nN0epKOW77cj4+FDcb1JIzzxU/XE8qLOXdIKk3d8DC+KA1SFj8o6XQrVlQLG5Ty7c7lzu5cXg6yYtXybOVpK7KVq3rCb2RuRV5OHr+MB/vO5W2qL8vy80DYXL4dJ/1yCKcN8Se6C084ZhWhCasJEd6Tz8odlrmTBmcXJ5eZdD5PnDjh7g9nMCWmO4UQs8GpbtEsypRkyggtQoq3XQw7OmxtI9ZGUuGi/cTOrR82EGcfifhYGIThfpyRShMLryuxcmJhkxQ36xcJR4api80o+hJLV0VSZVQJD+Ni8bE0li4WXldixy8WViYhefVyWdif3qxvbykzYuHgz9Ih9htiZfcgXs5vF7nooouyV7/61dnb3/727B3veMe8XHXVVdkf//Efu1fLsayd1wMx8/vd3/3d2etf/3on3/M93+Neq2gzvmI47BqUVBNRjJzeBpPuZHukOvkyhs0nposUmCglv4zzq7n/o4dd37Hr3IUt+svD+3a7+x3ks99hOIRxoVRJM2sZF6myqm6jjtFiaVOSSpMKR4riyqRq3qJ0sbhYmC+xeJ9eWO+7nW9zck3s/JAWB8Vm7ULHd0BcDtFleMgZ5/q7vuu7siuuuMI9rfu5z32uk2/+5m/OfvAHfzB76Utfmv3oj/5o9tSnPtW9058HDl5wwQXZ+eefn23YsME5wkKI5iCntyZVDZhRqbMd68xFN/DPJZ2uECnyK5//Cgl1A78GpRdvv42UTqmja8apl2JljbP8UUldq1Wu4arXOemK0lp8LE1R3ipxw+QNKUoXiysrt6w8/vIv/ZBBaDvWflzavpjjazLg/PJHecXVWvK4YzRGxl1eFbh3l6fob9myxb3b/6abbso+/OEPO/nYxz7mljvj3P7AD/yAm9Ul7V133ZV96EMfyq677joXf/rpp7uyaEc8HRxHmqXPwFJowojzwVE+dOjQvNNtYSyjDmGbPOyRe4xpo5RNOhxwfht8Jw1pyQOWN1YHYJvE8Uk9OB78tvyGn85g30gvRNOQ0zsE0zS06mzLOvGqeaa5H6Iedc6jEGWUtadUXFF4UXldBMNvnMa3lZcq04/308XCq8iweYfNV1di24mFVZVeZv4t/LY2a+3Xb8d+3gFHt5/XffaLXYrYsagiRixuGGkC//qv/5r91V/9lZM3velN2d/93d+5dztv27bNvVlg7dq1zunFKb722mvdPb+EnX322dl5552XnXnmmW729ylPeUr29Kc/3YUTzxJ7c1BxKHFAV61alW3evDl72tOe5t7TzqvrzIE2cHBJT1qcb9Iy48w73VeuXOnK4dhRNt9p57zG8cILL3Tb55PfpKEchJUPOPkXX3yxqy9C2aTn9Y/MZJOebVs+yqccqwPCa/aolxBNY/nOnTuv7H9vNbyDlfsneLDA3Xff3Q/tYZ0a+N+bAsqjqF7EFcWTPyTMU1a+aA7++VwS5+ZUeh8ZneaeKR7Bj3GxdeuWbO26te6evCZjhsGD+/ZnBw4ccO8B5RNjJHa9ViHZFtxDmKq1k2H0QFkekxRFcU3A3wdfQsrSjBIeSizeiIUZflxRfEhRHvDjQymL96UsbSw+FmZSFGfiXx/+kmYLM2J619L5AocPH8mN/G3Z9h073Czgli1b3bVt8U2Fhysd2H8gu+OOO50+OnTwkHNcisjdzv63dlP33DB7yevyXvjCF7pzfMMNN7gZTMJwVm+99VbnjOI8cgyJv/TSS7Mrr7zSLYXm/c/c6/vzP//z2Ytf/GK3TPp7v/d7s1e+8pXZj/zIj7jXyeAc7t+/39mt9Gn79u1zTu4v/uIvZq94xSuyn/3Zn81e9KIXZc9//vPdNm+++eZ+7TJn7+JEc8/x7/7u77rX+v3Yj/2Ym3Wmjl/4whecs0vdaJu8wuZ1r3td9nM/93OuzO///u93r92inN27d7t6sJ8/9VM/5bbPfn3f931f9mu/9mvu1Vw//MM/nK1fvz7bs2ePS89rA2lDz3zmM7Nf/dVfdfWgTIR9ZdvMdqdo+rXSVhhMYeCCgRYGL8QgmukdkjoX7Lgu7lHKoUP3xZDiaQ+cKxOx9PCv25CiOJ+q6eoyjro1jaZdZ7Fr38J88UnFpcIhjDNJURQ3a8K2x++q7bHJ+yWGw85/kVTF0tNOGEixB6ThYDLLSThLjUmDE4ITSfynPvUpJ8TjdJqDiDPJjDFOKY4rA76f+MQnss9+9rNue9xD/KpXvcpN8DCjzLuhcaAvv/xy54T+x3/8h3sfPAMbOKu//Mu/7GaH2SYO9mte8xrnBPHkabbP55Of/OTsta99rVuijQNPWmZzcZq/6Zu+ye3H//zP/2T/9V//5ZYv86Cub/mWb3HlMgBAfX/mZ37G3eeMA0y6//3f/3XH4Cd/8iedMyxEk5DTOwKz6BTZpkkZdRS4aD7++azTDoQYhTI90nY9Q/1T4lMn3qdKeCg+RXF1SOUtK7Nsu6PUaRbY/oT19nVqKKK5+OezTKoQS4sjycwtziXC7ChOIc4eS3uZocVpBdoLziNOMPmYocVJfOCBB7KPf/zj2d/+7d9mb3vb25yDSJrLLrvMLUtmRpZZU5Y/81qkN77xje5J0W9961vdfcI4mWyP5cM40c961rOc08n9u5THE6bf8pa3ZO9973vd/cA4uDitONvf+Z3f6WYAWXr9D//wD25pNp/XXHONW0ZNvM1YkwdhddJHPvIRV4d3vvOd8/XF2aaOpGUWnHrceOON2Rve8AaXjrI/+tGPunjiqC/3Dvv3/IJ/XiTjE1GMnN4RqdohFqUbtlNVZ7z0iCk1tQMxDmJtq6wTVSfbI3Uc6oaPis5HNThOvhjoUl+f2veu6th87/vfFuOODfEdaVL+ea5CmJ4ZTpb4IixP5snNz3nOc5wz+uUvf9nNwFoeW0bPDC4OJN+57e4zn/lM9qUvfcl9fvGLX3QPrMLpZCkqS5Vxfjdu3OgcWYRbe7hnlrL5bTOwOMfcZ4szzcwqTiblIcwO4/h+8pOfdM65LcFm+fIHPvABNxv8la98xX3ymzQ4sdwLzC05VneWb3/+8593aRGWS7OvLMlmGTRQlzVr1ri6EUd9cYypLzPV7NsznvEM952yhZg1cnrHwCw7xLCTFtPHzsG0zoUzRvpipLafqlMsTHSb0IgzwrZUlWHytJGi45OKK8vTJJqiC1LHcVhS5YVi4T6mN026SHgcQukl4t/iuJiExMLaCo4ry47/6I/+yMkf/uEfullOZnI/97nPOeeQe1xjbcWOD04ngtOIU8lsLE84Jg8zwzwICgcV55fZ0d/8zd9098naEmYeKoVDyQOluO+X2V5mUHGiKY94nFEc6X/8x390ct9997mZZpzRvXv3ZrfccotLSzpzbAknnnQ+zGzjqJIWZ5ttsb8G+dkXHHucX+r627/929nLX/5ydw8yM+DUlxlmPoVoAnJ6x8SoHeMwHYQpU0h1zhYeiugG1gZ88YmFQSxMLE2KdIJ0xWId6pOKS4VDGGdSB7uuQ/FJxYXhFhcLR3xS8bHwuhIrJxZWRcInL4Mfj5DGxNLZpxH+7hJ2HIrET1eGn8/Sh2ExqUosL1KHWP5QUuAc8mAmBGfxgx/8YPbnf/7n2Xve8x63tJnZ2phzV1S+Xfs4vTiXOM44i8yOch8uy5df8IIXuOXHOMI4oczM+s4n22TbOK7AJw40wndmjm1mNgSHleXao7xeCMf3kksucTPhvL+Y5c/8Zl9w8ouOqRDTRk5vx/CNKMTH/x2LF0J0l7LrPRVfFN4FHWL7USQ+VeN8/PAwzkjF++EWFwsLScWVhcfiDD+NnzYWXldi5cTC6oqR+u2H23dmsUy6ijkjvkNWR8ZFrGzEH7gIpSo4dcx83nPPPW75Lb+HgeW53DP767/+6054oBT32nIvK+UX4dfXvvvtDmFfueeX+1554jOztMwk21JqHjR1xRVXuO/vfve75+8fZgYaJxmH3HdcfUeYGVrKjkE63opgDvMw4NhybKgfT6fm6c88dRph1veqq65ydRxlG0KMCzm9UwTlloK4UKEXpS9T/Kl4KzPclmgOnKOicy+WJnmr6H9bTNU2U5YuFVeWp6jcorxNwHThsJIqIxWOFMUhZfGh+FSNM/ywMA5i8cNKUXmxuFiYL6l4I//V/9bDjysiLM+XLhHbv1BSxNIihv+9jLAMyxv+NlLhPji4LNll5pFX9HAPLE8VrntvqW0Hh5SnMSM4mJTDw5rKHGlf/9l3v/4IZeHs4rwy68vSZcq2e2lxipn15XVAF1xwgXvFEcuPeYUQ+8dsK69YwrnFwXzZy16W/cRP/IRbLs1TlRFmfnFKcZRJxye/cXqZPeY+3DpQv9tuu83tP0uy2Qfqyyw4s7y8tgnHnXuFcXi7PIAk2oNa4RipYtyNwwBESYru03RnQUyZCs2hapsZpm2N0h4nWa8ixlFemb5NxRflm0SZUBZfly6VVyUtaULpKpPav6YcN2Z2cQBZHowTyH2xOHrM2tYBHcKMKA4m980iLBnG0cNBNVK6xl814KfhGNnyehxHnGkcXGZOeeoxD8rCWWe2l/fkMoPKq4hwcHlw1K5du5zzy0OteG3QD/3QDznhXb2k415a6okjzYO2cDxxhCnPZpH5TTjb5YnRdWAQgFcf8eRq6svMLu8KpkzqTn1Zls0rkMat14UYFjm9M6BMATShwxDNQJ2FqAttJpQYqbiifEVx4MeH6WJxoVRNV1XC8qpihntMF/txYXyV8DDOKIovyifS5Ge9/63XDowqbULHfLLY8Z3UMcaJZMbxoosucrOhPPwJ59W/H7YIZoVJj/NMWbEZ3bAdUTYzrgjpcbIJ46FVOImkw/mlXsRTNsIxYFaad+J++tOfdmXhQPJuXd6jyzt6cbp5AjROJmXypGZegUQ9cTJJywO2fvqnf9ptj6c3s01mdfl+0003uWPwS7/0S65MPvnNw614x++9997r9pdZbJZsM3Nr+0X9KIty2TccdeJ4h/ANN9zgniL94he/2JX7+7//+86hZn94nzAz2LFjJ8QsWL5z584r+99bDUszWKLByBeKwccuXPC/t4WwU2AfTEJSHUgb91v06Py5O5XeP0blGYnevn27W4a1deuWbO26tQMj7E2E6xCj4cF9+93SMt55yCcGSuoaHZpl5eWl9AUUta9h49pI7LwUnatUXN3wkKrpQsry1S132Ho0CbcPXjO168DEwoqIxR8+fCQ7//xt2fbcmeIhQVu2bHXXdllZswZn6cD+A9kdd9zplscyY8gy1SJyt7T/rT6x4zHudpU65jhiOJjmvOGc8TRjHDCcuzLod5hV5ZPjxGwoNqaB4xdCucyu4mji8HFsaR/kx7nEAaROvOaHmWLKxpGkf8Cx5l5d7FfsWBxj4qk79ea1RLyKiD7Rwr72ta85Z5RjyrZtyfH73ve+7J//+Z9dHI43fc/111/v2ijOqIXx7l3e8ct22R6z2DjX7Bv1ZT9skIDjSBxON9umHsRRX5xk9olZXepBXupw7bXXurxdpmp7TrXTccNycpbHc08372oWgyzLG237e7YcnqjH8gwe386olY/f2Ko0vGGVciof24zFpdIXbb8sTyre32/SFG3DGCVN3fAURenDuFjautszRimrSrqiNMPGxUilD8Nj6armrYqfb6CMk722GSuXh3DwugRGvbmnacel27OtZ/eectlkMBowCm65+VZnhPBOxNtvv90ZMTFjKbbvlcOWLS4vRSy/Tyq+KN+wZcYYpqw6dauav0o+IxVXlAfK4utStx7jql+d/ai7zVHqaHH+9RHr/0k3n9Yrz77H8uzZvTf7tm97fvbjL3lJdmnu+G7fviNbs3qNc2iaDLOKt+26LfvodR/LvvrVrzrnhZm7Ik5m6Vm6KvaUT8oWGoVUHdgOcehbnD+cMtO9VeuNU8cxw1lEd/uDrTiBIcSzLdLznT6AbSI4gzYwQrnE44ATR39mDrptg/Ni6W1ggjqYE88neXA0cToJ4zdpyYvTj3NrbZLjYXWjLmybtGzbjgfbZhv0u7ZtO2bkYX8okzjKsnDKoTzCEfaP7dq+jPucN4lpteeqsNScSYLnPe957gngYhAtbx4SGnooKcK4svQpivJUuVCG3a5oDpxnE9ENpnVNFm0npRtS4VAU11Ri107smgrD/N/jkDplllF2jurSpPNaZf9TuLz8O5UfR4Qf9t2X3Axa+N77nE+HiWTfPelvwf25jbQMO8ejnue6+SfRrvx98QVw2HDIcNAQCw/TpgRoRydyB5Oy/Di7Pn3B8cPhwzlkuzh+5lySnzSAM2h1I72VjwNJ2YQhOK843dSdcoAyKcecV9KwPWaKLS1xOL1sh/SWhzJYvkw6PvlNuKWhDsw8Ux518veTOMIo3/YNIQ3lEE65OMz2oC87VqNgZTRVxk1sG3VEFCOndwgm2bBGKduUkxAgBSiMoraQiuty+0npyVh4mU6tU5ZRVmZVhjmv0MRzHtv2yPVx2TnWuZxCvN/z4Qthzsl1n/Z74fuAkMeTXpqlSdVzRLppty+uM2YmWUqMI1j3uiMPy5URvvuEZfEbJ5CZV2ZL+Y5TygwzD9TCCTWIwyEljiXD/owowm/q7AvLkonzt8t3tkH5flp+E068Sd10sf2lDuyHnx4hzC+TfeK4j+OcWxlNFdEu5PTWZByNHCUxDNPOJ5pDqGjDdlgWbxTFiW5R1hYgFVcUXlbmpIhtc5R6mMEWYuFVJZUnFY4UxSE+4W+jaN+HiatyLEkTSiq8rsTKiYXVkRhlaVLHWwxHeJxjx7ytpK7ZaTCNbepaEF1DTu+UMMUfdgAhZQq0KM7K9csoSi+aR9hOTMqwc152vtUeuklZm4nFI6k4IxUOYdykJbbNWFhdaRKxOsXqWFTvYeKK8hhV0nSFKrpULFDUNmLHkfR125Pl8WWpMs22OY5rIXbuqooQ40ROb4dRp90Oxq3grZNKnX+1i/aSOq8Wnjq3RfFV4mL4+VJpoCiuLYT76u9T3XAI4yx+lDCjapyPHx6Lh1gapCiuSSJmQ1G/lorz+0STGKnwaaA2JiBspykRzUBO7xSYRoMv2kbsoquiqKXEJ4+UoZgGpgNS7S0VVxbuS4qiuLYQ7mu4T6OEx+KNmA72dbfFh2FtlNh+xMKqSkhRnBidWBtOtWufME2VPGLp4F+3TZSq0K6riJgscnprUqeRNwFdREIsHWLXe5kOSMXXDe8a7KdJiB/nx6fCIRUe4qcrSzsJ6mx3FvUblTbWuetYm9O5EUJMEjm9Q9A2x1c0E3XwYpzE2lNZG0vF1w1vK+zPMJLKmwpvk9TZhzppyyRWViysqoSkwsXs0XkRQkwDOb1CCNFAmji41pUBvyIHKBZnYb4YdcMhjPOlKlXSp+KL8tWpgxA+VdpkiKUfJi9YPolkFiLahZzeIZm08VdUvmaahRAh6IVQN1hYSmek4orypcLbRJX98+PDsFGkbnkpqqSrGw5F5QlRlWEdAjkSQohJIad3BJpiGKiT6BbDtisbefQlJBUumkmqLRS1kaI8JiFV4kL8PKk0kApvCuE+NEWMWBwSkorzw/24VLgRxsfSQCpciGFRHyXahtlWsrGajZzeERlHhz/MBSJDo71MQilWKU+KuJ2UOxv1dcEw+mMUnVM17yjbiDGO8srKSMXXDQ8Zpe6j5BViVKr2NUXp1F+JthBrq2q/zURO7xiQgSFmAUrVRHSbIgcqFtULL5+hi8UV5UuFG37eMG0sLpSq6arKMOXFKEtTFh7GpdKHpNKUXfPj1gnT0DOx8ie9TTE76p5ba4MSSdMkRdV0YnrI6R0TVQyYIiZxQegiay+jtichRDV8o8TXmWH4yZMn5yUVF4b7cWGZqfTjkHBbo8q4y4tJbBuxsDoi2o3OpRBinMjpbRBS7KIqaitilnRhUMY3pu177LpKhUNZnqK4UfDLD6UoPhVnxOLaKmK2FJ2DKufHP5ehCNFG1IZnj5xeIYQQjWechkJYFk68SYgfF6ZJxdUJ96UqsbwmRfGpOCMWV0Xm5uai4aFUTVdVisoT3UVOg2g7asOzQU6vEA1FhpsQPZpmIMz62vSdu1CMVFyd8KpSNX/VdFWlrDwxG+x6lWEvRBpdH9NHTq8QDUaGmxgVdaz14HhN6pjpXIi2YtdFFfEpix+WWLnjECGmybjbndpwMXJ6W4iUsxCijKp6omhgZdhBF9t2bPt+XFUxUnGx8CIJKYrzKUtXlj9GWZlVGUcZQoQstXZl+ytphiwVYvs+jIhi5PQKMQNGncHVDLAw1NFNliKDwo/z42NpjaK4LjOL/bbzslSPedPxz08oQggxbuT0DklVJV0U7ufzP/1woyjcJ5UuRSpdURkWl4ovoshZ88stKr8obtaU1XmYenPMYsctFT5pZrHNLpM6nn6bWdxuCOOVNyezZXmUkzxsLGLlsUlXbv7nhVWSXiUXkUdlp/LIlJAxFu6kn3fcFF2TRXFFFF0jda6f1PatTfjiE4tHUlCnonql8sbKtbBQjFicSUgsDGLpLcyXMqqmW2rkRyX/y/VLLgvkYfnFXUn6eWNxRtXjrvMjmozpkKpSRixPHRHFyOkdgkk1rFS5VcOn0eDHsY06Rl+bmMbxFwJ6bc2kj/vqhw8rC3CljutqdSWXFDa49YBuqo2xM4oeiunmceq1OmVNWp9Ouvx2kxvQ/T+j943/y2X+7xROsxeXH/NeOL/LsXQ6V0uXJp/7Yeqmtjxb5PTWZNoNtkkXiC5WIWYL16CuQ5FCbUNMjp7uqSI+A3HO8e1HlFBYTkmciegGsXPbBBmWcZYl6iGnV3SaLs0qd3WGXIgyZBgIIXyqOAx+mqoixCyItcVhRBQjp7eFtKFxN8lBoy6+CCGEEKIcGdNCiK4gp1cIIYToAE0Y1OvKwKI/UNqVfRqFun5vmaNsznRKhBBi3MjprYk6PyFE15BeE6IY/xrR9VKMOa2LnNf8Z+7SyqkVQswEOb1DsFQ7PHX0QnQXXd9CFMM1snSvk8GZ2CLxGYjreb1CCDET5PSKziCjXQghhKjGgEM6IAvxbWBx/Yevd6wsiaRNItLI6R0SOVhCCCGE6CJtMZ5T9ZQTIIQIkdM7AkvR8W36PmswQgghmon0c3MwZ9B3Dk3y0GRcSppM0+snhJgOcnpHRI5v85BhJYRYqkg/i6qknEE/eMGx7QckkOMrhGg6cnrHgBzf5lFUPxldQogu02b9LKZDmRM4jJMox1cI0WTk9I6JpdiJy3ARQohm0nbHV/3L5DnFX+4IxsTF9z/rECunSZTVKay/RNImEcXI6Z0wk+i4U2XKSBBCCGE0vU8oq5/6tPbTREM85SDIaRCi28jpHSNLsYMu2udZHw8ZTEKIpY70oJg1TXUmzfk1EUJ0m847verwZ0tTj7/ahRBiqdBkfSddPEOm6uflG3P/5FwKIWZDp51eOlNfxNJD5709xM5V28+fDDzRFKQLRcg0ZzjZjNOH/NPMqhBiBmh585hZioYF+yyDSgyL337sexjWZszAk5Enlgr+9buUaNu1Puu6tulYCSHaz5Jweq0DDmVaTHNbs2Sp7KcQlXC23GKDzgw9X4SYBm3U0W2oc9uv4cX6aLp6Kdx+HRFCLEbXRpzOOL10jMuXL3fCyeZzbm7OhfviEwsbB2XlFjVGU+QmMYry1yVWz1HKn8TxrIp/3HwJSYVPG2snw0pdisrwv0PZ8QnL8SVGWN58+vzP8MsIZcWKFe4zT9VL3HBcXanqqWWYj/P7kcLapC+zIK9l/9sCw9Ulvq/D7lfZsesqsf0edX+tLcbEj6+Cn9cXIxYG7IMvZcTK9RnmmFiZYdlGWEdfLB6wM1auXOm++4R5UjJt2CLbpd58PvHEEwP1QU6etM+T82HktO8jSZaXabIs/z2q+OVJJEtFItfW448/nj322GPuukWnESYG6dRMr3VenGgUujm9RtixWUOZFOH2Jo0auBgHo7aj2HWWhKQllwnlOQMt/3O0qJlTd/fH55T1wVCMsYqL93e87WrSSJ8OT9G5GvdxncV5sm3yadf2tNvnqJjTW5VxHWb0+PzfqZMuZBTRn/6W4l8I1zIDWDZQ1TZ9NC06v7xZJ16IZlPkFFoYSh4jzYycpkOnYwalDb7VMTCFaDtd73u5rns6aeF696Wx9Ovm1z3GtPah0cdKiBbBNc2qOLu2xWI6dWSKDOdUB2wdlC9CiNlg16p/zaLAl88td8LV2YZrlDqefIJZjCw77bTT3PJH2x9f15gIIdoDOmnVqlXZ6aef3g9pF9QfvYROiukjZJrEtl9VhBA92wmdtGbNmtbqpWnQGaeX0Y3Vq1e7E86JZ107CtGM55RyF0I0GxT4ueeem3+elq1bu7YVCt0ZlXl9V68+Pdu06cxs48aN6oiE6AhbtmzJzj777Gz9+vXO7sC+aAPYR5vOOivbsGGDE+wmIUT7QQehi3ie0drcTjrzzDP7McKnM04vJxtnF0V+ySWXzD/QKkUqzneIxyFWphCiPhiXT33qU7OtW7dmp+fX+IqV9kCrZkMdcXzRSytWrMzOOOMMp5uOHz/eTyGEaBvcM/fAAw+4Qbjzzz/fOb04km0BnbQm10mbt2x2+ojBOFahnDhxop9CCNE2uI8XYSCOwfV169a5a1sspjNOLyfaRjee/vSnu984mzQEo8gJJUzOqRDN4ZFHHnFK/LLLLnPO44YNZzgHsi3g+J6x8Yxs9ZrV2XnnnZdddNFFzugUQrQPbAlWkDE7+rSnPS278MILndOLcdmm6xp9dMEF5zsbCecd59e3k4QQ7cGuXWwk7AwmCJgs2LRpkwsXg3RqptdGN1DkF1xwgbtnxZ5mVoScXSGaA9cjM6JcvxdffHF/EOs0N6C1alV7nF4MYQzK9evXOeedGWs6JVahCCHaAzYEs6EMZF166aXZjh07nJ2B08s13iqnN7eVsI82bNyQbdu2ze0Hs9VyfIVoF3bNcv2y8gRnl2sbOwPdJBazfOfOnVf2v7caOh2ERoDBfM4552Tf+MY3skOHDjnHl84qNpsrh7c7VD2XVdLF0gzbVibRxsZd5jjLs7LCzxS8tYI0lo5r9eDBg9nll1+efcd3fEe27fxt2aazNmXnnHtO9H2YTYX9wMFlduj48WP5/mXOQN6zZ8/klhOOY+X3qTEtH5/QKvR23D05fcqus6rErttRym56eUasPD4R3n/J9Ywx+aIXvSh7ylOeMj+bwmB7DNJXoWq6cYFOWnXaquzo0SPZsWPHXBj7uH//fm9ALt/v8Cn57p24ox9nIcSo5DojvxTxd2wQ69nPfra7jepZz3qWmyywZ4hMW780nWW5QdYZLUbHhLGMUXngwIFs37592Z133pndfvvt2e7du/upeqQawiQaiN+ZQvgbYmEpUmnrlOFTpX51qFJe1bAYqbx04FXLaCv+/tn3UfZ53OUZKOMq54P4Y0ePz6djpQbLmb/1W7/VGZZnbd6cnZU7vOdfsM3N9LZpRsU4cuRI9uC+B7MHvv5Ablj29NItt9yS3X///dnhw4f7qaqxcDz5DI9t/js3TI1hz+Opk4M6MFVOUfkuhn7ZS1PFZC6rM/HeLjoK61FSHqTSjJI3RSx9WRlhfKoMBnvLyirD8vvljFImeWNljVImxMqsC/n8vOgs+80nv7nFgu8sZX7e857nhBkVdBGfDK6nVm401ekF9g2ddPPNN2e37botu/fe++btJZzfRx/L21J4tcrpFaIxzGXLnf7BwcXpRSfh+D7zmc/Mbaaz5vWSnN5BOuX00jnR8T/88MNOceMA4/zy4Ank6NGjLgznOMU0nN5RGXd5PpMs25jENiiTGf2uU+XYWRo+fbEwn/D3uKBczkel8nMni3TMgj7pSU9yBua5552bbdywMTv7nLOdYl+zZnW2ctXCa3/axBMnnpjXSQ8/fDA7dPCQ+753715naGJYP/roozXPBWnD9PnvMTi92alqAwuF5eenKVI7F15ElTqHTm8RQx+Diky6fKi6jXGvHhj3vjWtPMvPJ2JOrwnwcEyWCWJUYlyii9BTGJjM9DJIZ2l96uipWeg06vz4Y4+7lXC7du3Knd+vZrv/b7f7ja56+ODD84MozgHmmCy6ooUQs4DXN27evNmtNOHWKewmnhmC00uYvyJOTu8gnXJ6gY4LAxLnFmEmBTGHl1kXPalQdB0zxJyx0hfD/94EGLEEjEueKrrpzE3Z8hXL3Wjl1q1b3JIdWDbXXuWNAXnk8BHn9B47fiw7fux49tCBh9ygHLqJJdD14ByG5zH/XccjjOGyc5xHO9bzxXjEwmrT3732tgTRFHwdaZ/+d4xFnivg9FLfwDQnGGeXZc38tjxGXSNzVkbpqZO9ejMA11sR97Xs8KHD2UMPPeScX+wowOk9yT0oQohGwCwuzi46iQdXcW/+k5/8ZBcWrjyR0ztI55xeoBNCYTODgpNrTi+GJU6xEGL2mLE4t6z3erHlc3PutUS81xZFzUyK/zqQNju9wAqTo0eO5kbko9ljjz7mHGB0E3ppbtlcvoP9hJWIqe08rCFOryMoYsSaDdDuliCaRui4GtxOgS5idhdhBgWdxJsiMC5HdXhh1k4vFxMDcvfce2+2/8EHs7179mZHcnsJW4m6PfHEifzaHefVK4QYBfQSg27M8PKcgaKnNc9KvzSVTjq9PhiUtsyZTqrykkshxFTggQsstUM5M4vCaGXIgOJusQ7H0LSlzOglZlUwLpkxGr1zyvXaOI7NhB5kNS6t2+LTLxpEaAf4v+1a5LpkwNyWEaYY5dod/bqvibfbbp/zzS/L/2z/ue1if24vMUi3csUKN0gXHishxOzA6bUnNqcepGdMXb80nM47vShrjEqWNOPwosg12yvE7EAJ+7Ji+Yr5cAameA9mCHHztFyHmwF58omTTh8xMDceegbsSMz3BmM4yEER4+xoWt4EREMwHQQ2q+uH8cn1ymdML4GlHZZR89fGuxBDZ5bVNAxAYiudZL/zsN73BZtJDrAQ0wc9YboCXYWtZAIpPTJ1/dJwOu/0+uDsorCltIVoBk6Rey5MJcXdIR2OLtIgnBCzZxjjcBwG5TjKqEWB0+t0az/I4mxps+wmIWaLrytwfLkmy/TH1PVLw1lSTq8QojmYEYXTW2ZQDShu6XAhxJjwdU8dx25cxuTUjVJvF6vsr+7nFaJ5VNUbcnoHad9LL4UQQgghZoQMSSGEaB9yeoUQQgghKiCHVwgh2omWNwshZoK/vLkWsjmFEGOizpLmSTDL5c1V0PJmIdqLBukGkdMrhJg9ZVpIelsIMWGqOsCdMSRl/QnRTmQTDYWWNwshhBBCCCGE6CxyeoUQs6do1FIjmkKIKVBlBrdTywWlW4UQSwgtbxZCCCGEEEII0Vk00yuEEEIIIYQQorPI6RVCCCGEEEII0Vnk9AohhBBCCCGE6CxyeoUQQgghhBBCdBY5vUIIIYQQQgghOoucXiGEEEIIIYQQnUVOrxBCCCGEEEKIziKnVwghhBBCCCFEZ5HTK4QQQgghhBCis8jpFUIIIYQQQgjRWeT0CiGEEEIIIYToLHJ6hRBCCCGEEEJ0Fjm9QgghhBBCCCE6i5xeIYQQQgghhBCdRU6vEEIIIYQQQojOIqdXCCGEEEIIIURnkdMrhBBCCCGEEKKzyOkVQgghhBBCCNFZ5PQKIYQQQgghhOgscnqFEEIIIYQQQnQWOb1CCCGEEEIIITqLnF4hhBBCCCGEEJ1FTq8QQgghhBBCiM4ip1cIIYQQQgghRGeR0yuEEEIIIYQQorPI6RVCCCGEEEII0VGy7P8D9zfaRajFLrQAAAAASUVORK5CYII=;" vertex="1" parent="WIyWlLk6GJQsqaUBKTNV-1">
          <mxGeometry x="2600" y="-530" width="513.36" height="294.5" as="geometry" />
        </mxCell>
        <mxCell id="kV7S6TC3auCnjzCI8arg-46" value="Tools" style="rounded=1;whiteSpace=wrap;html=1;fontSize=12;glass=0;strokeWidth=1;shadow=0;" vertex="1" parent="WIyWlLk6GJQsqaUBKTNV-1">
          <mxGeometry x="2510" y="-800" width="120" height="40" as="geometry" />
        </mxCell>
        <mxCell id="kV7S6TC3auCnjzCI8arg-47" value="Memory" style="rounded=1;whiteSpace=wrap;html=1;fontSize=12;glass=0;strokeWidth=1;shadow=0;" vertex="1" parent="WIyWlLk6GJQsqaUBKTNV-1">
          <mxGeometry x="2770" y="-800" width="120" height="40" as="geometry" />
        </mxCell>
        <mxCell id="kV7S6TC3auCnjzCI8arg-48" value="Agent types:" style="rounded=1;whiteSpace=wrap;html=1;fontSize=12;glass=0;strokeWidth=1;shadow=0;" vertex="1" parent="WIyWlLk6GJQsqaUBKTNV-1">
          <mxGeometry x="2840" y="-1730" width="120" height="40" as="geometry" />
        </mxCell>
        <mxCell id="kV7S6TC3auCnjzCI8arg-49" value="&lt;b style=&quot;font-weight:normal;&quot; id=&quot;docs-internal-guid-30f1b68e-7fff-b93e-fe39-a48649a667ce&quot;&gt;&lt;p dir=&quot;ltr&quot; style=&quot;line-height:1.38;margin-top:0pt;margin-bottom:0pt;&quot;&gt;&lt;br&gt;&lt;/p&gt;&lt;p dir=&quot;ltr&quot; style=&quot;line-height:1.38;margin-top:0pt;margin-bottom:0pt;&quot;&gt;&lt;span style=&quot;font-size: 11pt; font-family: Arial, sans-serif; color: rgb(0, 0, 0); background-color: rgb(217, 217, 217); font-weight: 400; font-style: normal; font-variant: normal; text-decoration: none; vertical-align: baseline; white-space: pre-wrap;&quot;&gt;1. **Sustainability Expert** (SE)&lt;/span&gt;&lt;/p&gt;&lt;p dir=&quot;ltr&quot; style=&quot;line-height:1.38;margin-top:0pt;margin-bottom:0pt;&quot;&gt;&lt;span style=&quot;font-size: 11pt; font-family: Arial, sans-serif; color: rgb(0, 0, 0); background-color: rgb(217, 217, 217); font-weight: 400; font-style: normal; font-variant: normal; text-decoration: none; vertical-align: baseline; white-space: pre-wrap;&quot;&gt;2. **Architect** (A)&lt;/span&gt;&lt;/p&gt;&lt;p dir=&quot;ltr&quot; style=&quot;line-height:1.38;margin-top:0pt;margin-bottom:0pt;&quot;&gt;&lt;span style=&quot;font-size: 11pt; font-family: Arial, sans-serif; color: rgb(0, 0, 0); background-color: rgb(217, 217, 217); font-weight: 400; font-style: normal; font-variant: normal; text-decoration: none; vertical-align: baseline; white-space: pre-wrap;&quot;&gt;3. **Engineer** (E)&lt;/span&gt;&lt;/p&gt;&lt;p dir=&quot;ltr&quot; style=&quot;line-height:1.38;margin-top:0pt;margin-bottom:0pt;&quot;&gt;&lt;span style=&quot;font-size: 11pt; font-family: Arial, sans-serif; color: rgb(0, 0, 0); background-color: rgb(217, 217, 217); font-weight: 400; font-style: normal; font-variant: normal; text-decoration: none; vertical-align: baseline; white-space: pre-wrap;&quot;&gt;4. **Urban Planner** (UP)&lt;/span&gt;&lt;/p&gt;&lt;p dir=&quot;ltr&quot; style=&quot;line-height:1.38;margin-top:0pt;margin-bottom:0pt;&quot;&gt;&lt;span style=&quot;font-size: 11pt; font-family: Arial, sans-serif; color: rgb(0, 0, 0); background-color: rgb(217, 217, 217); font-weight: 400; font-style: normal; font-variant: normal; text-decoration: none; vertical-align: baseline; white-space: pre-wrap;&quot;&gt;5. **Ecologist** (EC)&lt;/span&gt;&lt;/p&gt;&lt;p dir=&quot;ltr&quot; style=&quot;line-height:1.38;margin-top:0pt;margin-bottom:0pt;&quot;&gt;&lt;span style=&quot;font-size: 11pt; font-family: Arial, sans-serif; color: rgb(0, 0, 0); background-color: rgb(217, 217, 217); font-weight: 400; font-style: normal; font-variant: normal; text-decoration: none; vertical-align: baseline; white-space: pre-wrap;&quot;&gt;6. **Materials Scientist** (MS)&lt;/span&gt;&lt;/p&gt;&lt;p dir=&quot;ltr&quot; style=&quot;line-height:1.38;margin-top:0pt;margin-bottom:0pt;&quot;&gt;&lt;span style=&quot;font-size: 11pt; font-family: Arial, sans-serif; color: rgb(0, 0, 0); background-color: rgb(217, 217, 217); font-weight: 400; font-style: normal; font-variant: normal; text-decoration: none; vertical-align: baseline; white-space: pre-wrap;&quot;&gt;7. **Cost Estimator** (CE)&lt;/span&gt;&lt;/p&gt;&lt;p dir=&quot;ltr&quot; style=&quot;line-height:1.38;margin-top:0pt;margin-bottom:0pt;&quot;&gt;&lt;span style=&quot;font-size: 11pt; font-family: Arial, sans-serif; color: rgb(0, 0, 0); background-color: rgb(217, 217, 217); font-weight: 400; font-style: normal; font-variant: normal; text-decoration: none; vertical-align: baseline; white-space: pre-wrap;&quot;&gt;8. **Building Code Specialist** (BCS)&lt;/span&gt;&lt;/p&gt;&lt;p dir=&quot;ltr&quot; style=&quot;line-height:1.38;margin-top:0pt;margin-bottom:0pt;&quot;&gt;&lt;span style=&quot;font-size: 11pt; font-family: Arial, sans-serif; color: rgb(0, 0, 0); background-color: rgb(217, 217, 217); font-weight: 400; font-style: normal; font-variant: normal; text-decoration: none; vertical-align: baseline; white-space: pre-wrap;&quot;&gt;9. **Acoustic Consultant** (AC)&lt;/span&gt;&lt;/p&gt;&lt;p dir=&quot;ltr&quot; style=&quot;line-height:1.38;margin-top:0pt;margin-bottom:0pt;&quot;&gt;&lt;span style=&quot;font-size: 11pt; font-family: Arial, sans-serif; color: rgb(0, 0, 0); background-color: rgb(217, 217, 217); font-weight: 400; font-style: normal; font-variant: normal; text-decoration: none; vertical-align: baseline; white-space: pre-wrap;&quot;&gt;10. **Lighting Designer** (LD)&lt;/span&gt;&lt;/p&gt;&lt;p dir=&quot;ltr&quot; style=&quot;line-height:1.38;margin-top:0pt;margin-bottom:0pt;&quot;&gt;&lt;span style=&quot;font-size: 11pt; font-family: Arial, sans-serif; color: rgb(0, 0, 0); background-color: rgb(217, 217, 217); font-weight: 400; font-style: normal; font-variant: normal; text-decoration: none; vertical-align: baseline; white-space: pre-wrap;&quot;&gt;11. **Plumbing Specialist** (PS)&lt;/span&gt;&lt;/p&gt;&lt;p dir=&quot;ltr&quot; style=&quot;line-height:1.38;margin-top:0pt;margin-bottom:0pt;&quot;&gt;&lt;span style=&quot;font-size: 11pt; font-family: Arial, sans-serif; color: rgb(0, 0, 0); background-color: rgb(217, 217, 217); font-weight: 400; font-style: normal; font-variant: normal; text-decoration: none; vertical-align: baseline; white-space: pre-wrap;&quot;&gt;12. **HVAC Expert** (HVA)&lt;/span&gt;&lt;/p&gt;&lt;p dir=&quot;ltr&quot; style=&quot;line-height:1.38;margin-top:0pt;margin-bottom:0pt;&quot;&gt;&lt;span style=&quot;font-size: 11pt; font-family: Arial, sans-serif; color: rgb(0, 0, 0); background-color: rgb(217, 217, 217); font-weight: 400; font-style: normal; font-variant: normal; text-decoration: none; vertical-align: baseline; white-space: pre-wrap;&quot;&gt;13. **Fire Safety Specialist** (FSS)&lt;/span&gt;&lt;/p&gt;&lt;p dir=&quot;ltr&quot; style=&quot;line-height:1.38;margin-top:0pt;margin-bottom:0pt;&quot;&gt;&lt;span style=&quot;font-size: 11pt; font-family: Arial, sans-serif; color: rgb(0, 0, 0); background-color: rgb(217, 217, 217); font-weight: 400; font-style: normal; font-variant: normal; text-decoration: none; vertical-align: baseline; white-space: pre-wrap;&quot;&gt;14. **Structural Engineer** (SE-2)&lt;/span&gt;&lt;/p&gt;&lt;p dir=&quot;ltr&quot; style=&quot;line-height:1.38;margin-top:0pt;margin-bottom:0pt;&quot;&gt;&lt;span style=&quot;font-size: 11pt; font-family: Arial, sans-serif; color: rgb(0, 0, 0); background-color: rgb(217, 217, 217); font-weight: 400; font-style: normal; font-variant: normal; text-decoration: none; vertical-align: baseline; white-space: pre-wrap;&quot;&gt;15. **Geotechnical Engineer** (GE)&lt;/span&gt;&lt;/p&gt;&lt;p dir=&quot;ltr&quot; style=&quot;line-height:1.38;margin-top:0pt;margin-bottom:0pt;&quot;&gt;&lt;span style=&quot;font-size: 11pt; font-family: Arial, sans-serif; color: rgb(0, 0, 0); background-color: rgb(217, 217, 217); font-weight: 400; font-style: normal; font-variant: normal; text-decoration: none; vertical-align: baseline; white-space: pre-wrap;&quot;&gt;16. **Environmental Consultant** (EC-2)&lt;/span&gt;&lt;/p&gt;&lt;p dir=&quot;ltr&quot; style=&quot;line-height:1.38;margin-top:0pt;margin-bottom:0pt;&quot;&gt;&lt;span style=&quot;font-size: 11pt; font-family: Arial, sans-serif; color: rgb(0, 0, 0); background-color: rgb(217, 217, 217); font-weight: 400; font-style: normal; font-variant: normal; text-decoration: none; vertical-align: baseline; white-space: pre-wrap;&quot;&gt;17. **Community Engagement Specialist** (CES)&lt;/span&gt;&lt;/p&gt;&lt;p dir=&quot;ltr&quot; style=&quot;line-height:1.38;margin-top:0pt;margin-bottom:0pt;&quot;&gt;&lt;span style=&quot;font-size: 11pt; font-family: Arial, sans-serif; color: rgb(0, 0, 0); background-color: rgb(217, 217, 217); font-weight: 400; font-style: normal; font-variant: normal; text-decoration: none; vertical-align: baseline; white-space: pre-wrap;&quot;&gt;18. **Sociologist** (SOC)&lt;/span&gt;&lt;/p&gt;&lt;p dir=&quot;ltr&quot; style=&quot;line-height:1.38;margin-top:0pt;margin-bottom:0pt;&quot;&gt;&lt;span style=&quot;font-size: 11pt; font-family: Arial, sans-serif; color: rgb(0, 0, 0); background-color: rgb(217, 217, 217); font-weight: 400; font-style: normal; font-variant: normal; text-decoration: none; vertical-align: baseline; white-space: pre-wrap;&quot;&gt;19. **Economist** (ECO)&lt;/span&gt;&lt;/p&gt;&lt;p dir=&quot;ltr&quot; style=&quot;line-height:1.38;margin-top:0pt;margin-bottom:0pt;&quot;&gt;&lt;span style=&quot;font-size: 11pt; font-family: Arial, sans-serif; color: rgb(0, 0, 0); background-color: rgb(217, 217, 217); font-weight: 400; font-style: normal; font-variant: normal; text-decoration: none; vertical-align: baseline; white-space: pre-wrap;&quot;&gt;20. **IT Consultant** (ITC)&lt;/span&gt;&lt;/p&gt;&lt;/b&gt;" style="text;whiteSpace=wrap;html=1;" vertex="1" parent="WIyWlLk6GJQsqaUBKTNV-1">
          <mxGeometry x="2840" y="-1670" width="350" height="480" as="geometry" />
        </mxCell>
      </root>
    </mxGraphModel>
  </diagram>
</mxfile>
